<svg width="249" height="176" viewBox="0 0 249 176" fill="none" xmlns="http://www.w3.org/2000/svg">
<g clip-path="url(#clip0_86_1410)">
<mask id="mask0_86_1410" style="mask-type:alpha" maskUnits="userSpaceOnUse" x="-2" y="0" width="251" height="176">
<rect x="-2" width="251" height="176" fill="white"/>
</mask>
<g mask="url(#mask0_86_1410)">
<path d="M124.951 162.275C153.409 157.136 182.917 159.033 210.237 167.759C282.342 190.448 341.615 161.045 356.581 142.569C373.891 121.081 376.748 92.7919 368.734 66.944C360.72 41.0961 342.688 17.5346 321.087 -3.02359C304.194 -19.0671 284.466 -33.7931 260.872 -42.1539C237.794 -50.3307 212.503 -51.9486 187.793 -53.0433C156.044 -54.4675 123.67 -55.1844 93.3981 -48.6062C68.7099 -43.239 43.3539 -29.9856 41.1971 -9.07866C39.3688 8.74748 55.1889 26.3023 52.9883 44.08C49.89 68.9882 14.5164 81.3308 2.81278 104.146C-10.8287 130.731 6.49137 160.018 30.1832 166.296C54.8167 172.796 93.9455 168.078 124.951 162.275Z" fill="#1877F2" fill-opacity="0.1"/>
</g>
</g>
<defs>
<clipPath id="clip0_86_1410">
<rect width="249" height="176" fill="white"/>
</clipPath>
</defs>
</svg>
