<svg width="156" height="145" fill="none" xmlns="http://www.w3.org/2000/svg"><path d="M95.18 132.068c-9.736 7.075-21.633 11.866-33.968 12.794-18.597 1.393-32.983-7.892-37.337-22.966-2.424-8.384-2.9-17.307-7.412-25.07-3.074-5.273-7.85-9.683-11.52-14.674-3.67-4.99-6.252-11.1-4.24-16.713 1.784-4.958 6.707-8.537 11.367-11.838 6.648-4.698 13.3-9.389 19.955-14.071 3.829-2.707 7.8-5.474 12.58-6.736 7.227-1.918 15.076-.06 22.083 2.381 7.007 2.442 13.899 5.525 21.442 6.133 6.92.562 13.817-1.003 20.786-1.282 6.969-.278 14.714 1.166 18.598 6.036 3.517 4.387 2.861 10.315.755 15.32-2.106 5.004-5.503 9.572-7.248 14.665-2.407 7.006-1.548 14.49-2.697 21.722-2.062 12.943-10.912 25.422-23.143 34.299Z" fill="#1877F2" style="mix-blend-mode:multiply" opacity=".3"/><path d="m85.024 86.52-15.74-8.345 1.805-.702 15.942 8.082-2.007.965ZM93.845 81.777l-15.74-8.345 1.805-.702 15.942 8.082-2.007.965Z" fill="#E1DFEA"/><path d="m107.879 66.73-1.251 8.218-7.968-3.536 9.219-4.683Z" fill="#D2448D"/><path d="M111.419 38.644v23.044l-15.867 7.966-5.915-2.809-.421-22.902V27.41l22.203 11.234Z" fill="#A68EFE"/><path d="M98.665 43.226H79.662v17.391h19.003V43.226Z" fill="#42609F"/><path d="M112.457 7.382c-2.353 1.5-4.446 4.273-5.201 7.016l-3.027 10.85-2.508-1.268c.946-3.39 1.891-6.774 2.831-10.163.894-3.228 3.315-6.526 6.261-8.4 1.586-1.015 3.171-2.026 4.757-3.046h.006c4.157-2.702 11.162-3.187 15.451-.975h.006c3.557 1.803 7.115 3.602 10.678 5.4 3.557 1.798 7.115 3.596 10.672 5.4h.006c2.191 1.086 3.736 2.95 3.603 5.132-.115 1.995-1.585 3.728-3.413 4.88l-.006.004-4.756 3.046c-2.33 1.48-4.434 4.243-5.201 7.016l-3.84 13.765c0-.015-.092-.02-.104-.02-.328-.005-.847.086-1.17.151-.455.096-.801.197-1.032.132-.34-.096-.461-.56-.375-.9.069-.237.133-.474.196-.712 1.211-4.334 2.416-8.662 3.627-12.996.893-3.238 3.321-6.532 6.261-8.406l4.757-3.046c1.372-.863 2.577-2.242 2.225-3.682-.242-.985-1.164-1.768-2.156-2.263h-.006c-3.557-1.803-7.12-3.602-10.678-5.405-3.563-1.798-7.12-3.601-10.677-5.4h-.006c-3.252-1.677-9.046-1.369-12.425.829-1.585 1.03-3.171 2.046-4.756 3.06ZM129.119 44.322c.554.278 1.107.56 1.655.838-.317 2.41-.64 4.814-.963 7.224-.628.318-1.263.636-1.891.954.398-3.005.796-6.01 1.199-9.016ZM125.838 68.265c.646-.329 1.298-.657 1.949-.985-.369 1.414-1.263 2.778-2.37 3.753.139-.92.283-1.844.421-2.768ZM121.064 51.181c1.857.935 3.708 1.874 5.558 2.814-1.066.54-2.139 1.08-3.211 1.627-.784-.395-1.568-.794-2.352-1.188v-3.253h.005ZM126.582 63.385c.288-1.91.582-3.814.871-5.718.519.263 1.037.525 1.551.783l-.71 5.324c-.64.323-1.28.647-1.919.975l.207-1.364ZM123.457 72.275c-1.77.894-3.534 1.789-5.304 2.683 1.24.626.577.298 3.033 1.51.461.167 1.009.242 1.366-.06.242-.203.358-.541.398-.834.179-1.096.346-2.197.507-3.299Zm-8.809 2.688c-.341-.172-.687-.344-1.021-.515.582-.299 1.165-.591 1.753-.89.34.172.68.344 1.02.52 2.249-1.136 4.492-2.272 6.74-3.409.219-.111.421-.237.623-.384l.156-1.045c.639-.324 1.279-.647 1.914-.97-.139.924-.283 1.849-.421 2.773-.242 1.581-.479 3.162-.721 4.738-.225 1.56-1.493 2.54-3.182 2.349a2.458 2.458 0 0 1-.318-.05c-.53-.102-2.369-.93-2.802-1.218-.663-.338-1.331-.672-1.995-1.01-2.94 1.485-5.88 2.975-8.821 4.46.087-.566.173-1.126.254-1.692l1.476-.748v-.212c1.787-.9 3.569-1.798 5.345-2.697Z" fill="#E1DFEA"/><path d="M121.065 60.056v7.375c-3.217 1.627-6.429 3.253-9.64 4.875V64.93c3.211-1.622 6.423-3.248 9.64-4.875Z" fill="#D2448D"/><path d="M121.065 54.434v2.375l-9.64 4.879V38.644l9.64-4.88v20.67Z" fill="#8140FF"/><path d="m121.065 33.765-9.646 4.88L89.216 27.41l9.646-4.874 2.859 1.444 2.508 1.268 16.836 8.517Z" fill="#A68EFE"/><path d="M119.958 33.765 98.862 23.09l-8.54 4.32 21.097 10.672 8.539-4.318Z" fill="#8140FF"/><path d="M118.147 115.302c-.703-.354-1.406-.712-2.11-1.066a2.049 2.049 0 0 1-.772-.702c-.537-.808-.485-1.97-.248-2.889.784-.394 1.562-.793 2.346-1.187l-.034 1.833c-.669 1.955-.231 3.43.818 4.011Z" fill="#3F4F5D"/><path d="M125.17 108.902c0 2.177-1.672 4.824-3.823 6.046-1.28.728-2.41.788-3.2.354-1.049-.586-1.487-2.056-.818-4.011l-.029 1.516.323.171 7.276-3.677.029-1.657c.173.389.242.829.242 1.258Z" fill="#1A293B"/><path d="M116.867 107.412c-.288-.278-.761-.586-1.187-.566a.925.925 0 0 0-.352.086l-.006-.005c2.428-1.227 4.855-2.455 7.276-3.682.231-.117.525-.086.796.01.052.02.11.04.156.06.703.319 1.435 1.304 1.418 2.147v.147l-.04 2.025-.029 1.657-7.276 3.677.075-3.834c.005-.601-.364-1.278-.831-1.722Z" fill="#1877F2"/><path d="M115.68 106.846c.42-.015.893.293 1.187.566.467.444.842 1.121.825 1.733l-.075 3.833-.323-.171.029-1.516.034-1.833.012-.707a1.485 1.485 0 0 0-.156-.511c-.213-.424-.628-.873-1.113-1.03-.334-.106-.49-.015-.576.015h-.006l-.594.303a.796.796 0 0 1 .219-.475.833.833 0 0 1 .537-.207Z" fill="#1A5DB4"/><path d="M111.419 64.936v7.375c-.704.353-1.407.712-2.105 1.066v-4.47c.162-1.051.318-2.102.479-3.148.542-.272 1.084-.55 1.626-.823ZM109.314 68.906v4.47c-.248.127-.49.248-.738.374.248-1.616.49-3.232.738-4.844Z" fill="#D2448D"/><path d="M96.85 93.405v1.702l-7.277 3.682V94.9c.675-.369 1.084-1.066 1.073-1.975v-.005c0-.652-.006-1.308-.006-1.96l3.84-1.94c.23-.116.53-.086.795.01a.757.757 0 0 1 .15.061c.698.313 1.424 1.283 1.424 2.127v2.187Z" fill="#1877F2"/><path d="m105.163 84.58.502-3.298c-1.77.894-3.54 1.788-5.304 2.682.789.4 1.81.914 2.646 1.339.536.272 1.309.49 1.753.11.242-.206.363-.54.403-.833Zm-8.32-.404 9.076-4.591.207-1.349c.64-.323 1.274-.647 1.914-.97l-.207 1.349c-.087.566-.173 1.126-.254 1.692-.225 1.49-.455 2.98-.68 4.47-.306 2.112-2.462 3.036-4.774 1.85l-3.523-1.784c-2.658 1.344-5.31 2.687-7.968 4.03 0-.59-.006-1.181-.006-1.772 2.001-1.015 4.002-2.026 6.002-3.036l.214.111Z" fill="#E1DFEA"/><path d="M87.97 100.037a2.025 2.025 0 0 1-.743-.652c-.583-.833-.52-2.055-.26-3 .761-.384 1.522-.768 2.283-1.157v1.9c-.663 1.985-.196 3.46.9 4.015-.733-.368-1.459-.737-2.18-1.106Z" fill="#3F4F5D"/><path d="M89.25 95.041c.116-.04.22-.09.323-.141v3.89l-.322-.167v-3.581Z" fill="#1A5DB4"/><path d="m89.25 98.628.323.167 7.276-3.683V93.41c.185.41.254.859.254 1.298 0 2.172-1.666 4.819-3.811 6.041-1.245.713-2.358.793-3.142.389-1.09-.55-1.557-2.03-.9-4.015v1.505Z" fill="#1A293B"/><path d="m87.215 92.693 1.678-.849V92.965c0 .096-.011.212-.046.324-.254-.268-.628-.556-1.015-.642-.207-.04-.438-.04-.617.046Z" fill="#1877F2"/><path d="M87.376 93.02c.145-.085.33-.095.514-.055.328.076.634.308.847.546-.011.02-.029.035-.046.05-.058.05-.115.081-.277.091-.392.026-.905-.171-1.245-.343-.063-.03-.121-.06-.179-.091.133-.07.26-.136.386-.197ZM87.388 124.47c.017-.844-.715-1.829-1.413-2.147a.872.872 0 0 0-.161-.06c9.703-4.91 19.412-9.82 29.116-14.73l.594-.303h.005c.087-.025.243-.116.577-.015.484.157.899.606 1.113 1.03.104.213.121.303.155.511l-.011.707c-.784.394-1.563.793-2.347 1.187-9.207 4.657-18.42 9.314-27.628 13.977v-.157Z" fill="#E1DFEA"/><path d="M88.743 93.511c-.213-.237-.519-.47-.847-.546-.19-.04-.37-.03-.514.056-.126.066-.253.131-.386.197-.046-.025-.098-.05-.144-.076a.765.765 0 0 1 .358-.44c.005 0 .005-.004.011-.004.179-.086.415-.086.617-.04.386.085.767.373 1.015.64a.59.59 0 0 1-.11.213Z" fill="#1A5DB4"/><path d="M80.452 134.436c-.726-.363-1.453-.732-2.179-1.101-.894-.449-1.193-1.414-1.193-2.308 0-.702.178-1.425.444-2.092a7.115 7.115 0 0 0 2.254-.505l-.029 1.485c-.294.687-.496 1.48-.496 2.213.006 1.197.49 1.95 1.2 2.308Z" fill="#3F4F5D"/><path d="M87.336 127.248c.508 2.354-1.556 5.824-4.214 7.037-.479.217-1.01.384-1.551.389a2.423 2.423 0 0 1-1.119-.243c-.709-.353-1.193-1.111-1.193-2.308 0-.728.196-1.526.496-2.213l-.04 1.905.322.171 7.276-3.682.023-1.056Z" fill="#1A293B"/><path d="M79.778 128.43c-.779.308-1.54.47-2.255.505-2.825.132-4.958-1.783-4.935-4.864v-.187c-.017-3.046 2.035-6.556 4.676-8.597 12.5-9.714 24.999-19.422 37.499-29.13 2.208-1.703 3.638-4.522 3.626-6.547v-2.748c.433.288 2.272 1.116 2.802 1.217.11.02.214.04.318.05v1.476c.017 2.849-1.84 6.405-4.676 8.597-12.5 9.714-25 19.422-37.5 29.136-2.161 1.667-3.637 4.47-3.626 6.546v.192c-.006.798.242 1.894 1.16 2.091.19.041.391.046.593.026.236-.021.473-.071.686-.137l.006-.005c.894.339 1.412.93 1.591 1.591.029.111.046.228.046.344l-.011.444Z" fill="#E1DFEA"/><path d="M77.466 126.193a.75.75 0 0 1 .398-.309c.224-.07.484-.02.709.066.398.152.686.419.934.722.352.44.611.96.6 1.48l-.076 3.834-.322-.171.04-1.905.029-1.485.006-.444c0-.116-.012-.233-.047-.344-.172-.667-.697-1.252-1.59-1.591l-.007.005a3.104 3.104 0 0 1-.674.142Z" fill="#1A5DB4"/><path d="M77.863 125.884c-.04.016-.08.031-.12.051 2.427-1.228 4.854-2.455 7.275-3.682.23-.117.525-.086.796.005l.161.06c.704.318 1.43 1.303 1.413 2.147v.152l-.052 2.626-.023 1.056-7.276 3.682.075-3.834c.006-.52-.248-1.04-.6-1.48-.248-.303-.536-.57-.934-.722-.225-.081-.484-.131-.715-.061Z" fill="#1877F2"/><path d="M69.469 55.606a.374.374 0 0 0 .098-.308v-.015c-.03-.237-.064-.475-.093-.712.744-.38 16.513-7.729 17.257-8.107v2.106l-14.04 6.85c-.893-.01-2.778.353-3.66.459l-.018-.096c.19-.005.352-.06.456-.177Z" fill="#E1DFEA"/><path d="M121.739 42.655c.79-.04 1.551.151 2.231.495l4.739 2.4a5.156 5.156 0 0 1 1.546 1.196c.501.566.87 1.223 1.112 1.91a6.24 6.24 0 0 1-.04 4.172l-3.413 9.355-.018.05a5.624 5.624 0 0 1-1.026 1.738c-.749.849-1.787 1.43-3.009 1.485h-.006c-.346.015-.692.036-1.032.05a4.15 4.15 0 0 0 1.366-.323c1.055-.454 2.076-1.424 2.635-2.95l3.413-9.354a6.247 6.247 0 0 0 .041-4.173c-.444-1.268-1.338-2.44-2.658-3.106l-4.74-2.4a4.486 4.486 0 0 0-2.185-.5c.346-.01.692-.025 1.044-.045Z" fill="#AA226D"/><path d="m114.019 55.763 3.413-9.355c.242-.667.64-1.319 1.211-1.814a3.362 3.362 0 0 1 3.234-.702c.219.066.438.152.651.258l4.74 2.4c1.424.717 2.237 2.131 2.398 3.576a5.134 5.134 0 0 1-.277 2.323l-3.413 9.355c-.242.667-.64 1.313-1.21 1.813a3.683 3.683 0 0 1-.75.506c-.963.48-2.087.47-3.136-.066l-4.74-2.4c-1.424-.717-2.237-2.136-2.398-3.576a5.137 5.137 0 0 1 .277-2.318Zm13.035-6.547c.11-.293.133-.565.075-.818a1.224 1.224 0 0 0-.392-.657l-.207.415c.253.272.334.56.213.894a.69.69 0 0 1-.386.43c-.179.075-.398.06-.646-.051.231-.627.456-1.253.686-1.88-.046-.025-.075-.04-.098-.055-.369-.187-.692-.222-.974-.111-.283.11-.485.333-.606.672a1.383 1.383 0 0 0 0 1.005c.127.323.381.58.756.768.363.181.686.217.963.1.276-.1.484-.343.616-.712Zm-.939 2.582c.121-.339.155-.753-.023-1.066a.716.716 0 0 0-.312-.303.518.518 0 0 0-.357-.06.575.575 0 0 0-.3.18c-.208.223-.542.764-.64.875-.086.096-.19.156-.311.096-.075-.04-.127-.116-.156-.228-.029-.11-.006-.267.069-.464.058-.167.139-.278.237-.339a.388.388 0 0 1 .328-.03l.104-.445a.736.736 0 0 0-.398-.025c-.432.106-.767.935-.669 1.43a.762.762 0 0 0 .381.535c.213.106.45.086.646-.111.242-.242.559-.818.703-.93a.224.224 0 0 1 .248-.025c.092.05.161.137.196.268s.017.293-.052.49-.167.323-.288.394a.51.51 0 0 1-.415.025c-.035.152-.064.303-.098.45.599.167.911-.187 1.107-.717Zm-.934 2.55a1.42 1.42 0 0 0 .075-.818 1.236 1.236 0 0 0-.392-.657c-.07.137-.139.278-.208.415.254.273.334.56.213.894a.69.69 0 0 1-.386.43c-.179.075-.398.06-.646-.051.231-.627.456-1.253.686-1.88-.046-.025-.075-.04-.098-.055-.369-.187-.692-.222-.974-.111-.283.111-.484.333-.605.672a1.373 1.373 0 0 0 0 1.005c.126.323.38.58.755.768.363.181.68.217.963.1.276-.105.484-.348.617-.712Zm-.981 2.698c.11-.293.133-.566.075-.819a1.224 1.224 0 0 0-.392-.656l-.207.414c.254.273.334.56.213.894a.69.69 0 0 1-.386.43c-.179.075-.398.06-.646-.051.231-.626.456-1.253.686-1.88-.046-.024-.075-.04-.098-.055-.369-.187-.692-.222-.974-.11-.283.11-.484.333-.606.671a1.383 1.383 0 0 0 0 1.005c.127.323.381.581.756.768.363.182.68.217.963.106.271-.106.478-.348.616-.717Zm-.83 2.111c.052-.141.104-.283.156-.43-.473-.236-.94-.474-1.413-.711-.219-.111-.397-.167-.53-.162a.56.56 0 0 0-.375.157 1.214 1.214 0 0 0-.248 1.344c-.369-.188-.738-.375-1.101-.556-.052.141-.104.282-.156.429 1.027.52 2.053 1.035 3.079 1.556.052-.142.104-.283.156-.43-.41-.207-.813-.409-1.217-.616a1.215 1.215 0 0 1-.386-.278c-.173-.202-.196-.515-.104-.757.064-.172.15-.278.271-.329.121-.05.277-.025.461.071.467.237.934.475 1.407.712Zm-.34-11.249.156-.424c-.508-.258-1.021-.515-1.528-.773-.254-.126-.467-.157-.64-.086-.173.07-.3.233-.392.485-.115.318-.081.647.104.975a.522.522 0 0 0-.381.106.91.91 0 0 0-.271.41c-.063.166-.081.333-.063.5.017.166.069.312.15.449-.104-.05-.208-.106-.312-.157-.046.127-.092.253-.138.384.744.374 1.487.753 2.231 1.127.052-.142.104-.283.156-.43-.386-.197-.773-.389-1.159-.586-.311-.156-.559-.333-.605-.651a.734.734 0 0 1 .04-.374c.058-.157.138-.253.248-.278.109-.025.248 0 .415.086.484.242.963.49 1.447.732.052-.141.104-.283.156-.43-.433-.216-.865-.434-1.297-.656-.231-.116-.375-.257-.439-.43a.74.74 0 0 1 .006-.52.507.507 0 0 1 .156-.227.317.317 0 0 1 .213-.07c.075.005.19.045.34.12.473.243.94.48 1.407.718Zm-.721 14.31c.196-.53.064-1.096-.438-1.46-.069.132-.132.263-.202.395.179.126.294.267.341.424a.72.72 0 0 1-.018.49c-.075.207-.207.343-.386.404-.184.06-.427.015-.726-.136-.294-.152-.485-.324-.577-.53a.818.818 0 0 1-.012-.627.557.557 0 0 1 .248-.308.59.59 0 0 1 .416-.04c.028-.147.063-.299.092-.445-.548-.147-.9.172-1.073.646-.08.218-.109.44-.086.672.023.232.109.434.254.616.149.182.34.334.582.455.375.187.698.227.974.121.289-.106.49-.333.611-.677Zm-.72-10.35.161-.444a.775.775 0 0 1-.305-.03c-.214-.066-.986-.465-1.182-.561a2.36 2.36 0 0 0-.358-.157.562.562 0 0 0-.305.005.632.632 0 0 0-.277.212 1.712 1.712 0 0 0-.26.49c-.121.339-.201.773-.04 1.102.063.136.173.262.317.378.069-.13.133-.262.202-.394-.144-.126-.225-.252-.254-.378-.029-.127-.005-.293.069-.49.081-.218.179-.354.306-.42.092-.05.213-.035.369.046.012.005.046.025.098.05-.006.187-.058.465-.15.829-.069.273-.121.505-.069.778.04.222.173.45.404.565a.573.573 0 0 0 .542.01c.172-.085.311-.272.409-.545.138-.374.121-.707.011-1.091.116.03.214.05.312.045Zm-1.182 3.395a1.42 1.42 0 0 0 .075-.819 1.275 1.275 0 0 0-.392-.656c-.07.136-.139.278-.208.414.254.273.335.56.213.894a.69.69 0 0 1-.386.43c-.179.075-.398.06-.646-.051.231-.627.456-1.253.687-1.88a1.714 1.714 0 0 1-.099-.055c-.368-.187-.691-.222-.974-.11-.282.11-.484.333-.605.671a1.373 1.373 0 0 0 0 1.005c.127.323.38.581.755.768.363.182.68.217.963.101.277-.101.484-.343.617-.712Zm-1.026 2.657.155-.43c-.386-.197-.778-.394-1.164-.59-.162-.081-.3-.177-.416-.294-.236-.237-.213-.59.064-.823-.098-.106-.196-.217-.294-.323-.219.172-.358.419-.306.687.023.106.092.252.214.43-.116-.056-.225-.117-.341-.173l-.138.384c.738.38 1.482.753 2.226 1.132Zm-.467 1.434c.196-.53.063-1.096-.439-1.46-.069.132-.132.263-.201.395.178.126.294.267.34.424a.715.715 0 0 1-.018.49c-.075.207-.207.343-.386.404-.184.06-.427.015-.721-.136-.294-.152-.484-.324-.576-.53a.814.814 0 0 1-.012-.627.557.557 0 0 1 .248-.308.588.588 0 0 1 .415-.04c.029-.147.064-.299.093-.445-.548-.147-.9.171-1.073.646-.08.217-.109.44-.086.672.023.232.109.434.253.616.15.182.341.334.583.455.375.187.697.227.974.121.283-.106.484-.333.606-.677Z" fill="#FCF"/><path d="M120.684 42.705s.006 0 0 0a4.48 4.48 0 0 1 2.191.5l4.739 2.4c1.314.667 2.214 1.839 2.658 3.106a6.247 6.247 0 0 1-.041 4.173l-3.413 9.355c-.559 1.525-1.579 2.495-2.635 2.95a4.214 4.214 0 0 1-1.366.323c-.738.045-1.522-.111-2.283-.495l-4.739-2.4c-1.315-.666-2.214-1.838-2.658-3.106a6.24 6.24 0 0 1 .04-4.172l3.413-9.355c.559-1.526 1.58-2.496 2.635-2.95a4.2 4.2 0 0 1 1.459-.329Zm-6.942 15.382c.161 1.444.98 2.858 2.399 3.576l4.739 2.4c1.049.53 2.179.54 3.136.065a3.49 3.49 0 0 0 .75-.505c.571-.495.963-1.147 1.211-1.814l3.413-9.355c.271-.742.369-1.54.276-2.323-.161-1.445-.98-2.86-2.398-3.577l-4.739-2.399a3.718 3.718 0 0 0-.652-.258 3.35 3.35 0 0 0-3.234.703c-.571.495-.963 1.146-1.211 1.813l-3.413 9.355a5.135 5.135 0 0 0-.277 2.319Z" fill="#D2448D"/><path d="m132.993 52.965-1.314 3.596-.998 2.743-.098.262c-.432 1.177-1.182 1.935-1.983 2.33 0 0-.012.01-.017.01-.231.115-.462.221-.687.338.012-.026.012-.04.018-.056l1.326-3.617.997-2.742 1.096-2.99a6.21 6.21 0 0 0 .034-4.173 5.666 5.666 0 0 0-1.112-1.91l.617.309a4.32 4.32 0 0 1 1.695 1.555c.789 1.233.968 2.86.426 4.345Z" fill="#FF73B5"/><path d="M127.13 48.398a1.42 1.42 0 0 1-.075.818c-.133.37-.341.612-.623.723-.277.116-.6.08-.963-.101-.375-.192-.628-.445-.755-.768a1.373 1.373 0 0 1 0-1.005c.121-.339.323-.561.605-.672.283-.111.606-.076.975.111.023.01.057.03.098.056-.231.626-.456 1.252-.687 1.879.248.106.467.126.646.05a.687.687 0 0 0 .386-.43c.122-.333.041-.62-.213-.893.069-.142.139-.278.208-.414.207.176.34.394.398.646Zm-1.724.854c.173-.47.34-.94.513-1.405-.196-.075-.352-.09-.479-.05a.63.63 0 0 0-.409.42.841.841 0 0 0-.006.58.838.838 0 0 0 .381.455ZM126.092 50.732c.184.313.15.727.023 1.066-.19.53-.502.889-1.107.712.029-.152.063-.303.098-.45.156.05.294.046.415-.025.121-.066.213-.197.288-.394.069-.197.093-.359.052-.49-.034-.131-.104-.222-.196-.268-.086-.045-.167-.035-.248.026-.15.11-.461.692-.703.929a.53.53 0 0 1-.646.111.748.748 0 0 1-.38-.535c-.098-.495.236-1.324.668-1.43a.79.79 0 0 1 .398.026l-.104.444a.371.371 0 0 0-.328.03c-.098.06-.179.172-.237.339-.069.197-.092.348-.069.465.029.11.081.186.156.227.121.06.225-.005.311-.096.098-.106.433-.647.64-.874a.58.58 0 0 1 .3-.182.517.517 0 0 1 .357.06.796.796 0 0 1 .312.309Z" fill="#AA226D"/><path d="M125.919 47.847c-.173.47-.34.94-.513 1.405a.838.838 0 0 1-.387-.46.841.841 0 0 1 .006-.58.655.655 0 0 1 .409-.42c.133-.035.294-.02.485.055Z" fill="#FCF"/><path d="M125.256 53.53c.058.253.035.526-.075.819-.133.368-.34.61-.623.722-.276.116-.599.08-.962-.101-.375-.192-.629-.445-.756-.768a1.373 1.373 0 0 1 0-1.005c.121-.339.323-.56.606-.672.282-.111.605-.076.974.111.023.01.058.03.098.056-.231.626-.455 1.252-.686 1.879.248.106.467.126.646.05a.693.693 0 0 0 .386-.43c.121-.333.04-.62-.213-.893l.207-.414c.214.176.34.394.398.646Zm-1.718.854c.173-.47.34-.94.513-1.404-.196-.076-.352-.091-.479-.05a.63.63 0 0 0-.409.418.841.841 0 0 0-.006.581.817.817 0 0 0 .381.455ZM124.27 56.233c.058.252.035.525-.075.818-.132.369-.34.611-.622.722-.277.116-.6.081-.963-.106-.375-.192-.629-.444-.756-.768a1.383 1.383 0 0 1 0-1.005c.121-.338.323-.56.606-.672.282-.11.605-.075.974.111.023.01.058.03.098.056-.23.626-.455 1.253-.686 1.88.248.105.467.125.646.05a.69.69 0 0 0 .386-.43c.121-.333.04-.621-.213-.894l.207-.414c.214.182.346.4.398.652Zm-1.718.853c.173-.47.34-.94.513-1.404-.196-.076-.352-.09-.478-.05a.631.631 0 0 0-.41.419.845.845 0 0 0 .375 1.035Z" fill="#AA226D"/><path d="M124.051 52.98c-.173.47-.34.94-.513 1.404a.84.84 0 0 1-.386-.46.835.835 0 0 1 .005-.58.657.657 0 0 1 .41-.42c.127-.04.288-.02.484.056Z" fill="#FCF"/><path d="M123.526 58.728c-.052.141-.104.283-.156.43-.472-.238-.939-.476-1.412-.713-.19-.096-.346-.116-.461-.07-.121.05-.208.156-.271.328-.087.242-.064.555.103.757.081.096.214.192.387.278.409.207.813.41 1.216.617-.052.14-.104.282-.155.429-1.027-.52-2.053-1.036-3.079-1.556.052-.141.104-.283.155-.43.369.188.738.374 1.102.556a1.16 1.16 0 0 1-.029-.909c.069-.187.161-.333.277-.434a.543.543 0 0 1 .374-.157c.139 0 .312.056.531.162.478.237.945.475 1.418.712ZM123.186 47.484l-.156.424-1.401-.712a1.014 1.014 0 0 0-.34-.121.285.285 0 0 0-.213.07.45.45 0 0 0-.156.228.769.769 0 0 0-.006.52c.064.172.208.313.438.43.433.217.865.434 1.298.656a39.95 39.95 0 0 0-.156.43c-.484-.243-.963-.49-1.447-.733-.167-.086-.306-.116-.415-.086-.11.025-.191.121-.248.278a.758.758 0 0 0-.041.374c.046.318.294.49.606.651.386.197.772.39 1.159.586-.052.142-.104.283-.156.43-.744-.374-1.488-.753-2.231-1.127.046-.126.092-.252.138-.384.104.05.208.106.311.157a1.09 1.09 0 0 1-.149-.45 1.137 1.137 0 0 1 .063-.5c.069-.187.156-.323.271-.409a.506.506 0 0 1 .38-.106c-.19-.328-.224-.657-.103-.975.092-.247.224-.409.392-.485.173-.07.386-.045.64.086.501.253 1.014.51 1.522.768Z" fill="#AA226D"/><path d="M123.065 55.677c-.173.47-.34.94-.513 1.404a.855.855 0 0 1-.381-1.04.656.656 0 0 1 .409-.42c.127-.035.289-.02.485.056Z" fill="#FCF"/><path d="M121.877 60.759c.496.363.629.934.439 1.46-.127.343-.329.57-.6.681-.277.106-.6.071-.974-.12a1.754 1.754 0 0 1-.583-.456 1.123 1.123 0 0 1-.253-.616 1.475 1.475 0 0 1 .086-.672c.173-.474.525-.793 1.073-.646-.029.146-.064.298-.093.444-.167-.035-.3-.025-.415.04a.565.565 0 0 0-.248.309.813.813 0 0 0 .012.626c.086.202.276.38.576.53.3.152.542.198.727.137.184-.06.311-.197.386-.404a.72.72 0 0 0 .017-.49.852.852 0 0 0-.34-.424c.052-.137.121-.268.19-.4ZM121.75 51.419l-.161.444a.78.78 0 0 1-.306-.055c.11.384.121.717-.011 1.09-.098.279-.237.46-.41.546a.573.573 0 0 1-.542-.01.784.784 0 0 1-.403-.566c-.052-.272 0-.505.069-.777a4.79 4.79 0 0 0 .15-.829c-.052-.025-.087-.045-.098-.05-.156-.076-.277-.091-.369-.046-.127.066-.225.207-.306.42-.075.202-.098.363-.069.49.029.126.11.252.254.378-.069.132-.133.263-.202.394a1.22 1.22 0 0 1-.317-.379c-.156-.328-.081-.767.04-1.1.081-.218.167-.38.26-.49a.635.635 0 0 1 .276-.213.567.567 0 0 1 .306-.005c.069.015.19.07.357.157.191.1.969.495 1.182.56a.507.507 0 0 0 .3.04Zm-.738 1.232c.11-.293.104-.646-.092-.899-.115-.151-.323-.242-.49-.328 0 .43-.179.924-.173 1.182.006.192.104.323.219.379.098.05.202.05.3 0 .092-.056.173-.167.236-.334Z" fill="#AA226D"/><path d="M120.914 51.752c.196.258.202.606.092.9-.057.166-.138.272-.236.328a.316.316 0 0 1-.3 0 .425.425 0 0 1-.219-.38c-.006-.252.173-.747.173-1.181.167.09.375.182.49.333Z" fill="#FCF"/><path d="M120.482 54.45c.058.252.035.525-.075.818-.132.368-.34.611-.623.722-.276.116-.599.081-.962-.1-.375-.193-.629-.445-.756-.769a1.373 1.373 0 0 1 0-1.005c.121-.338.323-.56.606-.672.282-.11.605-.076.974.111.023.01.058.03.098.056-.231.626-.455 1.253-.686 1.88.248.105.467.125.646.05a.693.693 0 0 0 .386-.43c.121-.333.04-.621-.213-.894l.207-.414c.208.177.34.394.398.647Zm-1.718.853c.173-.47.34-.94.513-1.404-.196-.076-.352-.091-.478-.05a.631.631 0 0 0-.41.419.841.841 0 0 0-.006.58.81.81 0 0 0 .381.455ZM119.536 57.49l-.155.43c-.744-.374-1.488-.753-2.232-1.127.047-.126.093-.257.139-.384.115.056.225.117.34.172-.121-.177-.196-.323-.213-.43-.052-.267.086-.514.305-.686.098.106.196.217.294.323-.277.233-.3.591-.063.824.115.116.254.212.415.292.392.192.784.39 1.17.586Z" fill="#AA226D"/><path d="M119.271 53.894c-.173.47-.34.94-.513 1.404a.84.84 0 0 1-.386-.46.835.835 0 0 1 .006-.58.653.653 0 0 1 .409-.42c.133-.035.294-.02.484.056Z" fill="#FCF"/><path d="M118.481 57.89c.496.363.629.929.439 1.46-.127.343-.329.57-.6.681-.277.111-.6.07-.974-.121a1.752 1.752 0 0 1-.583-.455 1.123 1.123 0 0 1-.253-.616 1.484 1.484 0 0 1 .086-.672c.173-.475.525-.793 1.072-.646-.028.146-.063.298-.092.444-.161-.035-.3-.025-.415.04a.565.565 0 0 0-.248.309.809.809 0 0 0 .012.626c.086.202.277.379.576.53.3.152.542.197.721.137.184-.06.311-.197.386-.404a.72.72 0 0 0 .018-.49.855.855 0 0 0-.341-.425c.064-.13.127-.267.196-.399Z" fill="#AA226D"/><path d="M69.03 55.884c-1.383.157-2.715.455-3.925.904.899-.46 1.81-.914 2.71-1.374 0 .02.005.036.005.05 0 .021.017.046.058.067.052.03.127.06.184.08.26.096.64.197.951.177l.018.096Z" fill="#E1DFEA"/><path d="m67.814 55.41-1.35-10.235c.554-.277 1.102-.56 1.656-.833l1.349 10.234c.029.237.063.475.092.712v.015a.416.416 0 0 1-.098.308c-.104.117-.265.172-.45.182-.311.02-.692-.08-.951-.177a1.17 1.17 0 0 1-.185-.08c-.04-.02-.057-.046-.057-.066 0-.025 0-.04-.006-.06ZM59.264 110.22c0-.838-.72-1.808-1.424-2.126a4.068 4.068 0 0 0-.15-.061v-.005c9.184-4.647 18.369-9.289 27.548-13.936.351.177.703.353 1.055.535 1.141.586 2.18.677 2.952.41v.186c-.761.384-1.522.768-2.284 1.157-9.23 4.672-18.466 9.34-27.697 14.012v-.172ZM54.761 74.604c.26.934 1.026 2.152 2.128 3.127l.207 1.338c-.795-.404-1.591-.808-2.387-1.207-.72-.833-1.366-1.884-1.643-2.884-.588-2.066-1.182-4.132-1.764-6.198.703.353 1.407.712 2.11 1.066.444 1.586.9 3.172 1.35 4.758Z" fill="#E1DFEA"/><path d="M50.212 119.141c-.882-.439-1.193-1.399-1.193-2.308 0-.516.092-1.041.248-1.546.057-.197.126-.389.207-.576a6.96 6.96 0 0 0 2.19-.505v1.556c-.287.687-.472 1.449-.472 2.172 0 1.197.49 1.955 1.194 2.308v.005c-.721-.374-1.448-.737-2.174-1.106Z" fill="#3F4F5D"/><path d="M59.264 113.044c.519 2.374-1.574 5.87-4.243 7.062-.479.217-1.01.374-1.546.374a2.43 2.43 0 0 1-1.09-.243c-.708-.354-1.193-1.111-1.193-2.308 0-.723.19-1.485.473-2.172v1.879l.323.161 7.276-3.677v-1.076Z" fill="#1A293B"/><path d="M68.38 89.682C63.5 93.47 56.092 99.32 51.214 103.108c-2.162 1.667-3.638 4.471-3.626 6.547v.192c-.006.808.248 1.894 1.159 2.091.19.04.392.045.6.025.241-.02.483-.076.697-.141v.005c.565.217.991.53 1.28.949.19.278.34.632.34.96v.465c-.761.298-1.493.465-2.191.505-.075.005-.144.005-.22.005-2.75.056-4.808-1.839-4.785-4.869v-.187c-.017-3.092 2.082-6.592 4.676-8.597l11.312-8.79c.86.329 1.96.253 3.09-.323.006 0 .006 0 .012-.005.392-.197 3.425-4.258 3.817-4.46l.767.419c.363.151-.139 1.667.236 1.783ZM50.933 64.75a2.905 2.905 0 0 1-.721-.183c-.046-.02-.133-.06-.144-.106l-.018-.066c-.905-3.182-1.816-6.36-2.72-9.541.524-.268 1.048-.536 1.579-.798.905 3.177 1.81 6.36 2.721 9.541l.173.601c.08.208-.029.48-.398.551-.155.03-.322.02-.472 0Z" fill="#E1DFEA"/><path d="M50.212 64.572c.161.066.455.147.72.182.15.02.318.025.468 0 .363-.07.478-.343.398-.55-.058-.203-.116-.4-.173-.602 3.666-1.853 7.328-3.707 10.995-5.561-1.378.97 22.86-12.234 22.906-11.047 0 .318.404 1.793.404 2.106-2.607 1.319-30.558 15.856-33.158 17.17a968.392 968.392 0 0 1-3.212-1.627c.168-.08.33-.167.49-.248l.018.066c.011.05.098.086.144.111Z" fill="#E1DFEA"/><path d="M50.449 111.726c.392.146.686.409.934.717.351.429.61.945.61 1.46v3.899l-.322-.161v-3.9c0-.328-.15-.682-.34-.96-.289-.414-.715-.732-1.28-.949v-.005c-.22.065-.456.121-.698.141a.672.672 0 0 1 .271-.252.57.57 0 0 1 .121-.051c.22-.076.479-.025.704.061Z" fill="#1A5DB4"/><path d="M49.618 111.711c2.427-1.228 4.855-2.455 7.276-3.683.23-.116.53-.086.796.01a.765.765 0 0 1 .15.061c.697.313 1.424 1.283 1.424 2.127v3.899l-7.276 3.677v-3.899c0-.515-.26-1.031-.611-1.46-.248-.303-.537-.566-.934-.717-.225-.086-.479-.132-.704-.061a.544.544 0 0 0-.12.046Z" fill="#1877F2"/><path d="M49.555 67.896c-.635.323-1.269.641-1.903.965-.104-.697-.213-1.394-.323-2.087.744.37 1.488.748 2.226 1.122Z" fill="#E1DFEA"/><path d="M49.474 114.706a9.913 9.913 0 0 0-.208.576l-.011-.571c.075 0 .144 0 .219-.005Z" fill="#9B346C"/><path d="M48.206 75.357c-.392.217-.946.389-1.228.07a.505.505 0 0 1-.116-.232c-.006-.02-.006-.04-.011-.06l-.208-1.36c-.207-1.363-.42-2.722-.628-4.086-.156-1.005-.306-2.01-.462-3.015-.046-.293-.092-.581-.132-.874l1.92.97c.104.697.213 1.394.323 2.086.3 1.96.6 3.925.905 5.89l.034.237c0 .07-.063.146-.15.217-.086.06-.172.111-.247.157Z" fill="#E1DFEA"/><path d="m104.096 42.796-19.332 9.78c-1.199-1.531-2.398-3.067-3.597-4.597l-1.09-1.394v-9.32l22.716-11.492 1.303 17.023Zm-3.793-1.854c-.127-3.318-.248-6.632-.375-9.95-5.57 2.818-11.14 5.631-16.709 8.45.127 3.319.248 6.633.375 9.951 5.57-2.813 11.14-5.632 16.709-8.45Z" fill="#7C6C5F"/><path d="M102.793 25.774c-7.57 3.828-15.146 7.662-22.716 11.491v-4.561l22.382-11.32.334 4.39Z" fill="#958272"/><path d="M99.928 30.997c.127 3.313.248 6.632.375 9.95-5.57 2.819-11.139 5.633-16.709 8.451-.126-3.319-.247-6.632-.374-9.95 5.57-2.82 11.139-5.633 16.708-8.451Z" fill="#F7B23B"/><path d="m97.662 18.954 4.791 2.425-22.376 11.32-4.797-2.425 22.382-11.32Z" fill="#AF9785"/><path d="M80.072 37.26v9.325c-.502-.652-1.015-1.299-1.528-1.95-.012-.025-.03-.04-.035-.056-.778-.995-2.295-1.934-4.122-2.651l.063-.799.254-3.379.236-3.091c.98.495 1.96.99 2.94 1.49.739.374 1.46.742 2.192 1.111Z" fill="#968272"/><path d="m74.946 34.669.334-4.395 4.797 2.425v4.561c-1.712-.864-3.425-1.727-5.131-2.591Z" fill="#BBA18E"/><path d="M96.619 51.52c1.32-1.975 2.617-7.966 2.168-10.684.034.02.063.04.097.061.98.576 2.462.707 3.65.51.542-.09 1.142-.273 1.603-.565-.236 1.414.006 7.49.548 8.395.859 1.444 2.686 3.02 3.47 6.723.894 4.228.387 10.804-.651 13.714-.219.611-.502 1.207-.963 1.702-.819.884-2.122 1.37-3.39 1.581-1.505.253-3.229.167-4.67-.318-1.009-.338-1.868-.853-2.433-1.672-.496-.717-.796-1.697-.992-2.52a24.368 24.368 0 0 1-.49-2.85 37.814 37.814 0 0 1-.242-5.662c.063-1.783.26-3.697.824-5.4.421-1.288.952-2.232 1.47-3.015Zm11.398 11.89a67.446 67.446 0 0 0-.098-4.54c-.899 1.146-2.715 1.778-4.266 2.04-1.961.329-4.094.197-5.83-.343.087 1.47.116 3.04.099 4.54 1.752.51 3.863.617 5.794.294 1.551-.263 3.344-.884 4.301-1.99Z" fill="url(#a)"/><path d="M107.919 58.864c.075 1.258.115 2.85.098 4.542-.951 1.106-2.744 1.727-4.301 1.985-1.931.323-4.041.217-5.794-.293.017-1.5-.012-3.077-.098-4.541 1.735.54 3.874.671 5.829.343 1.545-.258 3.367-.889 4.266-2.036Z" fill="#F6BA28"/><path d="M98.055 39.75v-2.455c0 .314.167.596.415.824.357.333.87.555 1.366.692a6.466 6.466 0 0 0 2.704.121c.554-.09 1.13-.273 1.586-.56.415-.263.749-.637.749-1.077v2.47c0 .288-.138.551-.363.773-.11.112-.231.207-.369.293-.461.298-1.061.475-1.603.566-1.188.202-2.67.066-3.65-.51l-.097-.06c-.421-.258-.75-.632-.739-1.077Z" fill="#842A4B"/><path d="M102.782 35.593c1.43.414 1.753 1.37.749 2-.98.622-2.819.677-3.943.112-1.16-.586-.986-1.551.317-2.031.847-.318 1.977-.343 2.877-.08Z" fill="#842A4B"/><path d="M103.531 37.593c1.004-.63.681-1.586-.749-2-.9-.263-2.024-.232-2.877.081-1.297.48-1.476 1.445-.317 2.03 1.118.566 2.963.506 3.943-.11Zm1.338-.343v.05c0 .44-.329.814-.75 1.077-.455.287-1.032.464-1.585.56-.9.152-1.88.106-2.704-.121-.496-.137-1.01-.359-1.367-.692-.247-.227-.415-.51-.415-.824v-.025c.012-.419.231-.808.577-1.111 1.193-1.05 3.828-1.152 5.287-.273.548.319.934.793.957 1.359Z" fill="#963B60"/><path d="m93.597 62.587-9.023-.53 4.86-3.041 9.277-1.329c.006-.005 11.814 3.854-5.114 4.9Z" fill="#C1BCCE"/><path d="M92.652 60.572c-.364-.642-1.395-.94-2.428-.607a2.458 2.458 0 0 0-1.164.768c-.196.248-.317.53-.317.834l-4.169.485V56.46l5.962-.697-.07.045c-.79.55-.8 1.44 0 1.809.756.348 1.863.055 2.33-.606.403-.566.196-1.198-.461-1.46l2.346-.273c0 .172.035.338.11.495.092.202.248.389.45.535.466.339 1.112.445 1.712.374.415-.05.784-.242 1.055-.56.306-.364.432-.824.478-1.279.023-.222.04-.47.04-.697.116-.282.174-.56.18-.833v5.536c0 .329-.075.657-.22.98-.126.283-.467.485-.79.606-.236.086-.49.142-.743.172l-4.169.485a1.026 1.026 0 0 0-.132-.52Z" fill="#E6B231"/><path d="M94.63 55.056c-.018-.263.138-.5.391-.692.375-.283.923-.44 1.413-.495.698-.081 1.499 0 2.099.278 0 .227-.018.474-.04.697-.053.454-.174.914-.48 1.277-.27.319-.64.51-1.055.561-.6.07-1.245-.03-1.712-.374a1.336 1.336 0 0 1-.45-.535 1.225 1.225 0 0 1-.11-.495.608.608 0 0 1-.057-.222ZM94.866 50.5a.677.677 0 0 1 .173.434c0 .207-.116.414-.346.596-.819.646-2.664.687-3.586.076-.784-.52-.52-1.288.64-1.632a4.125 4.125 0 0 1 2.046-.04c.398.096.83.273 1.073.565Z" fill="#D5A02D"/><path d="M95.039 50.934a.687.687 0 0 0-.173-.435c-.242-.288-.675-.47-1.073-.565a4.125 4.125 0 0 0-2.046.04c-1.16.339-1.424 1.111-.64 1.632.922.61 2.767.57 3.586-.076.236-.182.346-.39.346-.596Zm-7.541 1.54v-.03c0-.212-.11-.424-.34-.616-.358-.298-.906-.465-1.402-.53l.819-1.546c.236-.445.945-.672 1.505-.743 2.075-.247 4.335-.11 6.307.465 1.251.364 2.56.965 3.42 1.839.587.6.922 1.283.904 2a2.301 2.301 0 0 1-.178.833c-.606-.277-1.407-.358-2.099-.277-.496.055-1.038.212-1.412.495-.248.192-.41.429-.393.692a.662.662 0 0 0 .058.227l-2.346.273c-.589-.091-1.286-.03-1.8.212l-5.96.697c-.364.045-.877-.025-1.12-.248-.086-.075-.138-.166-.138-.257a.3.3 0 0 1 .035-.137l1.182-2.232c.26.035.536.045.819.035.513-.025 1.037-.131 1.452-.343.439-.223.675-.516.686-.809Z" fill="#E8BA5D"/><path d="M92.67 60.602c.08.146.12.313.12.495-.086-.187-.265-.339-.46-.455-.543-.318-1.379-.409-2.03-.328-.433.05-.906.182-1.24.424.271-.348.698-.621 1.165-.767 1.032-.334 2.064-.036 2.427.606.006.005.011.015.017.025ZM92.34 55.56c.664.263.866.895.462 1.46-.473.662-1.574.955-2.33.607-.8-.369-.79-1.263 0-1.809l.07-.045c.513-.248 1.21-.308 1.799-.212ZM85.756 51.297c.496.066 1.044.233 1.401.53.23.193.34.405.34.617v.03c-.011.299-.248.591-.686.814-.415.212-.934.318-1.453.343a7.814 7.814 0 0 0 .398-2.334Z" fill="#D5A02D"/><path d="M83.323 61.552V55.96c0 .096.052.182.139.258.248.222.755.287 1.118.247v5.592c-.346.04-.796-.01-1.067-.202-.138-.101-.19-.207-.19-.303Z" fill="#E6B231"/><path d="M104.633 73.432c2.831 1.435 2.831 3.758 0 5.193-2.831 1.434-7.426 1.434-10.263 0-2.83-1.435-2.83-3.758 0-5.193 2.837-1.434 7.426-1.434 10.263 0Z" fill="#C1BCCE"/><path d="M103.751 57.763v17.871c0 .89-.669 1.773-2.007 2.45-.957.49-2.139.798-3.373.935-2.202.242-4.595-.071-6.307-.935-1.338-.677-2.006-1.56-2.006-2.45v-17.87h.017c0-.228.034-.46.121-.683l2.398-6.097 5.939-.156 2.623-.071 2.468 6.334c.006.01.011.015.011.02l.012.016h-.006c.081.212.104.424.104.636h.006Z" fill="#B4C4C9"/><path d="M101.15 50.757c.277.697-.115 1.45-1.176 1.985-1.689.859-4.433.859-6.128 0-.952-.48-1.373-1.126-1.246-1.758h-.006L92.577 49h.006c0 .384.19.758.576 1.096.185.162.416.319.692.455.306.157.635.278.992.374 1.424.394 3.183.353 4.532-.122.207-.07.415-.156.6-.252.276-.136.501-.293.685-.455.352-.303.542-.641.577-.985l-.087 1.647Z" fill="#B4C4C9"/><path d="M101.318 73.13c2.439 1.232 2.439 3.232 0 4.464-2.44 1.233-6.388 1.233-8.827 0-2.44-1.232-2.44-3.232 0-4.465 2.439-1.232 6.388-1.232 8.827 0Z" fill="#C1D1D6"/><path d="M92.588 50.984 92.57 49l.017 1.985Z" fill="#B4C4C9"/><path d="M101.225 51.358c-.029.384-.271.733-.57 1.005-.312.278-.692.475-1.084.642-.796.328-1.678.454-2.549.48-.87.005-1.753-.111-2.565-.4a4.6 4.6 0 0 1-1.125-.585c-.328-.253-.605-.576-.703-.945.144.359.438.647.778.864.335.222.72.389 1.119.515a7.806 7.806 0 0 0 2.49.339c.842-.006 1.695-.132 2.474-.415.386-.141.767-.318 1.078-.565.317-.243.571-.561.657-.935Z" fill="#CFDFE3"/><path d="M101.237 49c0 .04-.006.07-.006.11-.034.344-.225.682-.576.985-.185.162-.41.319-.686.455a4.378 4.378 0 0 1-.6.253c-1.35.474-3.108.515-4.532.12a4.872 4.872 0 0 1-.991-.373 3.336 3.336 0 0 1-.692-.455c-.387-.338-.577-.717-.577-1.096 0-.56.421-1.121 1.269-1.546 1.695-.858 4.433-.858 6.128 0 .836.43 1.263.985 1.263 1.546Z" fill="#C7D8DE"/><path d="M96.913 50.767a7.407 7.407 0 0 1-1.931-.247 4.373 4.373 0 0 1-.894-.334 2.619 2.619 0 0 1-.588-.389c-.288-.252-.433-.52-.433-.793 0-.424.364-.843 1.02-1.177.745-.379 1.748-.586 2.82-.586 1.073 0 2.076.207 2.82.586.657.334 1.02.753 1.02 1.177-.006.056-.006.086-.006.111-.023.212-.167.455-.432.682a2.812 2.812 0 0 1-.582.39 4.209 4.209 0 0 1-.542.227 7.099 7.099 0 0 1-2.272.353Z" fill="#B4C4C9"/><path d="M90.663 57.354v18.28h12.459l.018-18.37-12.477.09Z" fill="#C1D1D6"/><path d="M101.318 55.121c2.439 1.233 2.439 3.233 0 4.466-2.44 1.232-6.388 1.232-8.827 0-2.44-1.233-2.44-3.233 0-4.466 2.439-1.232 6.388-1.232 8.827 0Z" fill="#DCE4E6"/><path d="M90.23 58.536c.289.505.739.91 1.257 1.212a7.66 7.66 0 0 0 1.672.738c1.182.353 2.44.52 3.69.525a13.345 13.345 0 0 0 3.696-.49c.588-.182 1.17-.399 1.684-.712.524-.298.991-.687 1.303-1.177-.214.535-.664.985-1.159 1.349-.513.358-1.096.621-1.695.848-1.217.43-2.526.606-3.829.611a14 14 0 0 1-1.949-.161 10.22 10.22 0 0 1-1.873-.49c-.6-.233-1.176-.51-1.684-.874-.49-.374-.922-.834-1.112-1.379ZM91.649 76.665c-.542-.273-.986-.89-.986-1.364V61.006c0-.475.444-.636.986-.364.542.273.986.89.986 1.364v14.295c0 .475-.444.642-.986.364Z" fill="#CFDFE3"/><path d="M92.19 66.093c2.982.803 6.654.727 9.497-.248.57-.177.911-.025.934.414l-.006 1.708c-.023.374-.283.894-.94 1.151-2.842.975-6.515 1.051-9.496.248-.57-.177-.957-.606-.986-1.091l.006-1.708c.035-.525.536-.59.992-.474Z" fill="#F2E9DB"/><path d="M96.757 67.856h-.04c-.116.005-.197.06-.202.141v.879c.005.08.086.136.201.136h.04c.116-.005.197-.06.203-.146v-.88c-.012-.09-.11-.13-.202-.13Zm0-.42h-.04c-.19.01-.254.147-.156.233.057.045.132.05.155.05h.04c.185-.01.254-.151.156-.232a.223.223 0 0 0-.155-.05ZM97.916 67.396c-.127.015-.208.076-.213.167l-.006 1.263c.011.156.265.176.38.065.046-.04.046-.08.052-.1l.006-1.264c-.012-.116-.15-.136-.22-.131ZM99.058 67.27c-.122.02-.202.09-.208.176l-.006 1.263c.012.157.254.162.364.04a.16.16 0 0 0 .046-.1v-.061a.29.29 0 0 1 .023-.111l.017-.035s.029-.051.121-.071h.006c.069-.01.098.01.115.025l.012.015c.26.293.26.293.38.273.012 0 .017-.005.029-.005.161-.04.242-.172.173-.263-.398-.409-.398-.409-.294-.515.207-.202.207-.202.213-.237.018-.086-.052-.132-.138-.127-.012 0-.023.005-.035.005h-.005a.298.298 0 0 0-.15.081c-.375.374-.462.091-.467.086v-.313c0-.126-.133-.136-.196-.126ZM95.494 67.421c-.04 0-.086-.005-.126-.005-.15-.005-.254.046-.294.142-.093.272-.145.56-.283.823-.017.035-.11.04-.144-.015 0-.005-.006-.005-.006-.01-.277-.884-.277-.884-.282-.904-.018-.03-.081-.132-.277-.167a1.19 1.19 0 0 1-.133-.02c-.173-.02-.288.045-.294.166l-.006 1.203c.012.166.283.242.387.14a.095.095 0 0 0 .034-.08v-.727c.012-.066.121-.05.156-.005v.01c.22.621.22.621.27.666.14.122.393.117.48-.01l.017-.03.207-.53c.035-.06.139-.03.156.015v.02c-.006.743-.006.743.006.763.057.131.276.151.375.07.046-.035.046-.075.051-.095l.006-1.203c-.006-.13-.156-.202-.3-.217Z" fill="#69635D"/><path d="M103.751 57.763v17.872c0 .888-.669 1.772-2.007 2.45-.957.49-2.139.797-3.372.934 1.066-.318 1.13-1.202 1.13-1.202V58.193c0-1.794-.663-5.663-.975-7.37l2.687-1.071-.063 1 2.467 6.334c.006.01.012.015.012.02l.011.016h-.006c.081.212.104.424.104.636h.012v.005Z" fill="#C1BCCE"/><path d="M101.462 49c0 .04-.006.075-.006.115-.034.364-.236.723-.605 1.036a3.478 3.478 0 0 1-.721.48c-.196.1-.41.187-.634.267-.888.314-1.943.445-2.975.4h-.006a8.387 8.387 0 0 1-1.787-.273 5.598 5.598 0 0 1-1.05-.39 3.513 3.513 0 0 1-.726-.48c-.403-.353-.605-.752-.605-1.15 0-.592.438-1.178 1.332-1.632 1.302-.657 3.188-.839 4.808-.526.6.106 1.165.283 1.643.526.888.45 1.332 1.035 1.332 1.626Z" fill="#C2B59A"/><path d="M101.462 49c0 .04-.006.075-.006.115-.034.364-.236.723-.605 1.036a3.478 3.478 0 0 1-.721.48c-.196.1-.41.187-.634.267-.888.314-1.943.445-2.975.4.669-.243.738-.541.738-.541l1.228-3.915c.6.106 1.165.283 1.643.526.888.454 1.332 1.04 1.332 1.631Z" fill="#8F8673"/><path d="M101.462 48.459c0 .04-.006.075-.006.116-.034.359-.236.717-.605 1.035a3.474 3.474 0 0 1-.721.48c-.196.101-.41.192-.634.268-1.418.5-3.275.54-4.768.126a5.395 5.395 0 0 1-1.044-.394 3.514 3.514 0 0 1-.726-.48c-.41-.358-.605-.752-.605-1.156 0-.591.444-1.177 1.331-1.627 1.782-.904 4.67-.904 6.446 0 .888.45 1.332 1.04 1.332 1.632Z" fill="#D7CEBA"/><path d="m111.949 79.271 6.1.283.565-.318 3.344-2.394a2.78 2.78 0 0 0 .9-1.056l.098-.207.299-2.187-6.555-.642-4.751 6.521Z" fill="#C1BCCE"/><path d="m106.633 65.744.565-.667 4.734 2.395-.15.873-5.149-2.601ZM107.198 65.072l-.565.667.565-1.06v.393Z" fill="#F4D975"/><path d="m111.932 67.472-4.734-2.395v-2.071l4.734 2.395v2.07Z" fill="#CE7837"/><path d="m111.782 68.345.15-.873 6.469-.88.409.799-7.028.954Z" fill="#E3C76D"/><path d="m118.395 66.593-6.469.879V65.4l6.469-.88v2.072Z" fill="#AE6025"/><path d="m118.81 67.396-.409-.798 1.735-3.273.565.515-1.891 3.556Z" fill="#EDBC49"/><path d="m120.13 63.32-1.735 3.273v-2.071l1.735-3.274v2.072Z" fill="#985523"/><path d="m118.81 67.396 1.885-3.556V74.2l-1.885 3.556v-10.36Z" fill="#E9A727"/><path d="m119.035 67.37 1.263-2.389c.046-.09.202-.06.202.04v9.068c0 .045-.012.09-.035.131l-1.274 2.41c-.046.085-.185.055-.185-.036v-9.092a.218.218 0 0 1 .029-.131Z" fill="#E09724"/><path d="m111.782 68.346 7.028-.955v10.36l-7.028.955v-10.36Z" fill="#DFB740"/><path d="m112.272 68.451 5.938-.803c.214-.03.404.117.404.303v9.39c0 .152-.127.284-.3.304l-5.938.803c-.214.03-.404-.116-.404-.303v-9.39c0-.152.127-.278.3-.303Z" fill="#D5A02D"/><path d="m106.633 65.744 5.143 2.607v10.36l-5.143-2.607v-10.36Z" fill="#F0CA45"/><path d="M106.829 75.826v-9.253c0-.238.294-.384.525-.268l4.053 2.05a.3.3 0 0 1 .173.268v9.254c0 .238-.294.384-.525.268l-4.053-2.05a.306.306 0 0 1-.173-.269Z" fill="#E6B231"/><path d="m111.932 65.4-4.734-2.394 1.736-3.273 6.469-.879 4.733 2.394-1.735 3.274-6.469.879Z" fill="#C46017"/><path d="m108.057 62.178.583-1.096c.346-.652 1.038-1.111 1.851-1.218l3.978-.54a2.767 2.767 0 0 1 1.603.263l2.675 1.353c.501.253.703.803.455 1.268l-.513.965c-.346.652-1.038 1.111-1.851 1.217l-3.978.54a2.767 2.767 0 0 1-1.603-.262l-2.813-1.424c-.421-.218-.588-.677-.387-1.066Z" fill="#B45013"/><path d="m118.81 77.751-.467.652-6.388.868-.173-.565 7.028-.955Z" fill="#D09E3B"/><path d="m107.273 76.902-.64-.803 5.143 2.607.173.565-4.676-2.369Z" fill="#E0AF3F"/><path d="m111.932 67.472 1.729.62 5.149-.696 1.879-3.561-.559-.516-1.735 3.274-6.463.879Z" fill="#C1BCCE"/><path d="m108.363 68.972 1.724.874v.141l-.738-.374v.894l.738.374v.142l-1.724-.874v-.142l.847.43v-.894l-.847-.43v-.141ZM108.329 70.886a.41.41 0 0 1 .04-.176.216.216 0 0 1 .121-.096.38.38 0 0 1 .202-.005c.081.015.179.05.282.106.093.045.179.1.254.161.081.06.15.126.208.197.057.07.103.147.138.228a.61.61 0 0 1 .052.247.318.318 0 0 1-.052.197.22.22 0 0 1-.138.086.498.498 0 0 1-.208-.01 1.172 1.172 0 0 1-.254-.101 1.32 1.32 0 0 1-.265-.172 1.189 1.189 0 0 1-.207-.207.773.773 0 0 1-.133-.227.789.789 0 0 1-.04-.228Zm.651.697c.075.036.144.066.208.081.063.02.121.025.167.02a.157.157 0 0 0 .109-.055c.029-.03.041-.081.041-.152a.463.463 0 0 0-.046-.192.729.729 0 0 0-.116-.171.87.87 0 0 0-.167-.152 1.52 1.52 0 0 0-.196-.121.891.891 0 0 0-.213-.081c-.064-.015-.121-.02-.167-.015a.156.156 0 0 0-.11.06.251.251 0 0 0-.04.142c0 .066.017.131.046.192.029.06.069.121.121.177a1.143 1.143 0 0 0 .363.267ZM108.363 71.76v-.126l1.24.626v.126l-.173-.085c.063.08.109.156.15.232.04.07.057.147.057.222a.303.303 0 0 1-.04.167c-.029.045-.075.07-.138.076a.331.331 0 0 1-.139-.02c-.046-.02-.098-.04-.15-.066l-.813-.41v-.126l.808.41c.109.055.196.075.253.06.058-.015.087-.07.087-.172 0-.04-.006-.08-.023-.116a.54.54 0 0 0-.052-.116 1.149 1.149 0 0 0-.075-.106c-.029-.03-.058-.06-.092-.086-.041-.03-.081-.06-.116-.08-.034-.02-.075-.041-.121-.066l-.663-.344ZM108.945 73.174a.69.69 0 0 0-.19-.07.336.336 0 0 0-.156-.01.171.171 0 0 0-.104.06c-.028.03-.04.081-.04.142 0 .08.023.166.075.247a.745.745 0 0 0 .213.222v.142c-.057-.045-.115-.091-.161-.141-.052-.051-.092-.107-.133-.162a.74.74 0 0 1-.086-.177.55.55 0 0 1-.029-.197c0-.086.017-.151.052-.197a.217.217 0 0 1 .138-.086.509.509 0 0 1 .208.015c.081.02.161.056.253.101.093.046.179.101.254.167.081.066.15.131.208.202.057.07.109.147.138.227.035.081.052.157.052.238 0 .151-.058.237-.173.262-.115.026-.288-.02-.513-.13v-.855h-.006Zm.121.773c.064.03.116.05.173.066.052.01.098.015.139.005a.16.16 0 0 0 .092-.06.218.218 0 0 0 .034-.132.432.432 0 0 0-.034-.167.67.67 0 0 0-.098-.156 1.157 1.157 0 0 0-.306-.263v.707ZM108.029 73.79c-.006.016-.006.031-.012.046s-.006.036-.006.05c0 .036.012.072.041.107.023.035.057.07.092.1.035.036.075.066.109.097.041.03.07.055.099.086l1.245.207v.141l-1.067-.192 1.067.89v.136l-1.222-1.026c-.081-.065-.15-.126-.214-.177a3.775 3.775 0 0 1-.161-.151.73.73 0 0 1-.098-.136.281.281 0 0 1-.035-.132c0-.02 0-.04.006-.06.006-.02.006-.036.012-.05l.144.065Z" fill="#F4D975"/><path d="M88.461 57.445c1.182 1.535 1.378 3.5.507 5.193-1.037 2.02-3.395 3.268-5.92 3.142-1.829-.091-3.564-.905-4.66-2.289.208.243.6.364 1.102.364 2.796.02 7.962-3.106 8.948-5.37.19-.409.207-.777.023-1.04Z" fill="#841E25"/><path d="M88.45 58.49c-.987 2.258-6.158 5.39-8.954 5.365-.496 0-.894-.116-1.102-.364 0-.01-.011-.015-.017-.025-.011-.01-.011-.015-.017-.025-4.538-5.8-9.07-11.598-13.613-17.392a949.956 949.956 0 0 0-1.827-2.333c-1.228-1.561-2.445-3.132-3.673-4.693.37.47.865.889 1.326 1.212 2.9 2.081 8.141 3.415 11.698 2.986 1.067-.132 2.399-.495 2.866-1.354.27-.51.161-1.066-.133-1.571-.063-.106-.132-.222-.219-.339.548.697 1.084 1.4 1.632 2.097.386.495.784.99 1.176 1.49a.743.743 0 0 1 .138.454c0 .354-.196.758-.403 1.081-.548.849-1.517 1.688-2.381 2.314 2.565 3.278 5.142 6.562 7.714 9.85.945-.687 2.162-1.733 2.623-2.728.167-.364.254-.788.035-1.096a934.68 934.68 0 0 1 3.107 3.965c.012.01.018.026.03.03.01.01.016.016.016.026 0 .01.012.01.012.01.156.258.138.621-.035 1.04Z" fill="#841E25"/><path d="M85.267 53.358c.017.02.028.04.046.056.219.313.126.737-.04 1.096-.462.995-1.673 2.046-2.618 2.728-2.572-3.283-5.137-6.567-7.709-9.85.865-.621 1.828-1.46 2.382-2.303.31-.475.582-1.117.259-1.541l3.851 4.92c1.274 1.631 2.549 3.263 3.829 4.894Z" fill="#EDB732"/><path d="M62.383 35.654c2.474-.147 5.46.444 7.94 1.42 1.948.762 3.586 1.767 4.41 2.833.012.02.029.035.046.056.087.11.156.227.225.338.288.505.404 1.056.127 1.57-.461.86-1.793 1.218-2.871 1.35-3.552.434-8.799-.905-11.699-2.98-.46-.329-.957-.748-1.32-1.213-.26-.328-.455-.687-.524-1.05a1.343 1.343 0 0 1 .184-1.01c.6-.935 2.254-1.244 3.482-1.314Zm10.765 5.43c.276-.086.317-.268.115-.475-.265-.263-.928-.525-1.528-.525-.207 0-.513.04-.588.202-.063.131.052.273.167.368.421.36 1.355.576 1.834.43Zm-3.304-2.703c.282-.085.311-.277.115-.474-.265-.268-.928-.526-1.528-.526-.57 0-.801.253-.426.576.42.349 1.36.57 1.839.425Zm-.698 3.163c.283-.086.317-.273.116-.475-.266-.263-.929-.526-1.528-.526-.571 0-.802.253-.427.571.421.354 1.355.576 1.84.43Zm-.478-1.824c.277-.086.323-.268.115-.475-.265-.262-.928-.525-1.528-.525-.207 0-.513.04-.588.202-.063.131.052.273.167.369.415.353 1.355.576 1.834.429ZM66.5 41.993c.277-.086.323-.268.115-.475-.265-.262-.928-.525-1.528-.525-.207 0-.513.04-.588.202-.063.131.052.273.168.369.415.353 1.354.57 1.833.43Zm-.565-4.556c.282-.086.317-.273.115-.475-.265-.268-.934-.525-1.528-.525-.207 0-.513.04-.588.202-.063.131.052.272.168.368.42.354 1.354.576 1.833.43Zm-1.038 2.02c.283-.086.317-.272.115-.474-.265-.263-.928-.526-1.527-.526-.208 0-.514.04-.594.202-.064.132.052.273.167.369.42.354 1.355.576 1.84.43Zm-3.46-.808c.283-.086.318-.273.116-.475-.27-.272-.94-.525-1.528-.525-.207 0-.513.04-.594.202-.063.131.052.273.168.369.42.353 1.355.576 1.839.43Z" fill="#A54957"/><path d="M73.269 40.61c.201.206.161.388-.116.474-.478.146-1.418-.07-1.839-.43-.115-.095-.23-.242-.167-.368.08-.167.38-.202.588-.202.605 0 1.268.262 1.534.525ZM69.96 37.907c.195.197.166.389-.116.475-.484.146-1.418-.076-1.84-.43-.38-.318-.144-.576.427-.576.6.005 1.263.268 1.528.53ZM69.261 41.069c.202.202.168.389-.115.475-.478.146-1.418-.076-1.84-.43-.38-.318-.143-.576.428-.57.6 0 1.262.257 1.527.525ZM68.783 39.245c.208.207.156.39-.115.475-.479.147-1.413-.07-1.84-.43-.115-.095-.23-.242-.166-.368.08-.162.38-.202.588-.202.605 0 1.268.258 1.533.525ZM66.615 41.513c.202.207.156.394-.115.475-.478.147-1.412-.07-1.84-.43-.114-.095-.23-.242-.166-.368.08-.167.38-.202.588-.202.605.005 1.268.263 1.533.525ZM66.056 36.962c.202.202.168.389-.115.475-.479.146-1.413-.07-1.84-.424-.115-.096-.23-.243-.166-.37.08-.166.38-.201.588-.201.6-.005 1.262.252 1.533.52ZM65.012 38.977c.202.203.168.39-.115.475-.478.147-1.418-.075-1.833-.43-.116-.095-.231-.241-.167-.368.08-.167.38-.202.593-.202.594.005 1.257.263 1.522.526ZM61.553 38.174c.202.202.167.39-.115.475-.479.147-1.419-.076-1.834-.43-.115-.095-.23-.242-.167-.368.08-.167.38-.202.594-.202.582 0 1.251.253 1.522.525Z" fill="#E2B3BC"/><path d="M96.89 69.603V87.4l-17.62 8.91V78.514l17.62-8.91Z" fill="#1A5DB4"/><path d="m93.12 69.603-4.112 2.081c-.086-1.687-.27-3.141-.53-4.41h.017l4.624 2.33Z" fill="#0062E0"/><path d="M74.099 58.081c.957-1.399 1.573-2.818 1.17-5.283.121.08.248.151.375.217 1.862.944 4.895.944 6.768 0a5.27 5.27 0 0 0 .375-.212c-.905 5.354 3.102 5.753 5.149 12.295.207.661.392 1.384.553 2.182.254 1.268.438 2.722.53 4.41l-9.737 4.924-10.228-5.172a34.88 34.88 0 0 1 .3-3.04 20.12 20.12 0 0 1 .524-2.532 17.439 17.439 0 0 1 2.105-4.808c.092-.147.19-.293.288-.445.07-.106.144-.212.213-.313.202-.293.404-.566.6-.834.357-.484.703-.934 1.014-1.389Z" fill="#2A8766"/><path d="M82.499 46.393c.582.773.07 1.54-.848 2-1.55.783-4.133.733-5.534-.157-.958-.606-1.038-1.409-.398-2.035 1.481-1.45 5.644-1.309 6.78.192Z" fill="#D2448D"/><path d="M79.27 78.514v17.795L48.76 80.878V63.082l30.51 15.432Z" fill="#1877F2"/><path d="M74.249 47.696c.069-.995.945-1.748 1.983-2.177 2.335-.96 6.02-.556 7.224 1.217.242.359.352.723.352 1.086 0 .748-.663 1.334-1.4 1.713-2.128 1.076-5.87.93-7.513-.49-.387-.334-.658-.753-.658-1.223.006-.04.006-.08.012-.126Zm1.47-1.495c-.64.626-.56 1.43.398 2.035 1.4.89 3.984.94 5.535.157.916-.465 1.424-1.233.847-2-1.135-1.5-5.298-1.642-6.78-.192Z" fill="#FF73B5"/><path d="M74.9 49.05c1.643 1.414 5.38 1.566 7.512.49.738-.374 1.401-.965 1.401-1.713v3.47c0 .617-.455 1.127-1.026 1.496a5.311 5.311 0 0 1-.375.212c-1.868.944-4.9.944-6.768 0a3.931 3.931 0 0 1-.375-.217c-.577-.37-1.026-.88-1.026-1.495v-3.47c0 .48.27.898.657 1.227Z" fill="#D2448D"/><path d="m67.63 54.808 6.469 3.273c-.312.455-.657.905-1.02 1.39l-2.56-1.294a40.808 40.808 0 0 0-2.89-3.369Z" fill="#79B3FF"/><path d="m70.519 58.177 2.56 1.294c-.197.262-.398.54-.6.833-.07.106-.144.212-.213.313a41.318 41.318 0 0 0-1.747-2.44Z" fill="#0062E0"/><path d="M69.717 59.071c.951.238 1.77 1.243 2.266 1.986a17.271 17.271 0 0 0-2.105 4.808c-.98.485-2.087 1.016-3.165 1.117-2.133.192-3.684-1.43-3.857-2.99-.167-1.511.9-2.46 2.358-3.29.554-.312 1.5-.792 2.018-1.045.807-.394 1.66-.793 2.485-.586ZM69.354 68.396a34.84 34.84 0 0 0-.3 3.04l-1.447-.727c.127-.99.847-1.717 1.747-2.313ZM67.019 54.662c.472.596.974 1.404.68 2.086-.202.465-.744.813-1.228 1.09-.6.344-2.347 1.243-3.333 1.577-1.037.348-2.07.46-3.061.03-1.43-.616-2.312-2.197-2.012-3.53.26-1.162 1.314-1.85 2.462-2.47.582-.314 1.689-.89 2.346-1.056.652-.162 1.303-.107 2.208.48.698.454 1.436 1.161 1.938 1.793Z" fill="#C78E00"/><path d="M67.705 56.748c.294-.682-.208-1.49-.68-2.086-.502-.632-1.24-1.339-1.944-1.794-.905-.586-1.556-.641-2.208-.48-.657.162-1.764.738-2.346 1.056-1.148.622-2.203 1.304-2.462 2.47-.3 1.334.582 2.915 2.012 3.531.992.43 2.023.324 3.061-.03.986-.334 2.727-1.233 3.333-1.576.484-.278 1.032-.626 1.234-1.091Zm2.813 1.43a41.272 41.272 0 0 1 1.747 2.44c-.098.15-.196.297-.288.444-.49-.748-1.315-1.753-2.266-1.985-.819-.208-1.678.191-2.49.585a45.54 45.54 0 0 0-2.019 1.046c-1.458.828-2.525 1.778-2.358 3.288.173 1.561 1.724 3.183 3.857 2.99 1.079-.095 2.186-.626 3.166-1.116a22.374 22.374 0 0 0-.525 2.531c-.9.596-1.62 1.324-1.741 2.314l-9.588-4.85a40.992 40.992 0 0 1-2.272-4.41 31.68 31.68 0 0 1-.64-1.58c-.669-1.789-1.153-3.607-1.309-5.324-.12-1.324-.063-2.88.571-4.077 1.078-2.04 3.321-2.152 5.685-1.227 2.52.985 5.028 3.035 6.867 4.844.242.237.472.475.709.717a39.791 39.791 0 0 1 2.894 3.37Z" fill="#EDB732"/><path d="m58.019 65.86-5.495-2.778 3.223-1.626c.68 1.55 1.47 3.05 2.272 4.404Z" fill="#0062E0"/><path d="M55.107 59.874c.196.53.415 1.056.64 1.582l-3.223 1.626 5.495 2.778 9.588 4.85 1.447.727 10.216 5.167 9.738-4.925 4.111-2.08-4.618-2.335h-.017a20.11 20.11 0 0 0-.554-2.182l.017-.005 8.937 4.521-17.614 8.916-30.51-15.432 6.347-3.208Z" fill="#79B3FF"/><path d="M136.683 60.93c0 1.283-.968 2.35-2.248 2.986l-.012.01c-2.214 1.121-4.428 2.232-6.636 3.354-.651.333-1.303.656-1.949.99-.645.318-1.28.651-1.914.965a3359.34 3359.34 0 0 1-8.55 4.318c-.582.293-1.165.596-1.747.89l-4.313 2.181c-.42.218-.847.435-1.268.642l-1.914.975c-3.096 1.56-6.187 3.132-9.283 4.692-.415.208-.818.42-1.234.627-1.66.833-3.315 1.677-4.987 2.52l-1.747.88c-2.329 1.181-4.658 2.358-6.987 3.54h-.012c-.046.026-.08.046-.121.06a8.573 8.573 0 0 1-2.162.683 9.99 9.99 0 0 1-1.51.162c-1.719.075-3.483-.223-4.82-.905a832.305 832.305 0 0 0-3.212-1.621l-1.914-.975c-2.525-1.278-5.045-2.55-7.57-3.829-.335-.172-.68-.338-1.027-.52-.634-.324-1.268-.642-1.914-.965a2644.51 2644.51 0 0 0-8.538-4.319c-.635-.323-1.269-.641-1.915-.965-1.799-.914-3.609-1.823-5.408-2.737-.634-.319-1.199-.743-1.608-1.253-.404-.5-.652-1.091-.652-1.738 0-1.283.969-2.349 2.26-2.99 1.263-.642 2.514-1.278 3.777-1.91.15 1.006.311 2.011.461 3.016-.876.44-1.758.89-2.63 1.329h-.01a2.024 2.024 0 0 0-.548.394c-.104.116-.087.156-.098.161l.011.026c.035.1.167.222.254.287.098.076.23.162.38.238h.012c1.084.55 2.168 1.096 3.263 1.652.07.45.139.904.202 1.353.011.026.011.046.017.061a.42.42 0 0 0 .116.232c.282.324.83.147 1.228-.07.08-.046.167-.101.236-.157.087-.076.15-.146.15-.217-.012-.076-.029-.162-.035-.238 2.059 1.036 4.105 2.082 6.152 3.107v.01c.796.404 1.597.803 2.393 1.207.069.465.138.935.213 1.4.018.09.052.176.121.247.283.323.836.147 1.228-.07.081-.046.167-.092.237-.157.086-.071.15-.142.15-.218-.012-.075-.03-.156-.035-.237.519.263 1.044.535 1.563.798l7.033 3.546c.064.455.133.904.202 1.359 0 .025.012.04.012.06a.542.542 0 0 0 .12.233c.272.318.837.146 1.229-.07.133-.076.386-.238.386-.38v-.015c-.011-.075-.029-.146-.035-.217 1.794.904 3.575 1.808 5.362 2.713.698.353 1.695.54 2.699.54.986 0 1.983-.177 2.692-.54.715-.364 1.419-.718 2.128-1.076 2.162-1.091 4.312-2.188 6.469-3.279v.233c0 .232.565.48.847.555.335.086.686.061.848-.217a.408.408 0 0 0 .063-.232c0-.41 0-.814-.011-1.223.6-.303 1.193-.6 1.781-.899a609.765 609.765 0 0 1 4.445-2.248c3.275-1.661 6.55-3.318 9.819-4.97-.017.076-.029.157-.046.232v.01c.011.107.167.223.271.293.282.187.767.395 1.113.293a.519.519 0 0 0 .363-.404v-.01c.069-.465.138-.93.213-1.384.248-.121.484-.247.732-.369.704-.353 1.401-.712 2.111-1.065 3.211-1.622 6.422-3.253 9.645-4.88 1.13-.57 2.26-1.142 3.39-1.717h.012a1.47 1.47 0 0 0-.035.207c-.028.116.116.232.266.323.282.177.766.389 1.112.293a.518.518 0 0 0 .364-.404v-.025c.069-.455.138-.915.213-1.374.634-.324 1.28-.642 1.914-.965 1.511-.763 3.015-1.53 4.526-2.288l.012-.01a1.81 1.81 0 0 0 .547-.39c.104-.115.098-.156.098-.161 0 0 0-.01-.011-.025-.035-.101-.167-.222-.254-.293a2.958 2.958 0 0 0-.38-.233h-.012c-.715-.363-1.418-.727-2.133-1.08l.997-2.743c.917.454 1.834.919 2.745 1.384 1.256.656 2.242 1.722 2.242 3.01Z" fill="#E1DFEA"/><path d="M88.87 83.939v-.222c-.006-1.193-.006-2.385-.012-3.577 0-1.263-.006-2.525-.011-3.788.582-.298 1.17-.591 1.752-.884l.018 5.561c0 .601 0 1.202.005 1.803 0 .41 0 .814.006 1.223 0 .08-.017.167-.057.232-.156.283-.508.303-.848.212-.288-.07-.853-.323-.853-.56ZM81.519 90.667a8.145 8.145 0 0 1-1.932.576l1.932-.576ZM54.894 83.98l1.752.888-3.534 1.788c-2.283 1.172-4.457.288-4.768-1.843-.386-2.5-.773-5.006-1.153-7.507.64.324 1.28.647 1.914.97.323 2.112.652 4.223.975 6.335.04.287.16.626.397.828.45.379 1.217.167 1.759-.106 1.799-.92 2.658-1.354 2.658-1.354ZM59.05 80.272c0 .075-.063.146-.15.217a1.82 1.82 0 0 1-.236.156c-.392.213-.946.39-1.228.071a.53.53 0 0 1-.121-.252c-.075-.465-.144-.935-.213-1.4l-.208-1.338-1.02-6.638 1.92.97c.351 2.304.709 4.612 1.06 6.915.052.354.11.708.168 1.061.005.081.017.162.028.238ZM69.169 85.96c-.386.217-.945.388-1.228.07a.505.505 0 0 1-.115-.232c-.006-.02-.006-.04-.012-.061-.07-.45-.138-.904-.207-1.354-.41-2.657-.82-5.319-1.223-7.976l1.914.97 1.228 7.976.035.212v.02c-.006.142-.26.299-.392.374Z" fill="#E1DFEA"/><path d="M140.206 48.525c0 1.282-.969 2.348-2.26 2.99-2.698 1.369-5.408 2.738-8.106 4.106l-2.249 1.137c-.634.323-1.268.642-1.914.965-1.534.783-3.073 1.556-4.607 2.334a2682.423 2682.423 0 0 0-9.645 4.879c-.548.273-1.084.55-1.632.818-.634.324-1.268.652-1.914.975-3.679 1.854-7.351 3.718-11.03 5.572-2.081 1.06-4.162 2.111-6.244 3.162-.582.293-1.164.586-1.747.889-1.245.626-2.496 1.258-3.742 1.884-.899.455-1.798.914-2.71 1.369-.178.09-.351.187-.535.278-1.194.616-2.745.919-4.29.919-1.568 0-3.125-.308-4.313-.92h-.011c-1.65-.843-3.31-1.676-4.959-2.51-.645-.323-1.28-.651-1.914-.965-1.931-.98-3.874-1.965-5.806-2.94-.928-.47-1.85-.944-2.79-1.409v-.01c-.634-.318-1.28-.641-1.914-.965-.819-.419-1.643-.828-2.462-1.242l-2.116-1.066c-.57-.293-1.153-.586-1.736-.879-.743-.379-1.481-.748-2.225-1.126-.634-.324-1.28-.652-1.914-.965-2.393-1.207-4.774-2.42-7.167-3.627-.634-.318-1.199-.742-1.608-1.253-.398-.5-.646-1.096-.646-1.737 0-1.273.963-2.344 2.249-2.986v-.01c8.221-4.157 16.449-8.31 24.659-12.476.61.783 1.216 1.555 1.827 2.333-5.275 2.678-10.55 5.34-15.826 8.007-.53.262-1.05.525-1.58.798-2.496 1.258-4.987 2.52-7.472 3.778-.202.101-.415.232-.548.389-.103.121-.098.157-.098.162 0 .005-.011.01 0 .03.035.09.18.217.254.288.098.076.23.162.386.237l9.698 4.9c1.078.55 2.145 1.091 3.211 1.631 2.6 1.314 5.207 2.627 7.807 3.95 4.762 2.405 9.53 4.815 14.293 7.229.697.354 1.695.54 2.698.54.986 0 1.983-.176 2.692-.54l2.145-1.091c4.82-2.435 9.629-4.87 14.443-7.304 4.157-2.102 8.314-4.208 12.465-6.31.703-.353 1.401-.701 2.11-1.065 3.211-1.621 6.423-3.248 9.646-4.87.778-.404 1.562-.798 2.346-1.192 1.067-.54 2.145-1.08 3.212-1.621a547.862 547.862 0 0 0 3.182-1.616c2.18-1.097 4.347-2.203 6.527-3.299.196-.1.415-.237.553-.394.104-.116.087-.146.087-.157v-.03c-.035-.1-.167-.222-.254-.288a2.237 2.237 0 0 0-.386-.237c-1.851-.935-3.713-1.88-5.57-2.814-.547-.277-1.101-.565-1.66-.843a4369.278 4369.278 0 0 1-8.049-4.077v-3.248l15.221 7.699c-.063.237-.132.48-.196.712-.086.338.035.803.369.904.231.06.583-.04 1.032-.131.317-.071.836-.162 1.176-.157.018 0 .104 0 .104.015.877.642 1.453 1.516 1.453 2.49ZM81.755 90.561c-.075.035-.15.076-.236.106l.282-.086a.093.093 0 0 1-.046-.02Zm-8.562 5.374c-.536.273-1.303.48-1.758.102-.237-.192-.352-.536-.398-.829-.139-.899-.283-1.793-.421-2.692-.184-1.223-.363-2.43-.548-3.642-.645-.323-1.28-.642-1.925-.975.23 1.49.46 2.985.68 4.46.167 1.02.317 2.03.479 3.051.317 2.132 2.49 3.02 4.773 1.849v-.01l3.54-1.788-1.758-.89c-.882.465-1.776.915-2.664 1.365Zm17.44-7.051v-1.778c0-.338-.01-.687-.01-1.03l-1.748.878v1.036h-.011l-.012 1.793c.012-.01.018-.01.03-.015v3.202c0 .091-.012.203-.047.319a.442.442 0 0 1-.104.217c-.011.025-.017.04-.046.045-.052.046-.104.086-.265.091h-.08c-.387 0-.848-.177-1.177-.348-.063-.026-.115-.056-.184-.086-.047-.025-.099-.056-.15-.07-.116-.062-.237-.117-.352-.188l-1.828.849c.266.131.467.232.571.288.363.176.715.353 1.06.535h.012c1.148.586 2.18.682 2.947.41.115-.041.219-.087.317-.142.669-.364 1.078-1.046 1.078-1.94v-2c.011-.682 0-1.38 0-2.066ZM63.554 91.95c-1.13.576-2.226.652-3.09.323-.883-.338-1.517-1.096-1.673-2.172v-.005a15139.358 15139.358 0 0 0-1.153-7.506c.64.323 1.274.647 1.914.97.323 2.111.652 4.223.975 6.334v.005c.04.288.161.627.398.829.45.379 1.216.166 1.758-.106.023-.01 2.295-1.53 2.295-1.53l2.525 1.277s-2.929.93-2.773.99l-1.17.591h-.006Z" fill="#E1DFEA"/><path d="M108.005 75.544c-.34.1-.83-.111-1.112-.293-.104-.071-.266-.182-.266-.298v-.005c.012-.076.024-.152.035-.233.404-2.662.807-5.329 1.217-7.99.64-.324 1.28-.647 1.914-.97-.162 1.05-.317 2.1-.479 3.146-.248 1.612-.49 3.228-.738 4.84-.069.459-.138.924-.213 1.383v.005a.499.499 0 0 1-.358.415ZM125.804 66.542c-.341.101-.831-.11-1.113-.293-.144-.09-.288-.207-.26-.328.012-.07.024-.136.029-.207.404-2.662.813-5.33 1.211-7.991.64-.323 1.28-.647 1.914-.97l-.138.91c-.288 1.909-.583 3.813-.871 5.717l-.207 1.364-.208 1.374c0 .01 0 .02-.006.025a.48.48 0 0 1-.351.4Z" fill="#E1DFEA"/><defs><linearGradient id="a" x1="94.304" y1="56.967" x2="108.622" y2="56.967" gradientUnits="userSpaceOnUse"><stop stop-color="#2A8766"/><stop offset="1" stop-color="#27654F"/></linearGradient></defs></svg>