<svg width="184" height="117" fill="none" xmlns="http://www.w3.org/2000/svg"><path d="m61.119 71.199 1.798-1.037L64.71 71.2l-1.799 1.037-1.792-1.037ZM64.944 73.407l1.798-1.036 1.793 1.036-1.799 1.037-1.792-1.037ZM68.769 75.616l1.798-1.037 1.793 1.037-1.799 1.037-1.792-1.037ZM72.6 77.824l1.798-1.037 1.793 1.037-1.799 1.037-1.792-1.037ZM76.425 80.038l1.798-1.037 1.793 1.037-1.799 1.037-1.792-1.037ZM64.54 57.064H53.012l4.147-4.147h11.528l-4.147 4.147Zm-9.402-.884h9.039l2.384-2.384h-9.039l-2.384 2.384Z" fill="#fff"/><path d="M66.8 33.862H55.274L50.99 29.58h11.528l4.282 4.282Zm-11.164-.884h9.038l-2.518-2.52h-9.039l2.52 2.52ZM24.257 57.064H12.729l-4.147-4.147h11.527l4.148 4.147Zm-11.16-.884h9.04l-2.385-2.384h-9.038l2.384 2.384Z" fill="#1877F2"/><path d="M72.008 49.596H60.48l5.26-5.26-7.146-7.147h11.528l7.147 7.147-5.26 5.26Zm-9.401-.885h9.038l4.382-4.381-6.268-6.268h-9.033l6.268 6.268-4.387 4.381Z" fill="#fff"/><path d="M16.788 49.596H5.26L0 44.336 22.359 21.97h11.528L11.527 44.33l5.261 5.266ZM5.63 48.71h9.033L10.28 44.33l21.48-21.48h-9.038L1.242 44.33l4.387 4.381ZM38.637 82.967 18.241 62.571h11.528l8.868 8.868 8.869-8.868h11.527L38.637 82.967Zm-18.27-19.512 18.27 18.27 18.27-18.27H47.87l-9.232 9.232-9.232-9.232h-9.038ZM51.588 18.65H25.686L38.637 5.698 51.588 18.65Zm-23.776-.885h21.65L38.637 6.94 27.812 17.765ZM59.192 26.253H47.664l-4.282-4.282H54.91l4.282 4.282Zm-11.16-.879h9.04l-2.52-2.518h-9.038l2.519 2.518Z" fill="#1877F2"/><g opacity=".5"><path d="M183.761 30.869c-.006-.024-.018-.041-.023-.065l-.018-.046-.018-.047c-.234-.557-.597-1.025-1.048-1.29l-.129-.075-15.47-8.933-15.47-8.933-.129-.076c-.451-.258-.902-.264-1.277-.059-.012.006-.018.012-.029.018l-.03.017-2.044 1.178 1.178.498-4.089 21.661c-.106.557-.012 1.178.222 1.728l.018.047c.006.012.012.03.018.041.234.557.597 1.025 1.048 1.289l30.858 17.825-.287 1.359 1.933-1.12c.012-.005.018-.01.03-.017.375-.199.662-.597.767-1.16l4.182-22.183c.106-.527.024-1.118-.193-1.657Z" fill="#fff"/><path d="m175.66 57.012-31.198-18.019c-.943-.544-1.517-2.009-1.277-3.262l4.124-21.867c.24-1.26 1.195-1.84 2.138-1.295l31.198 18.019c.943.544 1.517 2.009 1.277 3.262l-4.124 21.867c-.24 1.265-1.195 1.84-2.138 1.295Z" fill="url(#a)"/><path d="m180.516 30.517-15.47-8.933-4.85 25.704 15.335 9.653c1.013.586 2.015.111 2.238-1.06l4.182-22.183c.217-1.172-.422-2.595-1.435-3.18Z" fill="url(#b)"/><path d="m149.57 12.646 15.47 8.933-4.815 25.539-15.64-8.054c-1.014-.586-1.658-2.01-1.435-3.181l4.182-22.183c.223-1.166 1.224-1.64 2.238-1.054Z" fill="#1877F2"/><path d="M143.349 37.558c.252.633.691 1.195 1.242 1.512l30.94 17.871c.551.317 1.089.322 1.511.076l-13.865-25.539-19.828 6.08Z" fill="url(#c)"/><path d="M181.752 32.035c-.252-.633-.691-1.195-1.242-1.512l-30.94-17.872c-.551-.316-1.09-.322-1.511-.076l13.865 25.54 19.828-6.08Z" fill="url(#d)"/></g><path d="M39.24 49.678c.024-.053.041-.106.065-.158.017-.036.029-.077.047-.112.017-.04.035-.076.052-.117.592-1.406 1.512-2.589 2.648-3.25l.322-.188 39.083-22.576L120.539.702l.322-.188c1.136-.656 2.279-.662 3.234-.146.029.012.052.03.076.041.023.018.052.03.076.041l5.16 2.976-2.975 1.26 10.321 54.721c.264 1.412.029 2.97-.562 4.37-.018.041-.036.076-.047.117-.018.035-.03.077-.047.112-.592 1.406-1.511 2.595-2.648 3.25L55.501 112.28l.72 3.432-4.885-2.829-.076-.041c-.954-.51-1.67-1.517-1.939-2.929L38.754 53.878c-.264-1.342-.058-2.835.486-4.2Z" fill="#1A5DB4"/><path d="m59.707 115.723 78.809-45.52c2.384-1.376 3.831-5.067 3.228-8.248L131.329 6.724c-.598-3.181-3.017-4.64-5.401-3.263l-78.81 45.52c-2.383 1.376-3.83 5.067-3.227 8.247l10.415 55.232c.598 3.175 3.017 4.64 5.401 3.263Z" fill="url(#e)"/><path d="m47.441 48.793 39.082-22.575L98.772 91.15l-38.743 24.386c-2.56 1.482-5.09.281-5.647-2.677L43.815 56.824c-.556-2.958 1.066-6.554 3.626-8.03Z" fill="#1877F2"/><path d="M125.606 3.642 86.523 26.218 98.696 90.74 138.2 70.39c2.56-1.481 4.182-5.078 3.626-8.036L131.258 6.319c-.562-2.952-3.092-4.153-5.652-2.677Z" fill="url(#f)"/><path d="M141.328 66.571c-.639 1.6-1.746 3.023-3.128 3.82l-78.17 45.145c-1.383.796-2.754.808-3.814.193l35.023-64.522 50.089 15.364Z" fill="url(#g)"/><path d="M44.313 52.612c.639-1.599 1.746-3.022 3.128-3.819l78.165-45.145c1.382-.796 2.753-.808 3.813-.193L94.396 67.977 44.313 52.612Z" fill="url(#h)"/><defs><linearGradient id="a" x1="145.244" y1="24.798" x2="182.31" y2="31.79" gradientUnits="userSpaceOnUse"><stop stop-color="#7BDAFF"/><stop offset="1" stop-color="#59BDEF"/></linearGradient><linearGradient id="b" x1="183.03" y1="47.035" x2="167.394" y2="41.34" gradientUnits="userSpaceOnUse"><stop stop-color="#478FEC"/><stop offset="1" stop-color="#1877F2"/></linearGradient><linearGradient id="c" x1="162.245" y1="46.049" x2="159.79" y2="31.527" gradientUnits="userSpaceOnUse"><stop stop-color="#1B7FFF"/><stop offset="1" stop-color="#003C89"/></linearGradient><linearGradient id="d" x1="175.284" y1="9.347" x2="140.514" y2="35.796" gradientUnits="userSpaceOnUse"><stop stop-color="#5A98E8"/><stop offset="1" stop-color="#5094ED"/></linearGradient><linearGradient id="e" x1="136.538" y1="34.338" x2="42.903" y2="52.001" gradientUnits="userSpaceOnUse"><stop stop-color="#7BDAFF"/><stop offset="1" stop-color="#59BDEF"/></linearGradient><linearGradient id="f" x1="144.571" y1="65.714" x2="105.121" y2="50.891" gradientUnits="userSpaceOnUse"><stop stop-color="#478FEC"/><stop offset="1" stop-color="#1877F2"/></linearGradient><linearGradient id="g" x1="103.948" y1="88.017" x2="85.794" y2="67.282" gradientUnits="userSpaceOnUse"><stop stop-color="#1B7FFF"/><stop offset="1" stop-color="#083671"/></linearGradient><linearGradient id="h" x1="113.081" y1="-4.696" x2="25.249" y2="62.109" gradientUnits="userSpaceOnUse"><stop stop-color="#5A98E8"/><stop offset="1" stop-color="#5094ED"/></linearGradient></defs></svg>