<svg width="314" height="197" fill="none" xmlns="http://www.w3.org/2000/svg"><g filter="url(#a)"><path d="M64.988 172.786a2 2 0 0 1-2-2v-21.227a2 2 0 0 0-2-2H8a2 2 0 0 1-2-2v-15.038c0-.398.119-.786.34-1.116l54.202-80.586a2 2 0 0 1 1.66-.884h19.621a2 2 0 0 1 2 2v77.976a2 2 0 0 0 2 2h10.178a2 2 0 0 1 2 2v13.648a2 2 0 0 1-2 2H85.823a2 2 0 0 0-2 2v21.227a2 2 0 0 1-2 2H64.988Zm-3.234-42.875a2 2 0 0 0 2-1.959l1.057-51.916c.04-2.02-2.597-2.82-3.685-1.118l-33.201 51.915c-.852 1.332.104 3.078 1.685 3.078h32.144Z" fill="#004CAE"/><path d="M64.988 172.286a1.5 1.5 0 0 1-1.5-1.5v-21.227a2.5 2.5 0 0 0-2.5-2.5H8a1.5 1.5 0 0 1-1.5-1.5v-15.038c0-.298.089-.59.255-.837l54.202-80.586a1.5 1.5 0 0 1 1.245-.663h19.621a1.5 1.5 0 0 1 1.5 1.5v77.976a2.5 2.5 0 0 0 2.5 2.5h10.178a1.5 1.5 0 0 1 1.5 1.5v13.648a1.5 1.5 0 0 1-1.5 1.5H85.823a2.5 2.5 0 0 0-2.5 2.5v21.227a1.5 1.5 0 0 1-1.5 1.5H64.988Zm-3.234-41.875a2.5 2.5 0 0 0 2.5-2.449l1.057-51.916c.051-2.524-3.246-3.525-4.606-1.398l-33.201 51.916c-1.065 1.664.13 3.847 2.106 3.847h32.144Z" stroke="#1877F2"/></g><g filter="url(#b)" opacity=".94"><path d="M274.994 172.786a2 2 0 0 1-2-2v-21.227a2 2 0 0 0-2-2h-52.995a2 2 0 0 1-2-2v-15.038c0-.398.118-.786.34-1.116l54.195-80.586a2 2 0 0 1 1.659-.884h19.629a2 2 0 0 1 2 2v77.976a2 2 0 0 0 2 2H306a2 2 0 0 1 2 2v13.648a2 2 0 0 1-2 2h-10.178a2 2 0 0 0-2 2v21.227a2 2 0 0 1-2 2h-16.828Zm-3.234-42.875a2 2 0 0 0 2-1.96l1.05-51.917c.041-2.019-2.596-2.82-3.684-1.118l-33.202 51.917c-.852 1.332.104 3.078 1.685 3.078h32.151Z" fill="#004CAE"/><path d="M274.994 172.286a1.5 1.5 0 0 1-1.5-1.5v-21.227a2.5 2.5 0 0 0-2.5-2.5h-52.995a1.5 1.5 0 0 1-1.5-1.5v-15.038c0-.298.089-.59.255-.837l54.195-80.586a1.498 1.498 0 0 1 1.244-.663h19.629a1.5 1.5 0 0 1 1.5 1.5v77.976a2.5 2.5 0 0 0 2.5 2.5H306a1.5 1.5 0 0 1 1.5 1.5v13.648a1.5 1.5 0 0 1-1.5 1.5h-10.178a2.5 2.5 0 0 0-2.5 2.5v21.227a1.5 1.5 0 0 1-1.5 1.5h-16.828Zm-3.234-41.875a2.5 2.5 0 0 0 2.5-2.449l1.05-51.918c.051-2.524-3.245-3.524-4.605-1.397l-33.203 51.917c-1.064 1.664.131 3.847 2.107 3.847h32.151Z" stroke="#1877F2"/></g><g filter="url(#c)" opacity=".94"><path d="M203.912 111.653c0 20.037-4.153 35.722-12.458 47.057s-19.724 17.004-34.258 17.009c-14.713 0-26.161-5.728-34.345-17.183-8.184-11.456-12.276-27.543-12.276-48.262 0-20.545 4.135-36.56 12.406-48.044 8.272-11.485 19.766-17.225 34.484-17.22 14.887 0 26.35 5.754 34.388 17.263 8.039 11.51 12.059 27.969 12.059 49.38Zm-47.072 46.411c8.634 0 15.12-4.003 19.456-12.008 4.336-8.005 6.514-19.988 6.534-35.949 0-15.487-2.142-27.299-6.425-35.434-4.283-8.136-10.534-12.197-18.752-12.182-8.566 0-15.037 4.046-19.412 12.138-4.375 8.092-6.553 20.032-6.534 35.819 0 15.323 2.178 27.09 6.534 35.303 4.356 8.214 10.556 12.318 18.599 12.313Z" fill="#004CAE"/><path d="M183.33 110.107c-.02 15.991-2.199 28.074-6.594 36.188-2.202 4.064-4.963 7.137-8.294 9.192-3.331 2.057-7.204 3.077-11.601 3.077h-.001l26.49-48.457Zm0 0c0-15.52-2.144-27.427-6.483-35.667m6.483 35.667-6.483-35.667m0 0c-2.172-4.126-4.858-7.247-8.07-9.334m8.07 9.334-8.07-9.334m0 0c-3.215-2.088-6.929-3.122-11.125-3.115m11.125 3.115-11.125-3.115m0 0c-4.364 0-8.218 1.032-11.542 3.11-3.322 2.078-6.088 5.184-8.309 9.29-4.433 8.2-6.613 20.239-6.594 36.058l26.445-48.458Zm-.188-16.481h.001c14.735 0 26.04 5.684 33.978 17.05 7.957 11.39 11.969 27.734 11.969 49.093 0 19.974-4.141 35.542-12.361 46.761-8.207 11.201-19.474 16.8-33.855 16.805-14.56 0-25.853-5.657-33.938-16.974-8.101-11.339-12.183-27.31-12.183-47.971 0-20.486 4.124-36.383 12.312-47.752 8.173-11.348 19.513-17.017 34.077-17.012Z" stroke="#1877F2"/></g><path d="M33.478 14.018a1.386 1.386 0 0 1-.349-1.009V2.614a1.407 1.407 0 0 1 .385-1.038 1.626 1.626 0 0 1 2.12 0 1.381 1.381 0 0 1 .385 1.038V12h4.755c.9 0 1.357.4 1.357 1.19 0 .792-.457 1.17-1.357 1.17H34.48a1.38 1.38 0 0 1-1.002-.341ZM45.1 13.931a4.088 4.088 0 0 1-1.691-1.655 5.598 5.598 0 0 1 0-5.023A4.066 4.066 0 0 1 45.1 5.605a5.917 5.917 0 0 1 5.082 0c.714.37 1.303.943 1.691 1.648a5.597 5.597 0 0 1 0 5.023 4.088 4.088 0 0 1-1.691 1.655 5.809 5.809 0 0 1-5.082 0Zm4.581-4.167a3.057 3.057 0 0 0-.53-1.967 1.822 1.822 0 0 0-1.51-.646c-1.365 0-2.04.871-2.04 2.613 0 1.743.675 2.621 2.04 2.621s2.04-.878 2.04-2.62ZM56.012 13.931a4.088 4.088 0 0 1-1.692-1.655 5.656 5.656 0 0 1 0-5.023 4.065 4.065 0 0 1 1.692-1.648 5.931 5.931 0 0 1 5.081 0c.713.37 1.299.943 1.685 1.648a5.597 5.597 0 0 1 0 5.023 4.065 4.065 0 0 1-1.685 1.655 5.807 5.807 0 0 1-5.081 0ZM60.6 9.764a3.107 3.107 0 0 0-.53-1.967 1.837 1.837 0 0 0-1.517-.646c-1.356 0-2.036.871-2.04 2.613 0 1.743.682 2.621 2.04 2.621 1.357 0 2.047-.878 2.047-2.62ZM74.11 13.126c-.003.348-.14.681-.385.929a1.176 1.176 0 0 1-.879.406 1.278 1.278 0 0 1-.892-.392l-4.066-3.767v2.838a1.212 1.212 0 0 1-.4.987c-.276.23-.627.35-.987.334a1.517 1.517 0 0 1-1.016-.334 1.236 1.236 0 0 1-.4-.987V2.505a1.225 1.225 0 0 1 .4-.98c.287-.231.648-.35 1.016-.334.36-.015.711.104.988.334a1.206 1.206 0 0 1 .4.98v6.642l3.716-3.63a1.249 1.249 0 0 1 1.815 0 1.212 1.212 0 0 1 .392.9 1.285 1.285 0 0 1-.428.908l-2.469 2.36 2.766 2.562a1.255 1.255 0 0 1 .429.879ZM81.02 14.142a1.205 1.205 0 0 1-.399-.98V2.505a1.228 1.228 0 0 1 .4-.98 1.51 1.51 0 0 1 1.009-.334c.361-.017.716.102.994.334a1.205 1.205 0 0 1 .4.98v10.657a1.183 1.183 0 0 1-.4.98c-.278.231-.633.35-.994.334a1.51 1.51 0 0 1-1.01-.334ZM85.856 3.202a1.314 1.314 0 0 1-.429-1.031 1.285 1.285 0 0 1 .429-1.01 1.72 1.72 0 0 1 1.169-.37c.42-.022.834.113 1.161.378a1.27 1.27 0 0 1 .436 1.01 1.315 1.315 0 0 1-.429 1.03 1.968 1.968 0 0 1-2.337 0v-.007Zm.16 10.94a1.183 1.183 0 0 1-.4-.98V6.389a1.212 1.212 0 0 1 .407-.988c.285-.223.639-.34 1.002-.334.36-.01.712.109.994.334a1.212 1.212 0 0 1 .4.988v6.773a1.183 1.183 0 0 1-.4.98 1.67 1.67 0 0 1-2.004 0ZM99.555 13.126c0 .347-.136.68-.378.929a1.192 1.192 0 0 1-.886.406 1.278 1.278 0 0 1-.892-.392l-4.059-3.767v2.838a1.234 1.234 0 0 1-.399.987c-.28.228-.633.347-.994.334a1.532 1.532 0 0 1-1.017-.334 1.233 1.233 0 0 1-.4-.987V2.505a1.226 1.226 0 0 1 .407-.98c.288-.23.649-.349 1.017-.334.36-.013.714.106.994.334a1.228 1.228 0 0 1 .4.98v6.642l3.71-3.63a1.255 1.255 0 0 1 1.821 0 1.234 1.234 0 0 1 .385.9 1.254 1.254 0 0 1-.428.908l-2.468 2.36 2.766 2.562a1.227 1.227 0 0 1 .42.879ZM108.716 11.957c.154.21.236.465.233.726a1.016 1.016 0 0 1-.189.58c-.134.19-.311.347-.516.458-.461.236-.948.419-1.452.544a6.181 6.181 0 0 1-1.546.218 5.492 5.492 0 0 1-2.584-.58 3.984 3.984 0 0 1-1.699-1.641 5.086 5.086 0 0 1-.595-2.512 5.115 5.115 0 0 1 .573-2.468 4.252 4.252 0 0 1 1.597-1.685 4.503 4.503 0 0 1 2.323-.602 4.188 4.188 0 0 1 2.178.552 3.724 3.724 0 0 1 1.452 1.553c.36.736.537 1.548.516 2.367a.895.895 0 0 1-.189.624.727.727 0 0 1-.552.21h-5.205c.026.593.263 1.157.668 1.59.435.353.987.529 1.546.494.324.005.647-.04.958-.13.324-.1.642-.219.951-.356l.501-.196c.138-.048.283-.075.429-.08a.724.724 0 0 1 .602.334Zm-5.081-4.487a2.423 2.423 0 0 0-.581 1.452h3.586a2.419 2.419 0 0 0-.494-1.452 1.549 1.549 0 0 0-1.234-.5 1.671 1.671 0 0 0-1.27.5h-.007ZM122.56 5.293c.199-.124.428-.19.661-.19.347-.003.683.12.944.35a1.023 1.023 0 0 1 .406.82 1.23 1.23 0 0 1-.123.522l-4.995 10.244c-.105.24-.28.445-.501.588a1.246 1.246 0 0 1-.667.196 1.393 1.393 0 0 1-.915-.334 1.065 1.065 0 0 1-.385-.82 1.233 1.233 0 0 1 .131-.56l1.219-2.54-3.303-6.774a1.31 1.31 0 0 1-.109-.5 1.068 1.068 0 0 1 .436-.857c.281-.229.632-.352.994-.349.242-.001.479.067.683.196.221.14.395.342.501.581l2.301 5.01 2.251-5.01c.091-.237.256-.438.471-.573ZM127.432 13.931a4.07 4.07 0 0 1-1.685-1.655 5.603 5.603 0 0 1 0-5.023 4.05 4.05 0 0 1 1.685-1.648 5.93 5.93 0 0 1 5.081 0 4.05 4.05 0 0 1 1.685 1.648 5.603 5.603 0 0 1 0 5.023 4.07 4.07 0 0 1-1.685 1.655 5.804 5.804 0 0 1-5.081 0Zm4.588-4.167a3.115 3.115 0 0 0-.53-1.967 1.84 1.84 0 0 0-1.518-.646c-1.36 0-2.04.871-2.04 2.613 0 1.743.683 2.621 2.04 2.621 1.358 0 2.048-.878 2.048-2.62ZM144.905 5.423a1.239 1.239 0 0 1 .385.966v6.81a1.175 1.175 0 0 1-.399.928c-.289.24-.656.364-1.031.349a1.29 1.29 0 0 1-.944-.334 1.134 1.134 0 0 1-.355-.886v-.188a2.856 2.856 0 0 1-1.126 1.074 3.207 3.207 0 0 1-1.568.378 3.255 3.255 0 0 1-2.57-.959 4.277 4.277 0 0 1-.842-2.904V6.39a1.235 1.235 0 0 1 .378-.966 1.451 1.451 0 0 1 1.031-.356 1.409 1.409 0 0 1 1.023.356 1.243 1.243 0 0 1 .37.966v4.356c-.033.429.088.856.342 1.205a1.33 1.33 0 0 0 1.052.392 1.732 1.732 0 0 0 1.329-.56c.346-.402.528-.92.508-1.451V6.389a1.259 1.259 0 0 1 .37-.966 1.417 1.417 0 0 1 1.024-.356 1.45 1.45 0 0 1 1.023.356ZM149.907 1.72c.328.442.487.985.45 1.533a4.727 4.727 0 0 1-1.393 3.376.73.73 0 0 1-.574.26.806.806 0 0 1-.559-.217.65.65 0 0 1-.24-.508.683.683 0 0 1 .204-.48c.382-.39.662-.868.813-1.393a1.548 1.548 0 0 1-1.017-.465 1.452 1.452 0 0 1-.392-1.038 1.609 1.609 0 0 1 .436-1.147 1.564 1.564 0 0 1 1.767-.3c.192.092.364.22.505.38ZM158.59 5.322a1.107 1.107 0 0 1 .319.863 1.234 1.234 0 0 1-.29.908 1.772 1.772 0 0 1-1.06.37l-.559.058a2.105 2.105 0 0 0-1.452.668 2.174 2.174 0 0 0-.457 1.452v3.543a1.188 1.188 0 0 1-.4.98c-.278.231-.633.35-.994.334a1.508 1.508 0 0 1-1.009-.334 1.193 1.193 0 0 1-.4-.98V6.352a1.173 1.173 0 0 1 .407-.95c.28-.223.629-.34.987-.335.34-.01.672.106.929.327a1.13 1.13 0 0 1 .371.9v.501c.2-.504.553-.933 1.009-1.227a3.137 3.137 0 0 1 1.452-.479h.261a1.171 1.171 0 0 1 .886.232ZM167.439 11.957c.157.21.239.465.233.726a.998.998 0 0 1-.182.58c-.137.19-.316.347-.522.458-.461.238-.949.42-1.452.544a6.133 6.133 0 0 1-1.539.218 5.524 5.524 0 0 1-2.592-.58 4.07 4.07 0 0 1-1.699-1.641 5.576 5.576 0 0 1 0-4.98 4.279 4.279 0 0 1 1.59-1.685 4.524 4.524 0 0 1 2.323-.602 4.231 4.231 0 0 1 2.178.552 3.666 3.666 0 0 1 1.452 1.553c.362.735.542 1.547.523 2.367a.893.893 0 0 1-.196.624.733.733 0 0 1-.545.21h-5.22c.023.594.261 1.159.668 1.59.431.356.982.533 1.539.494.327.005.652-.04.966-.13.321-.1.637-.219.944-.356l.501-.196a1.45 1.45 0 0 1 .428-.08.724.724 0 0 1 .602.334Zm-5.081-4.487a2.426 2.426 0 0 0-.574 1.452h3.579a2.418 2.418 0 0 0-.493-1.452 1.547 1.547 0 0 0-1.235-.5 1.667 1.667 0 0 0-1.27.5h-.007ZM174.997 14.142a1.183 1.183 0 0 1-.4-.98V2.505a1.2 1.2 0 0 1 .4-.98 1.668 1.668 0 0 1 2.003 0 1.22 1.22 0 0 1 .399.98v10.657a1.2 1.2 0 0 1-.399.98 1.668 1.668 0 0 1-2.003 0ZM181.392 13.931a4.044 4.044 0 0 1-1.691-1.655 5.59 5.59 0 0 1 0-5.023 4.023 4.023 0 0 1 1.691-1.648 5.918 5.918 0 0 1 5.082 0c.714.37 1.303.943 1.691 1.648a5.59 5.59 0 0 1 0 5.023 4.084 4.084 0 0 1-1.691 1.655 5.811 5.811 0 0 1-5.082 0Zm4.581-4.167a3.05 3.05 0 0 0-.53-1.967 1.82 1.82 0 0 0-1.51-.646c-1.365 0-2.04.871-2.04 2.613 0 1.743.675 2.621 2.04 2.621s2.04-.878 2.04-2.62ZM191.948 14.33a4.405 4.405 0 0 1-1.452-.595 1.112 1.112 0 0 1-.421-.442 1.311 1.311 0 0 1-.153-.632c-.009-.263.076-.52.24-.726a.723.723 0 0 1 .595-.283c.165.002.329.03.487.08l.5.196c.328.155.668.284 1.017.384.409.099.828.145 1.248.138.348.014.694-.055 1.01-.203a.633.633 0 0 0 .363-.559.601.601 0 0 0-.16-.42 1.518 1.518 0 0 0-.588-.284 14.321 14.321 0 0 0-1.35-.32 5.08 5.08 0 0 1-2.374-.943 2.181 2.181 0 0 1-.726-1.764 2.391 2.391 0 0 1 .508-1.503c.366-.466.85-.827 1.401-1.045a5.083 5.083 0 0 1 2.004-.385 5.892 5.892 0 0 1 1.56.203 5.08 5.08 0 0 1 1.358.574 1.151 1.151 0 0 1 .573 1.045c.007.262-.078.519-.239.726a.721.721 0 0 1-.595.298 2.255 2.255 0 0 1-1.024-.334 5.26 5.26 0 0 0-.842-.363 3 3 0 0 0-.9-.124 1.627 1.627 0 0 0-.908.218.659.659 0 0 0-.222.944.658.658 0 0 0 .273.232c.48.202.986.34 1.503.407a7.89 7.89 0 0 1 1.953.588c.418.18.775.481 1.023.864.224.4.332.855.312 1.314a2.444 2.444 0 0 1-1.089 2.098 4.847 4.847 0 0 1-2.903.784 9.173 9.173 0 0 1-1.982-.167ZM205.298 12.72a.93.93 0 0 1 .254.725.909.909 0 0 1-.421.813 1.982 1.982 0 0 1-1.227.225h-.522c-2.164-.174-3.245-1.306-3.245-3.397V7.354h-.726c-.332.02-.66-.075-.93-.268a.964.964 0 0 1-.319-.777.98.98 0 0 1 .319-.784c.267-.199.598-.294.93-.269h.726V3.804a1.248 1.248 0 0 1 .377-.965c.285-.246.655-.37 1.031-.349.373-.02.74.105 1.023.349a1.277 1.277 0 0 1 .371.965v1.452h1.299c.842 0 1.263.349 1.263 1.053a.965.965 0 0 1-.319.777 1.453 1.453 0 0 1-.944.268h-1.299v3.877c-.023.303.071.604.261.842a1.067 1.067 0 0 0 .762.327h.516c.302.008.592.121.82.32ZM212.013 3.202a1.322 1.322 0 0 1-.428-1.031 1.294 1.294 0 0 1 .428-1.016 1.72 1.72 0 0 1 1.169-.37 1.7 1.7 0 0 1 1.169.377c.143.125.257.28.333.455.075.174.11.364.103.554a1.325 1.325 0 0 1-.429 1.03 1.966 1.966 0 0 1-2.337 0h-.008Zm.16 10.94a1.18 1.18 0 0 1-.399-.98V6.389a1.206 1.206 0 0 1 .406-.988c.286-.223.64-.34 1.002-.334.361-.01.713.109.995.334a1.215 1.215 0 0 1 .399.987v6.774a1.189 1.189 0 0 1-.399.98 1.671 1.671 0 0 1-2.004 0ZM224.877 5.99c.598.844.88 1.872.799 2.903v4.29a1.254 1.254 0 0 1-.385.966 1.676 1.676 0 0 1-2.047 0 1.274 1.274 0 0 1-.37-.965V9.002a2.176 2.176 0 0 0-.342-1.35 1.278 1.278 0 0 0-1.067-.429 1.853 1.853 0 0 0-1.408.552c-.352.4-.539.92-.523 1.452v3.899a1.251 1.251 0 0 1-.377.966 1.454 1.454 0 0 1-1.017.348 1.455 1.455 0 0 1-1.031-.349 1.252 1.252 0 0 1-.384-.965V6.352a1.187 1.187 0 0 1 .399-.929 1.451 1.451 0 0 1 1.031-.356c.348-.012.687.113.944.349a1.164 1.164 0 0 1 .355.878v.262a3.254 3.254 0 0 1 1.256-1.133 3.77 3.77 0 0 1 1.735-.392 2.986 2.986 0 0 1 2.432.958ZM234.438 14.33a4.357 4.357 0 0 1-1.452-.595 1.09 1.09 0 0 1-.428-.442 1.31 1.31 0 0 1-.152-.632 1.066 1.066 0 0 1 .246-.726.736.736 0 0 1 .588-.283c.166.001.33.028.487.08l.501.196c.33.155.672.284 1.023.385.407.098.824.144 1.242.137.348.014.694-.055 1.009-.203a.633.633 0 0 0 .327-.786.575.575 0 0 0-.124-.194 1.45 1.45 0 0 0-.581-.283 14.64 14.64 0 0 0-1.357-.32 5.08 5.08 0 0 1-2.374-.943 2.172 2.172 0 0 1-.726-1.764 2.397 2.397 0 0 1 .508-1.503 3.4 3.4 0 0 1 1.401-1.045 5.086 5.086 0 0 1 2.011-.385 5.892 5.892 0 0 1 1.554.203c.478.124.935.318 1.357.574a1.151 1.151 0 0 1 .574 1.045c.006.263-.078.52-.24.726a.726.726 0 0 1-.595.298 2.175 2.175 0 0 1-1.016-.334 5.61 5.61 0 0 0-.85-.363 2.995 2.995 0 0 0-.9-.124 1.646 1.646 0 0 0-.907.218.664.664 0 0 0-.332.606.66.66 0 0 0 .39.57c.479.204.985.341 1.502.407.672.111 1.325.309 1.946.588.419.18.775.481 1.024.864a2.689 2.689 0 0 1-.77 3.412 4.865 4.865 0 0 1-2.904.784 9.128 9.128 0 0 1-1.982-.167ZM249.72 5.634a4.06 4.06 0 0 1 1.452 1.691 5.82 5.82 0 0 1 .508 2.498c.019.852-.155 1.699-.508 2.475a3.763 3.763 0 0 1-3.521 2.222 3.629 3.629 0 0 1-1.677-.385 2.799 2.799 0 0 1-1.162-1.067v3.506a1.145 1.145 0 0 1-.37.893 1.395 1.395 0 0 1-.98.334 1.547 1.547 0 0 1-1.053-.349 1.18 1.18 0 0 1-.399-.929V6.36a1.252 1.252 0 0 1 .385-.959 1.396 1.396 0 0 1 1.009-.363 1.38 1.38 0 0 1 1.002.363 1.275 1.275 0 0 1 .37.959v.145a2.86 2.86 0 0 1 1.169-1.104 3.584 3.584 0 0 1 1.706-.399 3.736 3.736 0 0 1 2.069.632Zm-1.387 6.09a2.9 2.9 0 0 0 .544-1.901 3.107 3.107 0 0 0-.544-1.96 1.8 1.8 0 0 0-1.517-.727 1.838 1.838 0 0 0-1.525.676 3.1 3.1 0 0 0-.537 1.945 3.027 3.027 0 0 0 .537 1.917 2.058 2.058 0 0 0 2.352.495c.262-.116.497-.284.69-.495v.05ZM260.435 6.004a4.082 4.082 0 0 1 .965 2.984v4.189a1.257 1.257 0 0 1-.348.958 1.343 1.343 0 0 1-.987.34 1.279 1.279 0 0 1-.951-.355 1.278 1.278 0 0 1-.363-.943v-.124c-.181.452-.508.83-.93 1.074a2.9 2.9 0 0 1-1.524.393 3.63 3.63 0 0 1-1.677-.378 2.91 2.91 0 0 1-1.191-1.038 2.647 2.647 0 0 1-.435-1.452 2.31 2.31 0 0 1 .515-1.583 3.065 3.065 0 0 1 1.641-.834c1.021-.196 2.06-.281 3.1-.255h.479v-.334a1.556 1.556 0 0 0-.341-1.132 1.536 1.536 0 0 0-1.14-.356c-.792.061-1.569.25-2.301.56a1.883 1.883 0 0 1-.726.203.818.818 0 0 1-.654-.29 1.122 1.122 0 0 1-.239-.727c-.008-.218.05-.433.167-.617a1.62 1.62 0 0 1 .537-.443 6.238 6.238 0 0 1 1.59-.559 8.536 8.536 0 0 1 1.844-.203 4.03 4.03 0 0 1 2.969.922Zm-2.178 6.033c.353-.399.533-.921.501-1.452v-.32h-.312a6.364 6.364 0 0 0-2.105.24.88.88 0 0 0-.603.878 1.104 1.104 0 0 0 .341.843 1.198 1.198 0 0 0 .864.326 1.674 1.674 0 0 0 1.285-.5l.029-.015ZM265.248 13.939a3.961 3.961 0 0 1-1.626-1.634 5.65 5.65 0 0 1 0-5.002 4.155 4.155 0 0 1 1.699-1.676 5.175 5.175 0 0 1 2.526-.596 5.63 5.63 0 0 1 1.496.203c.473.126.925.32 1.343.574a1.158 1.158 0 0 1 .573 1.045c.013.28-.066.555-.225.784a.73.73 0 0 1-.588.305 1.187 1.187 0 0 1-.457-.08 7.27 7.27 0 0 1-.567-.254 6.568 6.568 0 0 0-.726-.312 2.066 2.066 0 0 0-.726-.109 1.947 1.947 0 0 0-1.582.654 3.63 3.63 0 0 0 0 3.854 1.925 1.925 0 0 0 1.582.668c.246.008.492-.027.726-.101.251-.09.493-.2.726-.327.233-.109.421-.196.552-.247.143-.06.296-.089.45-.087a.727.727 0 0 1 .581.32c.161.234.243.514.232.798a1.09 1.09 0 0 1-.573 1.017c-.425.26-.888.453-1.372.573a6.373 6.373 0 0 1-1.634.21 5.08 5.08 0 0 1-2.41-.58ZM280.588 11.957c.154.21.235.465.232.726a1.002 1.002 0 0 1-.189.58c-.134.19-.31.347-.515.458-.462.236-.949.419-1.452.544a6.188 6.188 0 0 1-1.546.218 5.5 5.5 0 0 1-2.585-.58 3.981 3.981 0 0 1-1.698-1.641 5.076 5.076 0 0 1-.596-2.512 5.128 5.128 0 0 1 .574-2.468 4.238 4.238 0 0 1 1.597-1.685 4.498 4.498 0 0 1 2.323-.602 4.188 4.188 0 0 1 2.178.552 3.724 3.724 0 0 1 1.452 1.553c.36.736.537 1.548.515 2.367a.923.923 0 0 1-.189.624.723.723 0 0 1-.551.21h-5.198c.026.593.263 1.157.668 1.59.432.353.982.53 1.539.494.326.005.652-.04.965-.13.324-.1.642-.219.951-.356l.501-.196c.138-.048.283-.075.429-.08a.725.725 0 0 1 .595.334Zm-5.082-4.487c-.343.41-.544.919-.573 1.452h3.586a2.419 2.419 0 0 0-.494-1.452 1.548 1.548 0 0 0-1.241-.5 1.7 1.7 0 0 0-1.278.5Z" fill="#1877F2"/><path d="M138.016 101.562s-1.946-5.916-1.321-6.758c.624-.843 9.227-4.588 20.189-6.912 10.962-2.323 11.492-1.451 12.341-.82.85.632 1.88 7.332 1.859 8.712-.022 1.379-33.068 5.778-33.068 5.778Z" fill="url(#d)"/><path d="m189.966 146.419-.762 1.677-5.343 11.725-5.082 11.216c-2.534-1.779-3.318-8.269-3.202-13.213.1-2.751-.087-5.505-.559-8.218a10.893 10.893 0 0 1-3.717-3.252 19.799 19.799 0 0 1-1.502-2.33c-.327-.596-.494-.98-.494-.98-5.946.29-9.996-3.565-10.955-4.189-.958-.624-2.758-.036-4.552 3.985-1.611 3.63-5.691 5.082-6.497 5.343l-.131.044a47.872 47.872 0 0 1-.551 2.643c-1.518 6.41-3.369 7.259-3.369 7.259-.203 2.076 1.038 5.082 1.416 8.966a77.44 77.44 0 0 1 0 9.873l-5.35-3.325-10.469-6.534s-3.964-9.365-3.717-12.479c.066-.81.244-1.606.53-2.367a11.31 11.31 0 0 1 1.009-2.054c.218-.356.46-.695.726-1.016v-1.278c0-.349 0-.726.058-1.198.074-1.108.227-2.209.458-3.296.057-.286.135-.567.232-.842.168-.474.372-.936.61-1.379.219-.392.462-.77.726-1.133v-.036a.652.652 0 0 1 .058-.08.561.561 0 0 1 .058-.08l.203-.254c.249-.315.519-.613.806-.893 0 0 .232-.82.552-1.996.247-.908.544-2.026.813-3.144.631-2.57.566-3.484 2.178-4.74 1.611-1.256 2.003-2.287 2.947-3.035l.044-.036c.551-.421 1.56-1.06 2.337-1.532l1.067-.646c.002-1.144.196-2.281.574-3.361a4.27 4.27 0 0 1-.457-1.089c-.16-.486-.255-.929-.255-.929-.268.181-.529.341-.776.486-2.773 1.576-4.734 1.038-4.734 1.038-.7.296-1.43.517-2.177.661-.926.178-1.872.224-2.81.138a13.645 13.645 0 0 1-7.753-3.949l2.417-3.42 5.329-7.55a6.278 6.278 0 0 1 2.127.726c.153.091.298.192.435.305l.189.167c.181.163.333.354.45.566v.037a4.56 4.56 0 0 1 .073-.494c.057-.319.162-.627.312-.915l.087-.145c.128-.211.293-.398.487-.552.176-.14.382-.24.602-.29 0-.152 0-.305.051-.45.762-5.568 4.356-5.699 4.356-5.699.726-4.181 4.987-4.247 4.987-4.247s.9.21 2.316.414c3.042.47 6.139.453 9.176-.05a12.669 12.669 0 0 0 7.049-3.914c.279-.306.534-.634.762-.98 3.507-.813 6.215 3.63 6.215 3.63 2.011 0 3.629 1.343 4.537 2.338.314.338.603.7.864 1.081l.065-.087c.218-.278.461-.535.726-.77l.138-.115a7.281 7.281 0 0 1 1.299-.806 7.929 7.929 0 0 1 2.026-.675l4.719 9.778 1.023 2.113a7.301 7.301 0 0 1-3.869 4.726 8.754 8.754 0 0 1-.944.421 6.52 6.52 0 0 1-.726.218c-2.65.617-5.568-.567-7.259-1.452l-.059-.037h-.043l-.102-.058c-.726-.384-1.147-.675-1.147-.675.168.461.299.934.392 1.416 0 .094.037.196.051.283a16.85 16.85 0 0 1 .08 4.356c.408 1.065.683 2.177.82 3.31.147.72.042 1.468-.297 2.12v.044a1.74 1.74 0 0 1 .268-.146c.3-.133.611-.237.929-.312l.189-.043c.225-.044.487-.08.77-.109a9.915 9.915 0 0 1 4.087.602l.123.051.254.087c4.356 1.655 6.207 8.646 6.207 8.646a7.595 7.595 0 0 1 1.939 2.033 12.986 12.986 0 0 1 2.286 6.055c.523 4.087 1.046 8.297 1.046 8.297Z" fill="url(#e)"/><path d="M130.009 120.445a13.646 13.646 0 0 1-7.855-3.855l2.417-3.42a9.92 9.92 0 0 0 5.169 3.587c.787.201 1.6.275 2.41.217a11.971 11.971 0 0 1-2.141 3.471Z" fill="url(#f)"/><path d="m169.276 120.749-3.63 5.51s-3.208 5.169-9.205 4.661c-5.996-.508-11.427-5.989-15.731-3.514-4.305 2.476-6.803 8.059-6.803 8.059l2.469-.726s-4.356 2.904-5.126 4.697a.831.831 0 0 0 .124 1.038l-2.621.769c.219-.391.462-.769.726-1.132v-.036a.652.652 0 0 1 .058-.08.51.51 0 0 1 .058-.08l.203-.254c.249-.315.519-.613.806-.893 0 0 .232-.821.552-1.997.247-.907.544-2.025.813-3.143.632-2.57.566-3.485 2.178-4.741 1.611-1.255 2.003-2.286 2.947-3.034l.044-.036c.552-.421 1.561-1.06 2.337-1.532l1.068-.646a10.2 10.2 0 0 1 .573-3.361 4.27 4.27 0 0 1-.457-1.089c-.16-.487-.254-.93-.254-.93-.269.182-.53.342-.777.487-2.773 1.575-4.733 1.038-4.733 1.038-.701.296-1.431.517-2.178.661a12.719 12.719 0 0 0 1.335-3.761 5.47 5.47 0 0 0 1.503-.849 2.994 2.994 0 0 0 2.585.856c1.822-.123 5.386-1.742 5.372-3.695a12.811 12.811 0 0 0 8.849 8.675c7.267 2.258 13.895.204 16.915-.922Z" fill="url(#g)"/><path d="M143.25 158.1c-.203 2.076 1.038 5.082 1.416 8.966a77.44 77.44 0 0 1 0 9.873l-5.35-3.325c1.241-3.405-.371-8.537-.538-12.341-.203-4.69 2.65-4.886 2.65-4.886a7.914 7.914 0 0 1 2.447-8.784 16.219 16.219 0 0 1 2.758 3.23c-1.531 6.41-3.383 7.267-3.383 7.267Z" fill="url(#h)"/><path d="M172.049 138.731a18.703 18.703 0 0 0-2.25 5.256c-.327-.595-.494-.98-.494-.98-5.946.291-9.996-3.564-10.955-4.188-.958-.625-2.758-.037-4.552 3.985-1.611 3.63-5.691 5.082-6.497 5.343a31.036 31.036 0 0 0-1.662-1.974c1.408-1.394 2.577-3.376 4.508-6.447a10.509 10.509 0 0 1 7.223-5.082c2.49-.515 3.63 1.017 9.307 3.492a8.815 8.815 0 0 0 5.372.595Z" fill="url(#i)"/><path d="m183.86 159.821-5.081 11.216c-2.534-1.779-3.318-8.269-3.202-13.213.1-2.751-.087-5.505-.559-8.218a10.894 10.894 0 0 1-3.717-3.252 44.45 44.45 0 0 1 4.857-7.869c-.813 3.31.791 5.873 2.686 8.152a33.318 33.318 0 0 0 .421 9.503c.639 2.824 3.027 3.535 4.595 3.681Z" fill="url(#j)"/><path d="m189.966 146.419-.762 1.677c-1.452-1.604-2.686-4.994-3.34-9.655-.893-6.367-4.82-7.26-4.82-7.26 1.553-5.081-1.997-9.183-2.679-9.902l.254.087c4.356 1.656 6.207 8.647 6.207 8.647a7.588 7.588 0 0 1 1.938 2.032 12.987 12.987 0 0 1 2.287 6.055c.392 4.109.915 8.319.915 8.319Z" fill="url(#k)"/><path d="M141.813 98.295c.385 2.273 4.174 2.352 4.174 2.352-2.359.726-4.319.53-6.759.117-2.439-.414-4.094 3.956-3.433 4.239.66.283 1.292 1.452 1.292 1.452-1.895-.9-2.178 0-1.575 2.062.365 1.687.483 3.419.348 5.14-.37-2.106-1.757-4.951-2.642-6.628.057-.319.162-.628.312-.915l.087-.145c.128-.212.292-.399.486-.552.177-.141.383-.24.603-.29 0-.153 0-.305.051-.45.762-5.569 4.355-5.7 4.355-5.7.726-4.18 4.988-4.246 4.988-4.246s.9.21 2.316.414c-1.757-.262-4.988.885-4.603 3.15Z" fill="url(#l)"/><path d="m175.084 97.09-.087.436a7.687 7.687 0 0 0-6.077-2.229c-.443 1.982-3.855 2.33-3.855 2.33s2.65-1.451 2.309-3.143c-.341-1.691-4.697-3.23-4.697-3.23a.6.6 0 0 1-.036-.11c.279-.306.534-.633.762-.98 3.506-.812 6.214 3.63 6.214 3.63 2.011 0 3.63 1.344 4.537 2.338.315.339.603.7.864 1.082l.066-.124Z" fill="url(#m)"/><path d="M130.212 143.617c-.08.189-2.679 6.447-4.566 8.646a11.31 11.31 0 0 1 1.009-2.054c.217-.356.46-.695.726-1.016v-1.278c0-.349 0-.726.058-1.198a8.842 8.842 0 0 0 2.773-3.1Z" fill="#CEC4D6"/><path d="M177.581 108.713a19.423 19.423 0 0 0 1.938 3.245c-2.649.617-5.568-.566-7.259-1.452l-.058-.036h-.044l-.102-.058a12.585 12.585 0 0 1-1.147-.676c.168.461.299.935.392 1.416 0 .094.037.196.051.283-3.412-4.733-4.922-10.947-4.994-11.245.109.298 2.286 6.425 7.55 8.08a9.43 9.43 0 0 0 3.673.443ZM185.066 106.593a7.315 7.315 0 0 1-3.87 4.726 18.046 18.046 0 0 1-1.822-2.983 9.232 9.232 0 0 0 4.668-3.855l1.024 2.112Z" fill="#E5DFE9"/><path d="M173.16 120.793s-4.871 2.73-5.655 3.63c-.784.9-1.452 2.214-5.206 3.361-1.038.308-2.096.55-3.165.726-3.259.552-7.317.573-10.642-1.3a9.496 9.496 0 0 0-4.254-3.528 33.29 33.29 0 0 0 4.406.683h1.031c.192-.261.44-.474.726-.625.91-.163 1.836-.217 2.759-.159h.53c.776 0 1.64-.037 2.54-.117a46.337 46.337 0 0 0 2.28-.254l.53-.072c1.256-.182 2.178-.356 2.425-.37a1.91 1.91 0 0 1 1.314.493l.101.095.349-.124a92.137 92.137 0 0 0 2.112-.798l.4-.16.827-.334.29-.123c.726-.291 1.452-.618 2.178-.944l.225-.109a20.479 20.479 0 0 0 2.999-1.677v.479a2.675 2.675 0 0 1-.327 1.641v.043a1.7 1.7 0 0 1 .269-.145c.308-.135.629-.239.958-.312Z" fill="url(#n)"/><path d="M172.31 119.573c-1.197.726-5.531 3.289-9.009 4.167l-.058 1.561c0-.167-.043-1.909-3.63-1.343a55.19 55.19 0 0 1-7.419.624s1.009 4.436 6.926 3.964c-3.26.552-7.318.574-10.643-1.299a9.479 9.479 0 0 0-4.254-3.528c1.452.325 2.924.553 4.406.682h1.031c.192-.26.44-.474.726-.624.91-.164 1.836-.217 2.759-.16h.53c.777 0 1.641-.036 2.541-.116.9-.08 1.575-.16 2.279-.254l.53-.073c1.256-.181 2.178-.356 2.425-.37.485-.008.955.168 1.314.494l.102.094.348-.124a93.609 93.609 0 0 0 2.113-.798l.399-.16.827-.334.291-.123a56.87 56.87 0 0 0 2.178-.944l.225-.109a20.235 20.235 0 0 0 2.998-1.677c.051.145.058.305.065.45Z" fill="url(#o)"/><path d="M153.726 123.588v4.762l-.537-4.755.537-.007ZM159.076 123.123l-.203 4.857-.327-4.784.53-.073ZM149.058 124.394l-.276 1.996-.138-2.018.414.022ZM163.033 126.797c0-1.38-.145-2.81-.218-3.529l.102.095.348-.124a14.058 14.058 0 0 1-.232 3.558ZM165.777 122.281l-.211 2.969-.188-2.809.399-.16ZM166.895 121.824l-.145 2.178-.146-2.077.291-.101ZM169.283 120.771l-.116 1.706-.109-1.597.225-.109Z" fill="#5C479E"/><path d="M152.049 128.931c-2.476.726-5.394-5.024-10.163-4.581a15.72 15.72 0 0 0-4.661 1.379l.043-.036c.552-.421 1.561-1.06 2.338-1.532a9.32 9.32 0 0 1 4.174-.508c3.449.196 5.837 4.98 8.269 5.278ZM178.234 121.236c-6.737-.842-13.11 5.88-13.11 5.88 2.773-3.586 5.219-5.191 6.86-5.902l.239-.102a8.64 8.64 0 0 1 1.118-.355c.252-.065.51-.101.77-.109a9.894 9.894 0 0 1 4.123.588ZM136.375 134.739a17.772 17.772 0 0 0-6.882 5.328 9.595 9.595 0 0 1 1.191-1.386s.232-.821.551-1.997a26.32 26.32 0 0 1 5.14-1.945ZM128.804 146.463a13.479 13.479 0 0 1-2.178 3.746 8.56 8.56 0 0 1 .726-1.016v-1.278a4.766 4.766 0 0 0 1.452-1.452Z" fill="#ACA5B5"/><path d="M175.831 96.32c-.254.24-2.417 2.418-1.756 8.952 0 0-1.38-4.893.08-9.176.314.338.603.7.863 1.081.239-.314.512-.601.813-.856Z" fill="#C0B8CC"/><path d="M133.13 107.457a4.795 4.795 0 0 0-.639-.726c.261.195.479.443.639.726ZM135.86 113.62c-1.045-3.368-2.011-5.176-2.715-6.134.034-.49.165-.969.385-1.408a25.468 25.468 0 0 1 2.33 7.542ZM137.065 106.078a3.022 3.022 0 0 0-2.962-.726 1.51 1.51 0 0 1 .603-.291c0-.152 0-.305.05-.45a3.63 3.63 0 0 1 2.309 1.467ZM143.693 115.864a28.477 28.477 0 0 1-2.904 3.208 10.336 10.336 0 0 1-.254-.929c-.276.16 3.158-2.279 3.158-2.279ZM170.938 109.737c.168.46.299.934.392 1.415a10.839 10.839 0 0 1-2.069-3.767 7.434 7.434 0 0 0 2.824 3.027c-.718-.356-1.147-.675-1.147-.675Z" fill="#ACA5B5"/><path d="m147.025 118.397 1.089 1.619c-1.742 1.38-4.827 3.194-6.533 3.427-1.706.232-2.759-.044-2.948-1.06-.138-.777 1.242-2.105 1.902-2.701.211-.189.356-.297.356-.297l.348.726s-2.018 2.076-.66 2.323h.138c1.626.13 6.25-4.225 6.25-4.225" fill="#34254C"/><path d="M140.579 122.463s-1.242.101-1.191-.821c.216-.737.61-1.41 1.147-1.96a6.17 6.17 0 0 1 .356-.297l.348.726s-2.018 2.105-.66 2.352Z" fill="#51347F"/><path d="M175.098 116.749a5.075 5.075 0 0 1-1.749 1.452c-2.178 1.227-6.643.218-6.643.218l-.501-2.374a12.258 12.258 0 0 0 5.713 1.336 5.365 5.365 0 0 0 1.525-.298c.98-.363 1.161-.965.886-1.357-.385-.552-2.846-.116-2.846-.116l.058-1.99c.736.044 1.465.16 2.178.349.529.102 1.01.378 1.365.784a1.673 1.673 0 0 1 .014 1.996Z" fill="#34254C"/><path d="M175.098 116.749a2.41 2.41 0 0 1-1.655.313c1.866-.559.726-2.432.254-3.115a2.43 2.43 0 0 1 1.365.784 1.671 1.671 0 0 1 .036 2.018Z" fill="#51347F"/><path d="M142.749 92.814s-3.383 1.518-2.983 9.06c.399 7.543 6.635 11.485 6.635 11.485l.109 1.597s-4.813-1.503-7.521-7.63-.595-13.735 3.63-15.281l.13.77Z" fill="url(#p)"/><path d="M163.243 87.653s4.356 1.655 6.251 7.608c1.895 5.953-1.496 10.083-4.871 12.726l1.089 2.563s5.953-3.63 6.533-9.968c.581-6.337-3.818-12.247-8.225-14.7l-.777 1.77Z" fill="url(#q)"/><path d="M166.895 119.421c0 .341-3.02.864-4.182 1.074a127.883 127.883 0 0 1-14.374 1.793.385.385 0 0 1-.392-.261 67.828 67.828 0 0 1-2.562-11.71 79.287 79.287 0 0 1-.363-3.564.793.793 0 0 1 .566-.82 69.248 69.248 0 0 1 18.875-2.803.799.799 0 0 1 .777.617c1.023 4.574 1.822 13.14 1.655 15.674Z" fill="url(#r)"/><path d="M166.706 118.397c0 .349-3.013.864-4.174 1.082a130.09 130.09 0 0 1-14.374 1.793.387.387 0 0 1-.392-.268 66.374 66.374 0 0 1-2.548-11.674 73.28 73.28 0 0 1-.371-3.564.783.783 0 0 1 .574-.821 69.525 69.525 0 0 1 18.875-2.809.788.788 0 0 1 .769.624c1.017 4.537 1.815 13.104 1.641 15.637Z" fill="url(#s)"/><path d="M162.532 119.493c-4.69.857-9.423 1.45-14.178 1.779a.626.626 0 0 1-.646-.443 66.923 66.923 0 0 1-2.49-11.499c2.49 4.276 7.971 11.129 17.314 10.163Z" fill="url(#t)"/><path d="M147.562 108.118s1.031 6.7 2.091 10.526l1.365-.203s-1.147-6.694-1.452-10.803l-2.004.48Z" fill="url(#u)"/><path d="M153.073 106.934s.958 7.26 1.887 10.774l1.59-.218s-1.154-6.81-1.452-10.89l-2.025.334Z" fill="url(#v)"/><path d="M150.648 108.364s.283 2.505.631 4.204l1.365-.211-.631-4.203c-.46.035-.916.105-1.365.21Z" fill="url(#w)"/><path d="M162.205 107.878a1.203 1.203 0 0 1-1.993.994 1.21 1.21 0 0 1-.352-1.293 1.205 1.205 0 0 1 2.345.299Z" fill="url(#x)"/><path d="M163.011 112.96a1.197 1.197 0 1 1-1.285-1.118 1.203 1.203 0 0 1 1.285 1.118Z" fill="url(#y)"/><path d="M165.443 98.121a2.456 2.456 0 0 1-1.364 2.366 2.464 2.464 0 0 1-3.466-1.557 2.465 2.465 0 0 1 .863-2.591 2.463 2.463 0 0 1 1.332-.512 2.47 2.47 0 0 1 2.635 2.294Z" fill="url(#z)"/><path d="M144.448 104.248c1.118-.254 3.855-.806 6.839-1.452a.721.721 0 0 0 .614-.649.723.723 0 0 0-.041-.316l-.566-1.88a.578.578 0 0 0-.661-.458c-1.35.225-4.842.458-6.998 1.176-.269.087-.559.153-.399 1.031.125.738.302 1.465.53 2.178a.57.57 0 0 0 .682.37Z" fill="url(#A)"/><path d="M142.75 92.814c.276.955.674 1.87 1.183 2.723 0 0 11.731 5.394 20.864-5.329a14.503 14.503 0 0 0-1.387-3.572s-5.502 9.024-20.66 6.178Z" fill="url(#B)"/><path d="M138.292 82.012s-2.316 1.307-2.65 1.561c-.726.537 2.076 8.356 3.1 8.392a13.952 13.952 0 0 0 2.7-.726l-3.15-9.227Z" fill="url(#C)"/><path d="M137.537 84.357a.463.463 0 0 1-.113.332.46.46 0 0 1-.315.154.442.442 0 0 1-.487-.42.46.46 0 0 1 .758-.38.46.46 0 0 1 .157.314Z" fill="#C8B8D3"/><path d="M161.857 74.484s2.635-.341 3.049-.341c.9 0 3.339 7.942 2.533 8.588-.83.429-1.7.774-2.599 1.03l-2.983-9.277Z" fill="url(#D)"/><path d="M163.86 75.936a.458.458 0 1 0 .138-.632.468.468 0 0 0-.138.632Z" fill="#C8B8D3"/><path d="m144.31 71.086-.283-.943a10.672 10.672 0 0 1 6.534-2.048l.544 1.227-6.795 1.764Z" fill="url(#E)"/><path d="m165.138 85.228-5.742 1.851-17.278 5.554c-6.694-7.26-5.082-19.042 3.731-22.635.414-.167.82-.313 1.227-.436 9.721-3.064 18.846 4.603 18.062 15.666Z" fill="url(#F)"/><path d="m159.396 87.08-17.278 5.553c-6.694-7.26-5.082-19.042 3.731-22.636.414-.166.82-.312 1.227-.435-5.917 2.454-6.439 6.417-1.154 4.791a17.799 17.799 0 0 1 9.074-.595l4.4 13.321Z" fill="url(#G)"/><path d="M165.138 85.228a14.175 14.175 0 0 1-10.389 9.205c-8.363 1.946-12.631-1.778-12.631-1.778l23.02-7.427Z" fill="url(#H)"/><path d="M165.138 85.228a17.575 17.575 0 0 1-4.995 5.082c-3.702 2.534-9.582 4.632-18.025 2.345-3.674-6.904-1.547-13.88 3.629-17.206.396-.251.805-.479 1.227-.682 6.396-3.129 16.03-.639 18.164 10.461Z" fill="url(#I)"/><path d="M160.143 90.31c-3.702 2.534-9.582 4.632-18.025 2.345-3.674-6.904-1.547-13.88 3.629-17.206-.66 1.627-1.531 4.9-.805 9.895 1.081 7.5 6.272 9.743 15.187 4.966h.014Z" fill="url(#J)"/><path d="M150.532 74.752s7.158-1.226 11.151 5.358a1.17 1.17 0 0 1-.765 1.753 1.166 1.166 0 0 1-1.246-.57 13.534 13.534 0 0 0-9.14-6.54Z" fill="url(#K)"/><path d="M162.866 83.195a.908.908 0 0 1 .09.697.918.918 0 0 1-1.124.646.913.913 0 0 1-.556-.428.92.92 0 0 1 .338-1.252.916.916 0 0 1 1.252.337Z" fill="url(#L)"/><path d="M177.646 136.648a13.497 13.497 0 0 1-1.488 1.8 44.424 44.424 0 0 0-4.857 7.906 19.672 19.672 0 0 1-1.502-2.33 18.69 18.69 0 0 1 2.25-5.256 20.927 20.927 0 0 0 5.597-2.12Z" fill="#2D2244"/><path d="M186.764 132.053a16.848 16.848 0 0 0-10.606 6.395 9.856 9.856 0 0 0 1.278-1.56 21.706 21.706 0 0 1-5.387 1.843 21.554 21.554 0 0 1 2.178-2.94c3.935-4.515 10.621-5.771 10.621-5.771a7.57 7.57 0 0 1 1.916 2.033Z" fill="url(#M)"/><path d="m147.301 148.147-.131.044a46.732 46.732 0 0 1-.551 2.642 16.223 16.223 0 0 0-2.759-3.23c.16-.138.327-.254.487-.371.464-.31.896-.665 1.292-1.059a31.036 31.036 0 0 1 1.662 1.974Z" fill="#2D2244"/><path d="M145.639 146.173a8.646 8.646 0 0 1-1.292 1.06c-.16.116-.327.232-.487.37a23.759 23.759 0 0 0-4.53-3.238 15.546 15.546 0 0 0-11.187-1.786c.168-.474.372-.935.61-1.379.219-.392.462-.77.726-1.133v-.036a.652.652 0 0 1 .058-.08.561.561 0 0 1 .058-.08l.203-.254c.4-.058.864-.116 1.38-.145 2.52-.206 5.052.218 7.368 1.234a23.472 23.472 0 0 1 7.093 5.467Z" fill="url(#N)"/><path d="M181.196 111.319a8.754 8.754 0 0 1-.944.421 6.52 6.52 0 0 1-.726.218 19.423 19.423 0 0 1-1.938-3.245 7.576 7.576 0 0 0 1.793-.378 18.017 18.017 0 0 0 1.815 2.984Z" fill="#2D2244"/><path d="M179.374 108.335a7.576 7.576 0 0 1-1.793.378 21.376 21.376 0 0 1-1.583-12.53c.404-.314.84-.584 1.3-.806a22.826 22.826 0 0 0 1.212 10.977c.269.726.574 1.386.864 1.981Z" fill="url(#O)"/><path d="M134.154 116.546a12.693 12.693 0 0 1-1.336 3.761c-.925.177-1.871.224-2.809.137a11.956 11.956 0 0 0 2.178-3.441 7.041 7.041 0 0 0 1.967-.457Z" fill="#2D2244"/><path d="M134.154 116.546a7.04 7.04 0 0 1-1.982.458c1.677-4.095.915-8.429.508-10.113.181.162.333.354.45.566v.036c.035-.49.165-.968.385-1.408l.087-.145c1.14 4.646 1.046 8.131.552 10.606Z" fill="url(#P)"/><path d="M144.528 103.762c1.125-.254 3.986-.908 6.839-1.452a.581.581 0 0 0 .457-.69l-.443-2.178a.587.587 0 0 0-.668-.457c-2.368.37-4.711.89-7.013 1.561a.582.582 0 0 0-.384.646c.125.737.302 1.465.53 2.178a.57.57 0 0 0 .682.392Z" fill="url(#Q)"/><path d="M126.263 115.864a9.162 9.162 0 0 1-3.267.631 8.703 8.703 0 0 1-3.862-.835 1.105 1.105 0 0 1-.45.407c-.914.398-1.93.5-2.904.29-2.904-.377-3.92-1.916-3.884-3.063a.938.938 0 0 1 .493-.726 6.435 6.435 0 0 1 2.621-.596c.799-.05 1.017-.297.632-.842l-.066-.08c-.486-.471-2.083-.493-2.99-.972a3.287 3.287 0 0 1-1.452-2.999c0-.624.573-.98 1.328-1.096a4.75 4.75 0 0 1 2.526.371c1.539.725 2.091.428 2.178-.378.037-.573-1.147-1.35-2.228-2.091-.443-.312-.872-.61-1.191-.885-1.096-.959-.428-2.955 1.496-3.318.186-.037.379-.037.566 0 1.51.29 2.178 2.904 3.049 2.512.871-.392.254-1.285-1.104-2.679-.174-.189-.363-.385-.537-.603-1.183-1.4-2.214-3.31-.886-4.297a1.367 1.367 0 0 1 1.104-.21c1.684.304 4.08 2.838 5.481 5.959.337.791.743 1.552 1.212 2.273.53.726.777.653.871.537a.244.244 0 0 0 .059-.087c.363-.545.588-4 .784-6.193 0-.356.072-.726.123-1.03.269-1.692.835-2.97 1.88-3.238.166-.044.337-.068.508-.073.908 0 1.387.726 1.605 2.454.048.414.06.832.036 1.248-.094 1.452-.588 2.81-.566 4.523.036 2.178 1.343 4.501 1.764 7.34.421 2.838-1.053 6.236-4.929 7.746Z" fill="url(#R)"/><path d="M119.504 97.635c-.145 1.234-1.452 1.328-2.359 1.248a8.016 8.016 0 0 1-.385-.471c-.995-1.329-1.684-2.94-.501-3.826a1.363 1.363 0 0 1 1.103-.21c.363.442 1.097 1.008 1.612 1.683.378.435.569 1.001.53 1.576Z" fill="url(#S)"/><path d="M117.181 102.274a2.033 2.033 0 0 1-2.316 1.582c-.37-.261-.726-.515-1.031-.726l-.159-.13c-1.096-.959-.429-2.955 1.495-3.318.187-.037.38-.037.566 0 .42.446.795.932 1.118 1.452.249.325.366.732.327 1.14Z" fill="url(#T)"/><path d="M116.179 111.058a1.853 1.853 0 0 1-.639 0l-1.067-.262a8.783 8.783 0 0 1-1.924-.726 3.283 3.283 0 0 1-1.452-2.998c0-.624.574-.98 1.329-1.096a8.254 8.254 0 0 0 2.134 1.452c.211.08.436.167.654.269.885.399 1.749.965 1.88 1.51.145.631.102 1.669-.915 1.851Z" fill="url(#U)"/><path d="M118.684 116.082a4.353 4.353 0 0 1-2.534.333l-.406-.043c-2.904-.378-3.92-1.917-3.884-3.064a.94.94 0 0 1 .493-.726c.066 0 1.227-.457 3.971.726l.24.102c2.635 1.053 3.274 1.837 2.12 2.672Z" fill="url(#V)"/><path d="M123.09 110.644c-.072-.145-2.257-4.356.966-8.036.53.726.777.653.871.537l.073.145s-3.028 4.334-1.91 7.354Z" fill="url(#W)"/><path d="M126.263 115.864a9.162 9.162 0 0 1-3.267.631c7.034-1.604 6.149-8.189 5.307-10.236a12.702 12.702 0 0 1 .065-9.067c.929-2.512.312-4.044-.087-4.682.907 0 1.386.725 1.604 2.453.048.415.06.833.037 1.249-.095 1.452-.589 2.81-.567 4.523.037 2.178 1.343 4.501 1.764 7.339.421 2.839-.98 6.28-4.856 7.79Z" fill="url(#X)"/><path d="M129.922 96.263a4.067 4.067 0 0 1-4.029-.392c.268-1.692.834-2.97 1.88-3.238 1.234-.312 1.858.334 2.112 2.381.048.415.06.832.037 1.249Z" fill="url(#Y)"/><path d="M119.504 97.635c-.145 1.234-2.454 1.837-2.744.776.232-2.272 1.525-2.439 2.214-2.352.378.435.569 1.001.53 1.576Z" fill="url(#Z)"/><path d="M117.181 102.274c-.051 1.829-2.664 2.069-3.347.827a1.878 1.878 0 0 1 .298-1.887c1.132-1.452 2.657-.182 2.722-.131.222.357.335.771.327 1.191Z" fill="url(#aa)"/><path d="M116.179 111.058a1.853 1.853 0 0 1-.639 0l-1.067-.262a3.082 3.082 0 0 1 .726-3.107c.886.4 1.75.966 1.88 1.51.16.639.116 1.677-.9 1.859Z" fill="url(#ab)"/><path d="M118.684 116.081a4.346 4.346 0 0 1-2.534.334 2.436 2.436 0 0 1-.305-1.887c.104-.468.359-.889.726-1.198 2.628 1.133 3.267 1.917 2.113 2.751Z" fill="url(#ac)"/><path d="M183.795 107.951a9.153 9.153 0 0 0 3.325 0 8.8 8.8 0 0 0 3.63-1.539c.138.151.317.259.515.312a4.765 4.765 0 0 0 2.904-.269c2.773-.907 3.492-2.606 3.245-3.731a.93.93 0 0 0-.624-.654 6.34 6.34 0 0 0-2.686-.101c-.799.094-1.053-.102-.777-.726a.472.472 0 0 1 .051-.087c.385-.559 1.953-.871 2.751-1.518a3.282 3.282 0 0 0 .886-3.216c-.131-.61-.726-.856-1.503-.827a4.768 4.768 0 0 0-2.417.835c-1.38.972-1.975.813-2.178 0-.153-.56.871-1.54 1.793-2.476.357-.343.694-.707 1.009-1.089.9-1.147-.123-2.983-2.083-2.976a1.502 1.502 0 0 0-.559.102c-1.452.566-1.576 3.223-2.527 3.034-1.067-.225-.493-1.212.581-2.839.138-.217.283-.442.421-.726.9-1.597 1.561-3.63.073-4.355a1.38 1.38 0 0 0-1.126 0c-1.597.617-3.484 3.55-4.283 6.875-.18.842-.437 1.666-.769 2.46-.378.835-.639.785-.726.727a.216.216 0 0 1-.066-.073c-.464-.465-1.321-3.819-1.923-5.938a15.332 15.332 0 0 0-.312-.988c-.588-1.619-1.38-2.773-2.447-2.838a2.985 2.985 0 0 0-.523 0c-.893.152-1.227.958-1.118 2.715.03.414.095.824.196 1.227.371 1.452 1.104 2.657 1.394 4.355.378 2.178-.479 4.669-.363 7.536.116 2.868 2.113 5.989 6.236 6.788Z" fill="url(#ad)"/><path d="M187.04 88.77c.371 1.184 1.706 1.024 2.556.785.101-.174.196-.349.283-.537.726-1.496 1.111-3.202-.211-3.848a1.376 1.376 0 0 0-1.125 0c-.276.508-.893 1.198-1.27 1.953a2.222 2.222 0 0 0-.233 1.648Z" fill="url(#ae)"/><path d="M190.184 92.887a2.023 2.023 0 0 0 2.57 1.125c.319-.32.631-.639.871-.93.05-.05.094-.108.138-.159.9-1.147-.124-2.984-2.084-2.976a1.502 1.502 0 0 0-.559.101 9.13 9.13 0 0 0-.835 1.612c-.192.38-.228.82-.101 1.227Z" fill="url(#af)"/><path d="M192.804 101.345c.215-.019.426-.07.625-.153l.994-.457a8.452 8.452 0 0 0 1.757-1.06 3.28 3.28 0 0 0 .886-3.216c-.131-.61-.726-.857-1.503-.828a8.644 8.644 0 0 1-1.837 1.8 6.99 6.99 0 0 0-.588.385c-.798.56-1.546 1.278-1.568 1.837-.036.682.204 1.692 1.234 1.692Z" fill="url(#ag)"/><path d="M191.28 106.738c.844.21 1.733.16 2.548-.145.123 0 .254-.072.392-.123 2.773-.908 3.492-2.606 3.245-3.732a.941.941 0 0 0-.624-.653c-.073 0-1.292-.225-3.775 1.416l-.218.145c-2.381 1.597-2.86 2.49-1.568 3.092Z" fill="url(#ah)"/><path d="M185.937 102.216c.051-.153 1.408-4.712-2.447-7.717-.377.835-.639.784-.726.726l-.043.152s3.753 3.659 3.216 6.839Z" fill="url(#ai)"/><path d="M183.795 107.951a9.153 9.153 0 0 0 3.325 0c-7.209-.269-7.557-6.911-7.114-9.075a12.72 12.72 0 0 0-1.757-8.9c-1.372-2.294-1.053-3.913-.784-4.617-.893.152-1.227.958-1.118 2.715.029.414.095.824.196 1.227.37 1.452 1.103 2.657 1.394 4.355.377 2.178-.48 4.668-.363 7.536.116 2.868 2.098 5.96 6.221 6.759Z" fill="url(#aj)"/><path d="M176.543 89.315a4.071 4.071 0 0 0 3.891-1.125c-.588-1.619-1.379-2.773-2.446-2.838-1.278-.073-1.772.675-1.641 2.736.029.414.095.825.196 1.227Z" fill="url(#ak)"/><path d="M187.04 88.77c.37 1.184 2.752 1.344 2.839.248-.654-2.178-1.946-2.113-2.607-1.902a2.226 2.226 0 0 0-.232 1.655Z" fill="url(#al)"/><path d="M190.184 92.887c.392 1.793 3.013 1.546 3.441.196a1.863 1.863 0 0 0-.632-1.8c-1.386-1.184-2.657.319-2.708.377-.151.39-.186.817-.101 1.227Z" fill="url(#am)"/><path d="M192.804 101.344c.215-.018.426-.07.625-.152l.994-.457a3.081 3.081 0 0 0-1.285-2.904c-.798.559-1.546 1.277-1.568 1.836-.036.668.204 1.677 1.234 1.677Z" fill="url(#an)"/><path d="M191.28 106.738c.844.21 1.733.16 2.548-.145a2.443 2.443 0 0 0-.051-1.909 2.108 2.108 0 0 0-.936-1.038c-2.374 1.597-2.853 2.49-1.561 3.092Z" fill="url(#ao)"/><path d="M177.813 171.443s-1.001-3.303-.776-5.038c.225-1.735 10.163-25.938 23.136-25.902l-22.36 30.94Z" fill="#ACA5B5"/><path d="M180.877 179.806s-2.904-2.315-3.165-9.938c-.262-7.623 15.245-34.12 24.682-28.603l-21.517 38.541Z" fill="url(#ap)"/><path d="M204.841 150.768v.951a46.942 46.942 0 0 1-.479 5.118c-.044.305-.087.61-.145.915a54.372 54.372 0 0 1-1.039 4.951c-.072.29-.152.588-.232.885a60.758 60.758 0 0 1-1.938 5.873c-.109.283-.218.567-.334.857a59.623 59.623 0 0 1-2.352 5.147 40.81 40.81 0 0 1-.429.828c-.791 1.452-1.655 2.976-2.606 4.464l-.239.371-.588.326c-6.875 3.63-15.159-1.081-15.188-4.53v-.08c.024-.309.065-.617.124-.922.196-1.096.617-2.824 1.205-4.9.087-.283.167-.581.261-.878a120.672 120.672 0 0 1 1.699-5.343c.102-.291.203-.574.298-.864.682-1.939 1.452-3.906 2.214-5.808l.356-.849c.726-1.641 1.452-3.202 2.178-4.596.145-.276.297-.551.45-.82.152-.269.37-.624.551-.922a38.088 38.088 0 0 1 2.389-3.441l.617-.77a23.005 23.005 0 0 1 4.726-4.421c.356-.232.726-.45 1.06-.631 1.88-1.024 3.63-1.292 4.98-.726.675.268 1.278 1.248 1.72 2.788.095.326.175.667.254 1.038.373 1.973.536 3.981.487 5.989Z" fill="url(#aq)"/><path d="m204.354 144.75-7.985-2.454c.356-.232.726-.45 1.06-.632l6.7 2.048c.059.326.146.667.225 1.038ZM204.841 150.768v.951l-13.793-4.232.617-.77 13.176 4.051ZM204.34 156.837c-.044.305-.087.61-.145.915l-16.589-5.082c.146-.276.298-.552.451-.82l16.283 4.987ZM203.157 162.703c-.073.29-.153.588-.233.885l-17.873-5.473.356-.85 17.75 5.438ZM200.986 169.461c-.109.283-.218.567-.334.857l-18.113-5.546c.102-.291.204-.574.298-.864l18.149 5.553ZM198.3 175.465a40.81 40.81 0 0 1-.429.828l-17.292-5.3c.087-.283.167-.581.261-.878l17.46 5.35ZM195.265 180.757l-.239.371-.588.326-15.187-4.61c.023-.309.065-.617.123-.922l15.891 4.835Z" fill="#988CA5"/><path d="M146.328 177.839s-1.292-3.201-2.562-4.407c-1.271-1.205-24.204-13.793-34.273-5.626l36.835 10.033Z" fill="#ACA5B5"/><path d="M149.196 186.282s.799-3.63-3.775-9.721-33.322-16.994-37.184-6.737l40.959 16.458Z" fill="url(#ar)"/><path d="M112.31 178.725c.196.239.399.486.617.726a46.924 46.924 0 0 0 3.586 3.688l.683.624a57.641 57.641 0 0 0 3.92 3.194l.726.537a59.228 59.228 0 0 0 5.198 3.354l.798.458a62.317 62.317 0 0 0 5.082 2.526l.857.377a62.844 62.844 0 0 0 4.834 1.837l.414.138c.225 0 .443-.065.661-.109 7.63-1.495 11.114-10.359 8.973-13.067l-.073-.087a7.623 7.623 0 0 0-.675-.646c-.842-.726-2.251-1.808-4.015-3.049l-.726-.523a121.863 121.863 0 0 0-4.682-3.085 27.536 27.536 0 0 0-.777-.487 106.793 106.793 0 0 0-5.357-3.114 22.258 22.258 0 0 0-.813-.436c-1.583-.835-3.137-1.59-4.596-2.178l-.864-.355-1.009-.371a38.976 38.976 0 0 0-4.022-1.176c-.326-.08-.653-.145-.965-.21a22.68 22.68 0 0 0-6.454-.472c-.428.043-.835.094-1.22.167-2.105.392-3.629 1.27-4.355 2.563-.356.631-.211 1.771.413 3.245.131.312.284.631.458.965a27.95 27.95 0 0 0 3.383 4.966Z" fill="url(#as)"/><path d="m108.912 173.737 4.69-6.94c-.428.044-.835.094-1.22.167l-3.927 5.808c.131.312.283.631.457.965ZM112.31 178.725c.196.239.399.486.617.726l8.094-11.971c-.326-.08-.653-.146-.965-.211l-7.746 11.456ZM116.513 183.139l.683.624 9.72-14.381-.864-.356-9.539 14.113ZM121.116 186.957l.726.537 10.475-15.477a20.722 20.722 0 0 0-.813-.436l-10.388 15.376ZM127.054 190.848l.799.458 10.606-15.688c-.254-.167-.516-.327-.777-.487l-10.628 15.717ZM132.913 193.832l.856.378 10.164-14.984-.726-.523-10.294 15.129ZM138.604 196.046l.414.138c.225 0 .443-.065.66-.109l8.901-13.154a7.623 7.623 0 0 0-.675-.646l-9.3 13.771Z" fill="#988CA5"/><path style="mix-blend-mode:overlay" d="M204.354 144.75c-.079-.37-.159-.726-.254-1.038-.442-1.539-1.045-2.519-1.72-2.788a4.09 4.09 0 0 0-1.532-.276 5.913 5.913 0 0 0-.726-.109v-.036h-.457a6.834 6.834 0 0 0-1.844.239c-2.904.618-5.583 2.367-8.029 4.676A352.259 352.259 0 0 1 189 138.1a12.978 12.978 0 0 0-2.236-6.047 7.577 7.577 0 0 0-1.938-2.033s-1.851-6.991-6.207-8.646l-.254-.087-.123-.051a9.918 9.918 0 0 0-4.088-.603 3.574 3.574 0 0 0-.769.109l-.189.044a5.15 5.15 0 0 0-.929.312l-.24.102V121.004c0-.102.066-.225.095-.371V120.06a.749.749 0 0 0 0-.116v-.857c0-.094-.037-.319-.066-.501a4.439 4.439 0 0 0 1.133-.414 5.087 5.087 0 0 0 1.75-1.452 1.67 1.67 0 0 0-.037-2.018 2.426 2.426 0 0 0-1.365-.784 10.786 10.786 0 0 0-2.134-.348 14.567 14.567 0 0 0-.181-2.178c0-.087 0-.189-.051-.283a9.254 9.254 0 0 0-.392-1.416s.428.29 1.147.675l.101.058h.044l.058.037c1.663.864 4.581 2.047 7.26 1.452.246-.059.488-.132.726-.218.322-.122.637-.263.943-.421a7.507 7.507 0 0 0 3.318-3.267 9.253 9.253 0 0 0 2.606-.087 8.8 8.8 0 0 0 3.63-1.539c.139.151.317.259.515.312H192.383l.407-.051.218-.036h.051l.181-.044h.065l.175-.043h.312l.268-.087c2.774-.908 3.492-2.607 3.245-3.732a.93.93 0 0 0-.624-.653 6.324 6.324 0 0 0-2.686-.102c-.799.094-1.053-.102-.777-.726a.508.508 0 0 1 .051-.087l.995-.457a8.467 8.467 0 0 0 1.756-1.06 3.283 3.283 0 0 0 .886-3.216c-.131-.61-.726-.857-1.503-.828a4.772 4.772 0 0 0-2.417.835c-1.379.973-1.975.813-2.178 0-.152-.559.871-1.539 1.793-2.475l.066-.059a1.518 1.518 0 0 0 .805-.87c.045-.046.087-.094.124-.146.9-1.147-.124-2.984-2.084-2.976a1.502 1.502 0 0 0-.559.101c-1.452.566-1.575 3.224-2.526 3.035-1.067-.225-.494-1.213.581-2.839.138-.218.283-.443.421-.726l.036-.065a.685.685 0 0 0 .247-.472.937.937 0 0 1 .058-.123c0-.037.036-.073.051-.117l.051-.116c.05-.116.094-.232.137-.355v-.588a.221.221 0 0 0 0-.073v-.37a.95.95 0 0 1 0-.13v-.219a.221.221 0 0 0 0-.072v-.269l.001-.13-.001-.066a.18.18 0 0 0 0-.065v-.254l-.036-.087a.142.142 0 0 0 0-.059.216.216 0 0 0 0-.05v-.058l-.036-.051-.036-.051v-.05l-.044-.044-.044-.044a.17.17 0 0 0-.05-.05l-.044-.037a.192.192 0 0 0-.058-.05l-.044-.037-.072-.044h-.044l-.123-.065a1.38 1.38 0 0 0-1.125 0c-1.597.617-3.485 3.55-4.284 6.875a13.95 13.95 0 0 1-.769 2.46c-.378.836-.639.785-.726.727a.203.203 0 0 1-.065-.073c-.465-.465-1.322-3.818-1.924-5.938a14.14 14.14 0 0 0-.312-.987c-.588-1.62-1.38-2.774-2.447-2.84h-.668l-.123.044-.102.051-.101.073-.095.08-.072.087a.949.949 0 0 0-.131.232c0 .051-.036.095-.051.145l-.036.146v.043c0 .044 0 .116-.036.174v1.401c.029.414.095.825.196 1.227.37 1.452 1.103 2.657 1.393 4.356.076.463.108.932.095 1.401a7.592 7.592 0 0 0-.726.312c-.46.222-.896.493-1.3.806l-.138.116-.203.19-.065.064-.131.124-.101.109-.088.094a1.226 1.226 0 0 0-.116.145l-.043.044-.066.087a9.189 9.189 0 0 0-.864-1.082 7.66 7.66 0 0 0-2.961-2.054c-.117-.29-.247-.566-.378-.85-.363-2.453-1.024-5.691-1.597-6.12-.574-.428-.966-.921-4.211-.595l-.275-.181c.158-.347.294-.703.406-1.067a18.92 18.92 0 0 0 .044-1.554c.783-.226 1.54-.535 2.257-.922.806-.646-1.633-8.58-2.533-8.588-.32 0-1.953.203-2.686.29a13.369 13.369 0 0 0-11.318-5.546l-.363-.813a10.672 10.672 0 0 0-6.534 2.047l.204.675a12.938 12.938 0 0 0-6.236 11.362c-.632.363-2.091 1.198-2.353 1.394-.726.537 2.077 8.355 3.1 8.392.79-.11 1.564-.31 2.309-.596.247.327.494.64.769.951-2.969 1.147-4.842 2.098-5.125 2.483-.385.516.203 2.962.726 4.762-1.038.69-2.243 2.113-2.65 5.082 0 .145-.036.298-.051.45-.22.051-.426.15-.602.291-.194.153-.359.34-.486.551l-.088.146-.087.174v.043l-.065.167-.065.218v.044l-.044.21v.044c0 .058 0 .116-.036.174a.142.142 0 0 1 0 .058v.247V107.174l-.044-.058a1.065 1.065 0 0 1-.072-.094l-.066-.073-.065-.058-.058-.051-.116-.102a3.468 3.468 0 0 0-.436-.304 5.938 5.938 0 0 0-1.452-.61c-.544-1.851-1.219-3.485-1.248-5.082 0-1.713.471-3.042.566-4.523a7.337 7.337 0 0 0-.036-1.248l-.044-.284v-.05l-.044-.247v-.058c0-.073 0-.153-.05-.225a1.532 1.532 0 0 0-.051-.189v-.044c0-.065-.044-.13-.058-.188v-.044l-.066-.167v-.036l-.065-.138-.073-.13c0-.037-.058-.08-.087-.11l-.087-.094-.087-.073-.102-.065-.116-.05H128.339c-1.045.268-1.612 1.546-1.88 3.237a14.7 14.7 0 0 0-.124 1.03c-.196 2.179-.421 5.649-.784 6.193a.29.29 0 0 1-.05.087c-.102.117-.349.211-.879-.537a14.821 14.821 0 0 1-1.212-2.272c-1.401-3.122-3.797-5.655-5.481-5.96a1.368 1.368 0 0 0-1.104.21.483.483 0 0 0-.109.095h-.043l-.058.065v.044a.322.322 0 0 0-.051.05l-.036.051-.044.058a.43.43 0 0 0 0 .051l-.036.05a.282.282 0 0 1 0 .059V95.464a.145.145 0 0 1 0 .051v.298a.238.238 0 0 1 0 .065v.254a.18.18 0 0 0 0 .066.294.294 0 0 0 0 .072v.269a.18.18 0 0 0 0 .065V96.749a.873.873 0 0 0 .036.124v.065a.294.294 0 0 0 0 .072v.073l.036.066a.221.221 0 0 0 0 .072v.073l.037.072v.066l.036.072a.317.317 0 0 0 .036.066l.037.072a.32.32 0 0 1 .036.066l.043.08v.05c.066.109.131.218.204.32l.072.101.073.102.073.109a.67.67 0 0 0 .333.413.206.206 0 0 0 .051.059c.175.217.363.413.537.602 1.358 1.394 2.106 2.265 1.104 2.679-1.002.414-1.539-2.221-3.049-2.512a1.453 1.453 0 0 0-.566 0c-1.924.363-2.592 2.36-1.496 3.318l.145.123a1.52 1.52 0 0 0 .959.726l.072.051c1.082.726 2.265 1.517 2.229 2.091-.065.806-.617 1.074-2.178.377a4.76 4.76 0 0 0-2.526-.37c-.726.116-1.314.472-1.329 1.096a3.29 3.29 0 0 0 1.452 2.998c.611.317 1.257.56 1.924.726l1.067.262.065.08c.385.544.167.791-.631.842a6.417 6.417 0 0 0-2.621.595.931.931 0 0 0-.494.726c-.036 1.147.988 2.686 3.884 3.063h.973c.136.008.271.008.407 0H118.488l.072-.036.087-.051c.186-.09.342-.231.451-.406.983.47 2.048.746 3.136.813l-.08-.145a13.65 13.65 0 0 0 7.833 3.826c.938.086 1.884.039 2.809-.138a10.884 10.884 0 0 0 2.178-.661s1.96.537 4.734-1.038c.246-.145.508-.305.776-.487 0 0 .095.443.254.93 0 .116.073.225.109.341l-.058.043-.094.08-.203.175c-.661.595-2.04 1.923-1.902 2.7.138.777.856 1.154 2.011 1.133l-1.046.631c-.777.472-1.786 1.111-2.337 1.532l-.044.036c-.944.726-1.343 1.793-2.947 3.035-1.605 1.241-1.576 2.178-2.178 4.74a115.725 115.725 0 0 1-.813 3.144c-.32 1.176-.552 1.996-.552 1.996a9.822 9.822 0 0 0-1.104 1.263v.044l-.043.065c-.264.363-.507.741-.726 1.133a9.914 9.914 0 0 0-.61 1.379 6.282 6.282 0 0 0-.232.842 23.333 23.333 0 0 0-.458 3.296c0 .443-.05.849-.058 1.198v1.278c-.266.321-.508.66-.726 1.016a11.31 11.31 0 0 0-1.009 2.054 8.744 8.744 0 0 0-.53 2.367c-.217 2.73 2.81 10.272 3.558 12.087-5.975-1.749-12.516-2.541-17.235-.159-.568.25-1.1.575-1.582.965l-.363.283h.043c-.169.166-.329.34-.479.523a4.119 4.119 0 0 0-1.016 1.183c-.356.632-.211 1.772.414 3.245.13.312.283.632.457.966a27.952 27.952 0 0 0 3.397 4.987c.196.24.4.487.618.726a46.746 46.746 0 0 0 3.586 3.688l.682.624a57.59 57.59 0 0 0 3.92 3.195l.726.537a59.46 59.46 0 0 0 5.198 3.354l.799.457a61.812 61.812 0 0 0 5.081 2.526l.857.378a62.869 62.869 0 0 0 4.835 1.837l.414.138c.225 0 .443-.066.66-.109 5.576-1.089 8.937-6.12 9.511-9.808v-.24a4.887 4.887 0 0 0-.226-2.424 17.63 17.63 0 0 0-2.671-5.765 23.566 23.566 0 0 0-1.568-3.114 63.55 63.55 0 0 0-.094-7.659c-.378-3.876-1.619-6.889-1.416-8.965 0 0 1.851-.857 3.368-7.26.189-.791.378-1.67.552-2.643l.131-.043c.806-.254 4.885-1.721 6.497-5.343 1.793-4.022 3.586-4.603 4.552-3.978.965.624 5.009 4.471 10.955 4.181 0 0 .167.385.493.98.427.855.914 1.677 1.459 2.461a10.886 10.886 0 0 0 3.732 3.303c.471 2.713.659 5.467.559 8.218-.087 3.724.334 8.312 1.626 11.115.156.839.354 1.67.595 2.49.136 2.134.66 4.225 1.547 6.17.268.779.73 1.476 1.343 2.026l.174.167c2.759 2.504 8.537 4.312 13.561 1.655l.588-.327.239-.37a66.624 66.624 0 0 0 2.607-4.465c.145-.276.29-.551.428-.827a63.835 63.835 0 0 0 2.352-5.147c.116-.291.225-.574.334-.857a60.94 60.94 0 0 0 1.938-5.873c.08-.298.16-.595.233-.886a54.216 54.216 0 0 0 1.038-4.951c.058-.305.101-.61.145-.914.253-1.696.413-3.405.479-5.118v-.951a28.45 28.45 0 0 0-.465-6.062Zm-63.637-22.273h-.138a.824.824 0 0 1-.298-.116.56.56 0 0 1-.145-.189.584.584 0 0 1 0-.167c.016-.203.076-.401.174-.58l.116-.204a5.492 5.492 0 0 1 .349-.493l.13-.167c.204-.247.363-.407.363-.407-.272.751-.457 1.53-.551 2.323Zm30.766-6.896s2.461-.436 2.846.116c.276.392.094.994-.886 1.357a5.182 5.182 0 0 1-1.452.291 17.448 17.448 0 0 0-.494-1.568c.012-.065.019-.131.022-.196h-.036Z" fill="url(#at)"/><defs><linearGradient id="d" x1="137.443" y1="94.89" x2="171.861" y2="92.481" gradientUnits="userSpaceOnUse"><stop stop-color="#34254C"/><stop offset="1" stop-color="#51397F"/></linearGradient><linearGradient id="e" x1="134.494" y1="134.884" x2="174.509" y2="132.083" gradientUnits="userSpaceOnUse"><stop stop-color="#E1DAE5"/><stop offset="1" stop-color="#F7F4F9"/></linearGradient><linearGradient id="f" x1="121.113" y1="117.24" x2="132.372" y2="116.452" gradientUnits="userSpaceOnUse"><stop stop-color="#C8B8D3"/><stop offset="1" stop-color="#C8B8D3" stop-opacity=".3"/></linearGradient><linearGradient id="g" x1="120.315" y1="128.144" x2="167.669" y2="124.829" gradientUnits="userSpaceOnUse"><stop stop-color="#C8B8D3"/><stop offset="1" stop-color="#C8B8D3" stop-opacity=".3"/></linearGradient><linearGradient id="h" x1="139.591" y1="162.672" x2="149.312" y2="161.992" gradientUnits="userSpaceOnUse"><stop stop-color="#C8B8D3" stop-opacity=".9"/><stop offset="1" stop-color="#C8B8D3" stop-opacity=".3"/></linearGradient><linearGradient id="i" x1="146.359" y1="141.801" x2="175.855" y2="139.737" gradientUnits="userSpaceOnUse"><stop stop-color="#C8B8D3" stop-opacity=".9"/><stop offset="1" stop-color="#C8B8D3" stop-opacity=".3"/></linearGradient><linearGradient id="j" x1="173.003" y1="155.066" x2="185.787" y2="154.172" gradientUnits="userSpaceOnUse"><stop stop-color="#C8B8D3" stop-opacity=".9"/><stop offset="1" stop-color="#C8B8D3" stop-opacity=".3"/></linearGradient><linearGradient id="k" x1="191.86" y1="130.241" x2="180.944" y2="136.988" gradientUnits="userSpaceOnUse"><stop stop-color="#fff"/><stop offset="1" stop-color="#fff" stop-opacity="0"/></linearGradient><linearGradient id="l" x1="136.054" y1="95.673" x2="144.481" y2="107.682" gradientUnits="userSpaceOnUse"><stop stop-color="#C8B8D3"/><stop offset="1" stop-color="#C8B8D3" stop-opacity=".3"/></linearGradient><linearGradient id="m" x1="173.368" y1="86.605" x2="167.551" y2="98.859" gradientUnits="userSpaceOnUse"><stop stop-color="#fff"/><stop offset="1" stop-color="#fff" stop-opacity="0"/></linearGradient><linearGradient id="n" x1="139.145" y1="125.666" x2="168.198" y2="123.632" gradientUnits="userSpaceOnUse"><stop stop-color="#34254C"/><stop offset="1" stop-color="#51397F"/></linearGradient><linearGradient id="o" x1="144.24" y1="126.221" x2="178.347" y2="122.397" gradientUnits="userSpaceOnUse"><stop stop-color="#2D2244"/><stop offset="1" stop-color="#3E2C5E" stop-opacity="0"/></linearGradient><linearGradient id="p" x1="139.881" y1="94.697" x2="146.921" y2="113.15" gradientUnits="userSpaceOnUse"><stop stop-color="#CE1D3B"/><stop offset="1" stop-color="#ED202E"/></linearGradient><linearGradient id="q" x1="164.165" y1="84.462" x2="168.806" y2="100.318" gradientUnits="userSpaceOnUse"><stop stop-color="#CE1D3B"/><stop offset="1" stop-color="#ED202E"/></linearGradient><linearGradient id="r" x1="146.124" y1="113.95" x2="162.92" y2="111.702" gradientUnits="userSpaceOnUse"><stop stop-color="#A193AD"/><stop offset="1" stop-color="#CEC4D6"/></linearGradient><linearGradient id="s" x1="158.725" y1="119.306" x2="155.176" y2="101.637" gradientUnits="userSpaceOnUse"><stop stop-color="#E1DAE5"/><stop offset="1" stop-color="#F7F4F9"/></linearGradient><linearGradient id="t" x1="147.501" y1="121.951" x2="156.147" y2="112.906" gradientUnits="userSpaceOnUse"><stop stop-color="#CEC4D6"/><stop offset="1" stop-color="#CEC4D6" stop-opacity="0"/></linearGradient><linearGradient id="u" x1="151.631" y1="118.007" x2="149.835" y2="109.853" gradientUnits="userSpaceOnUse"><stop stop-color="#34254C"/><stop offset="1" stop-color="#432A68"/></linearGradient><linearGradient id="v" x1="157.062" y1="116.81" x2="155.266" y2="108.649" gradientUnits="userSpaceOnUse"><stop stop-color="#34254C"/><stop offset="1" stop-color="#432A68"/></linearGradient><linearGradient id="w" x1="153.325" y1="114.584" x2="152.289" y2="108.332" gradientUnits="userSpaceOnUse"><stop stop-color="#A193AD"/><stop offset="1" stop-color="#CEC4D6"/></linearGradient><linearGradient id="x" x1="160.646" y1="109.439" x2="162.628" y2="107.003" gradientUnits="userSpaceOnUse"><stop stop-color="#3492B7"/><stop offset="1" stop-color="#4CC8E5"/></linearGradient><linearGradient id="y" x1="161.61" y1="112.99" x2="164.013" y2="112.822" gradientUnits="userSpaceOnUse"><stop stop-color="#D733DB"/><stop offset="1" stop-color="#F43EF9"/></linearGradient><linearGradient id="z" x1="161.052" y1="99.073" x2="165.428" y2="97.607" gradientUnits="userSpaceOnUse"><stop stop-color="#1E45A5"/><stop offset="1" stop-color="#2265C6"/></linearGradient><linearGradient id="A" x1="142.543" y1="103.44" x2="150.791" y2="100.791" gradientUnits="userSpaceOnUse"><stop stop-color="#34254C"/><stop offset="1" stop-color="#51397F"/></linearGradient><linearGradient id="B" x1="143.658" y1="92.587" x2="165.822" y2="91.036" gradientUnits="userSpaceOnUse"><stop stop-color="#34254C"/><stop offset="1" stop-color="#51397F"/></linearGradient><linearGradient id="C" x1="140.563" y1="86.523" x2="138.167" y2="87.303" gradientUnits="userSpaceOnUse"><stop stop-color="#E1DAE5"/><stop offset="1" stop-color="#F7F4F9"/></linearGradient><linearGradient id="D" x1="164.967" y1="78.716" x2="167.077" y2="78.123" gradientUnits="userSpaceOnUse"><stop stop-color="#E1DAE5"/><stop offset="1" stop-color="#F7F4F9"/></linearGradient><linearGradient id="E" x1="144.879" y1="69.595" x2="151.972" y2="69.099" gradientUnits="userSpaceOnUse"><stop stop-color="#E1DAE5"/><stop offset="1" stop-color="#F7F4F9"/></linearGradient><linearGradient id="F" x1="141.484" y1="83.621" x2="164.954" y2="73.844" gradientUnits="userSpaceOnUse"><stop stop-color="#E1DAE5"/><stop offset="1" stop-color="#F7F4F9"/></linearGradient><linearGradient id="G" x1="148.194" y1="90.483" x2="152.67" y2="68.962" gradientUnits="userSpaceOnUse"><stop stop-color="#C8B8D3"/><stop offset="1" stop-color="#C8B8D3" stop-opacity="0"/></linearGradient><linearGradient id="H" x1="148.013" y1="93.829" x2="160.389" y2="89.819" gradientUnits="userSpaceOnUse"><stop stop-color="#E1DAE5"/><stop offset="1" stop-color="#F7F4F9"/></linearGradient><linearGradient id="I" x1="139.989" y1="86.446" x2="168.708" y2="79.22" gradientUnits="userSpaceOnUse"><stop stop-color="#201D21"/><stop offset="1" stop-color="#524B56"/></linearGradient><linearGradient id="J" x1="136.061" y1="85.977" x2="149.598" y2="84.278" gradientUnits="userSpaceOnUse"><stop stop-color="#111011"/><stop offset="1" stop-color="#111011" stop-opacity="0"/></linearGradient><linearGradient id="K" x1="155.222" y1="72.898" x2="159.825" y2="83.847" gradientUnits="userSpaceOnUse"><stop stop-color="#EDE7F2"/><stop offset="1" stop-color="#EDE7F2" stop-opacity="0"/></linearGradient><linearGradient id="L" x1="161.18" y1="81.213" x2="165.36" y2="86.21" gradientUnits="userSpaceOnUse"><stop stop-color="#EDE7F2"/><stop offset="1" stop-color="#EDE7F2" stop-opacity="0"/></linearGradient><linearGradient id="M" x1="172.84" y1="134.71" x2="187.976" y2="133.65" gradientUnits="userSpaceOnUse"><stop stop-color="#34254C"/><stop offset="1" stop-color="#51397F"/></linearGradient><linearGradient id="N" x1="144.715" y1="147.081" x2="128.407" y2="138.389" gradientUnits="userSpaceOnUse"><stop stop-color="#34254C"/><stop offset="1" stop-color="#51397F"/></linearGradient><linearGradient id="O" x1="179.568" y1="109.618" x2="176.978" y2="95.646" gradientUnits="userSpaceOnUse"><stop stop-color="#34254C"/><stop offset="1" stop-color="#51397F"/></linearGradient><linearGradient id="P" x1="132.722" y1="111.445" x2="135.387" y2="111.259" gradientUnits="userSpaceOnUse"><stop stop-color="#34254C"/><stop offset="1" stop-color="#51397F"/></linearGradient><linearGradient id="Q" x1="142.683" y1="103.146" x2="150.931" y2="100.497" gradientUnits="userSpaceOnUse"><stop stop-color="#A193AD"/><stop offset="1" stop-color="#CEC4D6"/></linearGradient><linearGradient id="R" x1="131.215" y1="112.01" x2="116.774" y2="99.554" gradientUnits="userSpaceOnUse"><stop stop-color="#E1DAE5"/><stop offset="1" stop-color="#F7F4F9"/></linearGradient><linearGradient id="S" x1="116.548" y1="96.637" x2="120.323" y2="96.373" gradientUnits="userSpaceOnUse"><stop stop-color="#E1DAE5"/><stop offset="1" stop-color="#F7F4F9"/></linearGradient><linearGradient id="T" x1="114.008" y1="101.827" x2="118.052" y2="101.544" gradientUnits="userSpaceOnUse"><stop stop-color="#E1DAE5"/><stop offset="1" stop-color="#F7F4F9"/></linearGradient><linearGradient id="U" x1="112.049" y1="108.653" x2="117.937" y2="108.241" gradientUnits="userSpaceOnUse"><stop stop-color="#E1DAE5"/><stop offset="1" stop-color="#F7F4F9"/></linearGradient><linearGradient id="V" x1="112.816" y1="114.604" x2="120.054" y2="114.097" gradientUnits="userSpaceOnUse"><stop stop-color="#E1DAE5"/><stop offset="1" stop-color="#F7F4F9"/></linearGradient><linearGradient id="W" x1="125.715" y1="98.782" x2="123.431" y2="110.447" gradientUnits="userSpaceOnUse"><stop stop-color="#C8B8D3"/><stop offset="1" stop-color="#C8B8D3" stop-opacity=".3"/></linearGradient><linearGradient id="X" x1="135.39" y1="109.748" x2="125.776" y2="103.826" gradientUnits="userSpaceOnUse"><stop stop-color="#C8B8D3"/><stop offset="1" stop-color="#C8B8D3" stop-opacity=".3"/></linearGradient><linearGradient id="Y" x1="128.651" y1="97.154" x2="129.119" y2="92.905" gradientUnits="userSpaceOnUse"><stop stop-color="#34254C"/><stop offset="1" stop-color="#51397F"/></linearGradient><linearGradient id="Z" x1="117.564" y1="97.5" x2="120.388" y2="97.302" gradientUnits="userSpaceOnUse"><stop stop-color="#34254C"/><stop offset="1" stop-color="#51397F"/></linearGradient><linearGradient id="aa" x1="114.554" y1="102.234" x2="118.046" y2="101.989" gradientUnits="userSpaceOnUse"><stop stop-color="#34254C"/><stop offset="1" stop-color="#51397F"/></linearGradient><linearGradient id="ab" x1="115.172" y1="109.383" x2="118.003" y2="109.185" gradientUnits="userSpaceOnUse"><stop stop-color="#34254C"/><stop offset="1" stop-color="#51397F"/></linearGradient><linearGradient id="ac" x1="116.638" y1="114.905" x2="120.093" y2="114.663" gradientUnits="userSpaceOnUse"><stop stop-color="#34254C"/><stop offset="1" stop-color="#51397F"/></linearGradient><linearGradient id="ad" x1="178.639" y1="104.124" x2="190.406" y2="89.243" gradientUnits="userSpaceOnUse"><stop stop-color="#E1DAE5"/><stop offset="1" stop-color="#F7F4F9"/></linearGradient><linearGradient id="ae" x1="190.077" y1="86.343" x2="186.34" y2="86.796" gradientUnits="userSpaceOnUse"><stop stop-color="#E1DAE5"/><stop offset="1" stop-color="#F7F4F9"/></linearGradient><linearGradient id="af" x1="193.536" y1="90.934" x2="189.532" y2="91.419" gradientUnits="userSpaceOnUse"><stop stop-color="#E1DAE5"/><stop offset="1" stop-color="#F7F4F9"/></linearGradient><linearGradient id="ag" x1="196.736" y1="97.241" x2="190.907" y2="97.948" gradientUnits="userSpaceOnUse"><stop stop-color="#E1DAE5"/><stop offset="1" stop-color="#F7F4F9"/></linearGradient><linearGradient id="ah" x1="197.107" y1="103.19" x2="189.942" y2="104.059" gradientUnits="userSpaceOnUse"><stop stop-color="#E1DAE5"/><stop offset="1" stop-color="#F7F4F9"/></linearGradient><linearGradient id="ai" x1="181.52" y1="90.174" x2="185.955" y2="101.137" gradientUnits="userSpaceOnUse"><stop stop-color="#C8B8D3"/><stop offset="1" stop-color="#C8B8D3" stop-opacity=".3"/></linearGradient><linearGradient id="aj" x1="174.134" y1="102.701" x2="182.417" y2="95.104" gradientUnits="userSpaceOnUse"><stop stop-color="#C8B8D3"/><stop offset="1" stop-color="#C8B8D3" stop-opacity=".3"/></linearGradient><linearGradient id="ak" x1="178.352" y1="89.128" x2="177.094" y2="85.066" gradientUnits="userSpaceOnUse"><stop stop-color="#34254C"/><stop offset="1" stop-color="#51397F"/></linearGradient><linearGradient id="al" x1="189.239" y1="87.378" x2="186.451" y2="87.716" gradientUnits="userSpaceOnUse"><stop stop-color="#34254C"/><stop offset="1" stop-color="#51397F"/></linearGradient><linearGradient id="am" x1="193.079" y1="91.434" x2="189.622" y2="91.853" gradientUnits="userSpaceOnUse"><stop stop-color="#34254C"/><stop offset="1" stop-color="#51397F"/></linearGradient><linearGradient id="an" x1="193.823" y1="98.535" x2="191.02" y2="98.874" gradientUnits="userSpaceOnUse"><stop stop-color="#34254C"/><stop offset="1" stop-color="#51397F"/></linearGradient><linearGradient id="ao" x1="193.43" y1="104.205" x2="190.009" y2="104.62" gradientUnits="userSpaceOnUse"><stop stop-color="#34254C"/><stop offset="1" stop-color="#51397F"/></linearGradient><linearGradient id="ap" x1="178.218" y1="160.99" x2="204.817" y2="159.128" gradientUnits="userSpaceOnUse"><stop stop-color="#E1DAE5"/><stop offset="1" stop-color="#F7F4F9"/></linearGradient><linearGradient id="aq" x1="178.743" y1="178.812" x2="207.844" y2="150.891" gradientUnits="userSpaceOnUse"><stop stop-color="#BBAEC4"/><stop offset="1" stop-color="#DED1E8"/></linearGradient><linearGradient id="ar" x1="138.9" y1="173.831" x2="117.088" y2="188.993" gradientUnits="userSpaceOnUse"><stop stop-color="#E1DAE5"/><stop offset="1" stop-color="#F7F4F9"/></linearGradient><linearGradient id="as" x1="114.592" y1="184.273" x2="150.595" y2="176.573" gradientUnits="userSpaceOnUse"><stop stop-color="#BBAEC4"/><stop offset="1" stop-color="#DED1E8"/></linearGradient><linearGradient id="at" x1="195.495" y1="105.577" x2="123.515" y2="163.127" gradientUnits="userSpaceOnUse"><stop stop-color="#04074A"/><stop offset=".89" stop-opacity="0"/></linearGradient><filter id="a" x="0" y="41.935" width="104.001" height="136.851" filterUnits="userSpaceOnUse" color-interpolation-filters="sRGB"><feFlood flood-opacity="0" result="BackgroundImageFix"/><feColorMatrix in="SourceAlpha" values="0 0 0 0 0 0 0 0 0 0 0 0 0 0 0 0 0 0 127 0" result="hardAlpha"/><feOffset/><feGaussianBlur stdDeviation="3"/><feComposite in2="hardAlpha" operator="out"/><feColorMatrix values="0 0 0 0 0 0 0 0 0 0 0 0 0 0 0 0 0 0 0.16 0"/><feBlend in2="BackgroundImageFix" result="effect1_dropShadow_1599_10120"/><feBlend in="SourceGraphic" in2="effect1_dropShadow_1599_10120" result="shape"/></filter><filter id="b" x="209.999" y="41.935" width="104.001" height="136.851" filterUnits="userSpaceOnUse" color-interpolation-filters="sRGB"><feFlood flood-opacity="0" result="BackgroundImageFix"/><feColorMatrix in="SourceAlpha" values="0 0 0 0 0 0 0 0 0 0 0 0 0 0 0 0 0 0 127 0" result="hardAlpha"/><feOffset/><feGaussianBlur stdDeviation="3"/><feComposite in2="hardAlpha" operator="out"/><feColorMatrix values="0 0 0 0 0 0 0 0 0 0 0 0 0 0 0 0 0 0 0.16 0"/><feBlend in2="BackgroundImageFix" result="effect1_dropShadow_1599_10120"/><feBlend in="SourceGraphic" in2="effect1_dropShadow_1599_10120" result="shape"/></filter><filter id="c" x="104.575" y="39.01" width="105.337" height="142.709" filterUnits="userSpaceOnUse" color-interpolation-filters="sRGB"><feFlood flood-opacity="0" result="BackgroundImageFix"/><feColorMatrix in="SourceAlpha" values="0 0 0 0 0 0 0 0 0 0 0 0 0 0 0 0 0 0 127 0" result="hardAlpha"/><feOffset/><feGaussianBlur stdDeviation="3"/><feComposite in2="hardAlpha" operator="out"/><feColorMatrix values="0 0 0 0 0 0 0 0 0 0 0 0 0 0 0 0 0 0 0.16 0"/><feBlend in2="BackgroundImageFix" result="effect1_dropShadow_1599_10120"/><feBlend in="SourceGraphic" in2="effect1_dropShadow_1599_10120" result="shape"/></filter></defs></svg>