<svg width="14" height="14" viewBox="0 0 14 14" fill="none" xmlns="http://www.w3.org/2000/svg">
<path opacity="0.4" d="M14 7C14 10.866 10.866 14 7 14C3.13401 14 0 10.866 0 7C0 3.13401 3.13401 0 7 0C10.866 0 14 3.13401 14 7Z" fill="#28303F"/>
<path fill-rule="evenodd" clip-rule="evenodd" d="M8.60873 9.35115C8.81375 9.55617 9.14616 9.55617 9.35119 9.35115C9.55621 9.14612 9.55621 8.81371 9.35119 8.60868L7.74256 7.00006L9.35118 5.39144C9.5562 5.18641 9.5562 4.854 9.35118 4.64898C9.14615 4.44395 8.81374 4.44395 8.60872 4.64898L7.0001 6.25759L5.39139 4.64889C5.18636 4.44386 4.85395 4.44386 4.64893 4.64889C4.4439 4.85391 4.4439 5.18632 4.64893 5.39135L6.25764 7.00006L4.64892 8.60878C4.44389 8.8138 4.44389 9.14621 4.64892 9.35124C4.85394 9.55626 5.18635 9.55626 5.39138 9.35124L7.0001 7.74252L8.60873 9.35115Z" fill="#28303F"/>
</svg>
