<svg width="318" height="262" fill="none" xmlns="http://www.w3.org/2000/svg"><path d="M65.925 261.798c1.587 0 2.874-.325 2.874-.726 0-.401-1.287-.725-2.874-.725-1.588 0-2.875.324-2.875.725 0 .401 1.287.726 2.875.726ZM78.89 261.798c1.588 0 2.875-.325 2.875-.726 0-.401-1.287-.725-2.874-.725-1.588 0-2.874.324-2.874.725 0 .401 1.287.726 2.874.726Z" fill="#0099C2"/><path d="M162.805 88.129h-.009a2.397 2.397 0 0 0-2.397 2.397v17.87a2.397 2.397 0 0 0 2.397 2.397h.009a2.397 2.397 0 0 0 2.397-2.397v-17.87a2.397 2.397 0 0 0-2.397-2.397Z" fill="#080A06"/><path d="M147.277 57.706H64.3c-8.572 0-15.52 6.948-15.52 15.52v162.979c0 8.571 6.948 15.519 15.52 15.519h82.977c8.571 0 15.519-6.948 15.519-15.519V73.225c0-8.571-6.948-15.52-15.519-15.52Z" fill="#131A29"/><path d="M146.368 64.125h-81.16c-5.928 0-10.734 4.806-10.734 10.735v160.546c0 5.928 4.806 10.735 10.735 10.735h81.159c5.928 0 10.735-4.807 10.735-10.735V74.86c0-5.93-4.807-10.735-10.735-10.735Z" fill="#fff" stroke="#0B0D14" stroke-miterlimit="10"/><path d="M93.749 133.603H72.105a6.024 6.024 0 0 0-6.024 6.024v21.644a6.025 6.025 0 0 0 6.024 6.025h21.644a6.025 6.025 0 0 0 6.024-6.025v-21.644a6.024 6.024 0 0 0-6.024-6.024Z" fill="#1877F2"/><path d="M93.097 134.218h-20.34a6.061 6.061 0 0 0-6.061 6.061v20.34a6.06 6.06 0 0 0 6.06 6.061h20.34a6.06 6.06 0 0 0 6.062-6.061v-20.34a6.061 6.061 0 0 0-6.061-6.061ZM93.749 91.61H72.105a6.024 6.024 0 0 0-6.024 6.023v21.645a6.024 6.024 0 0 0 6.024 6.024h21.644a6.024 6.024 0 0 0 6.024-6.024V97.633a6.024 6.024 0 0 0-6.024-6.024Z" fill="#1877F2"/><path d="M93.097 92.225h-20.34a6.06 6.06 0 0 0-6.061 6.06v20.341a6.06 6.06 0 0 0 6.06 6.06h20.34a6.06 6.06 0 0 0 6.062-6.06v-20.34a6.06 6.06 0 0 0-6.061-6.061Z" fill="#1877F2"/><path d="M93.749 124.282H72.114a5.418 5.418 0 0 1-5.418-5.408v.395a5.42 5.42 0 0 0 5.418 5.417h21.635a5.415 5.415 0 0 0 3.828-1.587 5.41 5.41 0 0 0 1.58-3.83v-.395a5.407 5.407 0 0 1-5.408 5.408Z" fill="#004172"/><path d="M139.471 91.61h-21.644a6.024 6.024 0 0 0-6.024 6.023v21.645a6.024 6.024 0 0 0 6.024 6.024h21.644a6.024 6.024 0 0 0 6.024-6.024V97.633a6.024 6.024 0 0 0-6.024-6.024Z" fill="#1877F2"/><path d="M138.819 92.225h-20.34a6.06 6.06 0 0 0-6.061 6.06v20.341a6.06 6.06 0 0 0 6.061 6.06h20.34a6.06 6.06 0 0 0 6.061-6.06v-20.34a6.061 6.061 0 0 0-6.061-6.061Z" fill="#1877F2"/><path d="M139.471 124.282h-21.635a5.419 5.419 0 0 1-5.418-5.408v.395a5.42 5.42 0 0 0 5.418 5.417h21.635a5.417 5.417 0 0 0 3.828-1.587 5.414 5.414 0 0 0 1.581-3.83v-.395a5.409 5.409 0 0 1-5.409 5.408Z" fill="#004172"/><path d="M86.605 144.623a.562.562 0 0 0 .174-.414.488.488 0 0 0 0-.202.078.078 0 0 1 0-.045.597.597 0 0 0-.138-.212l-.266-.275c.217-.345.376-.724.469-1.12h.394a.587.587 0 0 0 .437-.159.586.586 0 0 0 .179-.429v-.634a.643.643 0 0 0-.616-.643h-.394a3.996 3.996 0 0 0-.184-.587c-.046-.111-.11-.221-.165-.331a2.296 2.296 0 0 0-.11-.211l.275-.266a.55.55 0 0 0 .174-.414.532.532 0 0 0 0-.202.563.563 0 0 0-.138-.22l-.45-.459a.576.576 0 0 0-.431-.193.567.567 0 0 0-.44.165l-.276.267a3.91 3.91 0 0 0-1.139-.487v-.386a.615.615 0 0 0-.624-.624h-.625a.6.6 0 0 0-.444.18.606.606 0 0 0-.18.444v.386a3.91 3.91 0 0 0-1.139.487l-.376-.294a.679.679 0 0 0-.203-.129.534.534 0 0 0-.238 0 .618.618 0 0 0-.441.193l-.44.459a.564.564 0 0 0-.139.22.784.784 0 0 0 0 .203c.005.156.071.304.184.413l.275.266c0 .064-.064.138-.1.211-.037.074-.12.211-.166.331a5.46 5.46 0 0 0-.193.588h-.385a.645.645 0 0 0-.616.642v.634a.58.58 0 0 0 .616.588h.385c.1.396.261.774.478 1.12l-.138.147-.138.138a.592.592 0 0 0-.137.211v.046a.712.712 0 0 0 0 .202.614.614 0 0 0 .183.413l.441.422a.619.619 0 0 0 .918 0l.276-.284c.355.206.739.358 1.139.45v.385a.615.615 0 0 0 .624.616h.624a.626.626 0 0 0 .442-.177.616.616 0 0 0 .183-.439v-.385c.4-.092.784-.244 1.139-.45l.275.284a.606.606 0 0 0 .46.206.607.607 0 0 0 .458-.206l.267-.44Zm-1.332-3.113c.014.113.014.227 0 .339v.101c0 .111-.064.23-.11.331a.398.398 0 0 1-.046.083c-.045.11-.104.215-.174.312l-.065.083a3.187 3.187 0 0 1-.22.257l-.12.092c-.072.066-.149.127-.229.183l-.174.092c-.07.047-.144.087-.22.119l-.267.083-.175.055a2.487 2.487 0 0 1-.918 0l-.175-.055c-.09-.022-.179-.05-.266-.083a1.247 1.247 0 0 1-.22-.119l-.175-.092a1.454 1.454 0 0 1-.22-.174l-.129-.101a1.779 1.779 0 0 1-.21-.248l-.084-.092a3.194 3.194 0 0 1-.165-.303.29.29 0 0 1 0-.092 1.98 1.98 0 0 1-.11-.331.406.406 0 0 1 0-.101 2.142 2.142 0 0 1-.046-.339v-.147a2.358 2.358 0 0 1 2.36-2.36 2.37 2.37 0 0 1 1.669.691 2.353 2.353 0 0 1 .691 1.669.934.934 0 0 1-.202.147Z" fill="#003F83"/><path d="M82.931 140.096a1.246 1.246 0 0 0-1.24 1.239 1.241 1.241 0 0 0 2.117.877c.232-.233.363-.548.363-.877a1.25 1.25 0 0 0-1.24-1.239ZM84.585 154.136h-.68a6.22 6.22 0 0 0-.33-1.01c-.074-.193-.184-.376-.276-.56-.092-.184-.12-.248-.193-.367v-.046l.478-.478c.193-.196.305-.459.312-.734 0-.119-.02-.236-.055-.349v-.074a1.155 1.155 0 0 0-.239-.367l-.78-.781a1.062 1.062 0 0 0-1.524.019c-.166.156-.322.321-.488.486a6.25 6.25 0 0 0-1.983-.752v-.68a1.008 1.008 0 0 0-1.084-1.019l-1.093.073a1.176 1.176 0 0 0-1.083 1.157v.68a7.32 7.32 0 0 0-1.984 1.001l-.477-.432a.926.926 0 0 0-.358-.193 1.191 1.191 0 0 0-.404 0 1.241 1.241 0 0 0-.762.413l-.772.873c-.101.12-.182.257-.239.404a.2.2 0 0 0 0 .073c-.039.116-.06.237-.064.358a.913.913 0 0 0 .312.689l.478.423a.074.074 0 0 0 0 .046c-.064.128-.12.266-.184.394-.064.129-.202.386-.275.588a7.152 7.152 0 0 0-.33 1.065l-.671.092c-.15.02-.293.07-.423.147a1.294 1.294 0 0 0-.652 1.093V157.47a.915.915 0 0 0 .322.711.918.918 0 0 0 .753.207l.67-.092c.166.655.442 1.276.817 1.837l-.202.229-.275.313a1.157 1.157 0 0 0-.239.395.173.173 0 0 0 0 .073c-.039.112-.06.23-.064.349a.919.919 0 0 0 .312.698l.771.67a1.103 1.103 0 0 0 1.525-.174l.477-.533a6.798 6.798 0 0 0 1.984.643v.661a.993.993 0 0 0 1.083 1.001l1.093-.073a1.15 1.15 0 0 0 1.084-1.13v-.716a7.602 7.602 0 0 0 1.983-.918l.487.468a1.096 1.096 0 0 0 1.524 0c.257-.266.524-.524.78-.781.194-.193.306-.452.313-.725 0-.116-.019-.23-.055-.34v-.073a1.061 1.061 0 0 0-.239-.368l-.349-.349-.128-.128c.375-.611.65-1.277.817-1.975h.68a1.04 1.04 0 0 0 .764-.299 1.051 1.051 0 0 0 .32-.757v-1.092a1.12 1.12 0 0 0-1.185-1.066Zm-3.334 1.837c0 .202 0 .404-.064.597-.064.193 0 .128-.064.193a3.238 3.238 0 0 1-.184.578 1.44 1.44 0 0 1-.083.166c-.091.183-.183.367-.294.541l-.137.156c-.11.164-.233.317-.368.46l-.202.174a3.572 3.572 0 0 1-.404.34c-.102.07-.21.131-.321.184a2.588 2.588 0 0 1-.377.22 3.682 3.682 0 0 1-.477.174 1.533 1.533 0 0 1-.294.101 4.19 4.19 0 0 1-1.653.111l-.285-.074a2.524 2.524 0 0 1-.477-.11 2.852 2.852 0 0 1-.377-.165l-.321-.147a3.98 3.98 0 0 1-.395-.285l-.211-.156a3.7 3.7 0 0 1-.358-.395c-.046-.055-.101-.101-.138-.156a3.764 3.764 0 0 1-.285-.487c0-.064-.073-.11-.1-.174a3.529 3.529 0 0 1-.175-.551c0-.064 0-.12-.064-.184a3.98 3.98 0 0 1-.065-.845 4.517 4.517 0 0 1 4.105-4.453 3.886 3.886 0 0 1 3.815 2.38c.206.494.308 1.024.3 1.559-.029.129-.047.211-.047.294v-.046Z" fill="#003F83"/><path d="M77.155 153.787a2.343 2.343 0 0 0-2.148 2.305 1.977 1.977 0 0 0 2.148 1.993 2.308 2.308 0 0 0 2.158-2.259 2.014 2.014 0 0 0-2.158-2.039ZM96.458 149.572l-.46-.073a4.876 4.876 0 0 0-.22-.707c-.055-.138-.119-.266-.183-.404a7.19 7.19 0 0 0-.129-.266l.322-.276a.66.66 0 0 0 .21-.468c.01-.08.01-.16 0-.239a.1.1 0 0 1 0-.046.845.845 0 0 0-.165-.275l-.514-.597a.846.846 0 0 0-.514-.276.559.559 0 0 0-.514.129l-.322.284a4.848 4.848 0 0 0-1.322-.707v-.459a.836.836 0 0 0-.726-.799l-.743-.064a.654.654 0 0 0-.726.661v.45a4.427 4.427 0 0 0-1.331.459l-.322-.349a1.066 1.066 0 0 0-.239-.174.73.73 0 0 0-.275-.064.709.709 0 0 0-.275 0 .598.598 0 0 0-.24.147l-.523.495a.598.598 0 0 0-.156.239.678.678 0 0 0-.046.23c.006.188.081.368.212.505l.321.34c-.055.082-.083.165-.129.238a3.284 3.284 0 0 0-.192.368 4.388 4.388 0 0 0-.22.67h-.46a.723.723 0 0 0-.276.048.71.71 0 0 0-.45.659v.735a.773.773 0 0 0 .726.753h.46c.117.477.303.934.55 1.359l-.11.11-.211.193a.76.76 0 0 0-.156.239.119.119 0 0 0 0 .055.643.643 0 0 0-.046.229.798.798 0 0 0 .21.505l.524.542a.721.721 0 0 0 .783.208.717.717 0 0 0 .246-.144l.321-.303c.412.277.86.497 1.332.652v.46a.807.807 0 0 0 .725.78l.744.074a.65.65 0 0 0 .673-.383.641.641 0 0 0 .052-.269v-.45c.46-.061.907-.197 1.323-.404l.321.358a.756.756 0 0 0 1.029.137l.514-.45a.634.634 0 0 0 .211-.468 1.164 1.164 0 0 0 0-.239.084.084 0 0 1 0-.046 1.126 1.126 0 0 0-.156-.266l-.303-.349c.257-.38.444-.803.551-1.249l.46.065a.613.613 0 0 0 .665-.352.607.607 0 0 0 .05-.264v-.734a.863.863 0 0 0-.881-.763Zm-2.232.919a2.9 2.9 0 0 1-.046.395v.11a2.394 2.394 0 0 1-.128.386.583.583 0 0 1-.055.101 2.4 2.4 0 0 1-.193.33l-.092.101a2.191 2.191 0 0 1-.248.266 1.01 1.01 0 0 1-.128.092 1.832 1.832 0 0 1-.276.193l-.202.092a1.57 1.57 0 0 1-.57.174l-.21.046a2.67 2.67 0 0 1-.551 0 3.672 3.672 0 0 1-.56-.101l-.203-.082a1.853 1.853 0 0 1-.312-.129 2.362 2.362 0 0 1-.257-.156l-.211-.129-.266-.238c0-.046-.101-.083-.138-.129a2.053 2.053 0 0 1-.248-.312 1.397 1.397 0 0 1-.092-.119 2.756 2.756 0 0 1-.193-.359c0-.046-.046-.082-.064-.119a3.224 3.224 0 0 1-.12-.395c0-.046 0-.092-.045-.128a3.13 3.13 0 0 1 0-.404 1.246 1.246 0 0 1 0-.175 2.507 2.507 0 0 1 2.755-2.544 3.14 3.14 0 0 1 2.754 3.067c-.082.092-.1.147-.1.203v-.037Z" fill="#003F83"/><path d="M91.49 148.608a1.307 1.307 0 0 0-1.345.781c-.073.171-.11.356-.106.541a1.617 1.617 0 0 0 1.451 1.571 1.268 1.268 0 0 0 1.019-.316 1.277 1.277 0 0 0 .423-.979 1.636 1.636 0 0 0-1.442-1.598Z" fill="#003F83"/><path d="M87.174 140.288h-.386a4.018 4.018 0 0 0-.468-1.138l.276-.276a.617.617 0 0 0 .2-.459.626.626 0 0 0-.2-.459l-.45-.45a.624.624 0 0 0-.873 0l-.275.275a4.048 4.048 0 0 0-1.139-.468v-.386a.624.624 0 0 0-.615-.624h-.625a.625.625 0 0 0-.624.624v.386c-.399.097-.78.255-1.13.468l-.275-.275a.623.623 0 0 0-.918 0l-.45.45a.617.617 0 0 0-.202.459.626.626 0 0 0 .202.459l.275.276a3.772 3.772 0 0 0-.468 1.138h-.395a.617.617 0 0 0-.615.616v.624a.61.61 0 0 0 .177.441.624.624 0 0 0 .438.183h.395c.093.4.25.782.468 1.13l-.275.275a.645.645 0 0 0-.197.46.634.634 0 0 0 .197.459l.45.44a.62.62 0 0 0 .918 0l.275-.275c.348.217.73.376 1.13.468v.395a.613.613 0 0 0 .624.615h.625a.613.613 0 0 0 .615-.615v-.413a3.791 3.791 0 0 0 1.139-.468l.275.275a.624.624 0 0 0 .873 0l.45-.441a.63.63 0 0 0 .145-.709.63.63 0 0 0-.145-.209l-.276-.275c.214-.35.372-.732.468-1.13h.386a.619.619 0 0 0 .58-.384.615.615 0 0 0 .044-.24v-.625a.614.614 0 0 0-.624-.597Zm-4.243 3.279a2.347 2.347 0 0 1-2.306-2.81 2.354 2.354 0 0 1 1.848-1.847 2.348 2.348 0 0 1 2.413 1c.258.386.396.841.396 1.306a2.343 2.343 0 0 1-2.35 2.351Z" fill="#fff"/><path d="M83.86 137.396c.403.096.787.257 1.138.477l.275-.275a.604.604 0 0 1 .872 0l.45.44c.11.114.173.265.175.423a.63.63 0 0 0-.174-.459l-.45-.45a.624.624 0 0 0-.873 0l-.275.275a4.048 4.048 0 0 0-1.139-.468v.037ZM79.543 143.328l-.257.257a.601.601 0 0 0-.174.459.564.564 0 0 1 .174-.413l.257-.303ZM82.62 136.395h.623a.614.614 0 0 1 .616.615.624.624 0 0 0-.615-.624h-.625a.62.62 0 0 0-.577.387.606.606 0 0 1 .339-.334.626.626 0 0 1 .238-.044ZM86.33 143.3l.275.276c.11.11.172.258.174.413a.624.624 0 0 0-.174-.459l-.276-.23ZM87.174 140.288h-.386a3.603 3.603 0 0 0-.459-1.111c.212.354.37.738.468 1.139h.386a.626.626 0 0 1 .441.177.606.606 0 0 1 .184.438.615.615 0 0 0-.634-.643ZM79.267 138.039l.45-.441a.61.61 0 0 1 .712-.156c.08.037.15.09.207.156l.275.275c.348-.22.73-.381 1.13-.477-.399.097-.78.255-1.13.468l-.275-.275a.623.623 0 0 0-.919 0l-.45.45ZM78.68 140.325h.395a3.87 3.87 0 0 1 .468-1.138c-.207.344-.36.719-.45 1.111h-.395a.613.613 0 0 0-.615.615.616.616 0 0 1 .597-.588Z" fill="#36FDFF"/><path d="M82.932 142.446a1.23 1.23 0 1 0 .001-2.46 1.23 1.23 0 0 0-.001 2.46ZM84.585 154.008h-.68a7.064 7.064 0 0 0-.817-1.975l.477-.486a1.076 1.076 0 0 0 0-1.525l-.78-.771a1.077 1.077 0 0 0-1.175-.235c-.13.055-.25.134-.35.235l-.477.477a6.888 6.888 0 0 0-1.984-.817v-.679a1.072 1.072 0 0 0-.66-1.001 1.067 1.067 0 0 0-.414-.083h-1.102a1.067 1.067 0 0 0-.763.318 1.073 1.073 0 0 0-.311.766v.679c-.7.165-1.37.441-1.984.817l-.477-.477a1.077 1.077 0 0 0-1.175-.235c-.131.055-.25.134-.35.235l-.78.771a1.078 1.078 0 0 0 0 1.525l.477.486a6.802 6.802 0 0 0-.817 1.975h-.68a1.08 1.08 0 0 0-1.074 1.083v1.093a1.074 1.074 0 0 0 1.074 1.084h.707c.167.7.443 1.369.818 1.983l-.478.478a1.072 1.072 0 0 0 0 1.524l.78.771a1.061 1.061 0 0 0 .763.318 1.065 1.065 0 0 0 .762-.318l.478-.477a6.775 6.775 0 0 0 1.983.826v.671a1.075 1.075 0 0 0 1.075 1.083h1.102a1.079 1.079 0 0 0 1.074-1.083v-.671c.7-.169 1.37-.448 1.984-.826l.477.477a1.064 1.064 0 0 0 1.175.235c.13-.054.25-.134.35-.235l.78-.771a1.082 1.082 0 0 0 .317-.762 1.076 1.076 0 0 0-.317-.762l-.478-.478a7.123 7.123 0 0 0 .818-1.983h.68a1.067 1.067 0 0 0 .762-.318 1.083 1.083 0 0 0 .312-.766v-1.093a1.073 1.073 0 0 0-1.102-1.083Zm-7.41 5.776a4.105 4.105 0 1 1 0-8.21 4.105 4.105 0 0 1 0 8.21Z" fill="#fff"/><path d="M78.8 148.975c.7.17 1.37.449 1.983.827l.477-.487a1.075 1.075 0 0 1 1.525 0l.78.781c.194.193.305.452.313.725a1.078 1.078 0 0 0-.313-.799l-.78-.771a1.076 1.076 0 0 0-1.525 0l-.477.477a6.886 6.886 0 0 0-1.984-.817v.064ZM71.26 159.316v-.046l-.46.459a1.065 1.065 0 0 0-.311.799c.007-.276.118-.539.312-.735l.46-.477ZM76.623 147.222h1.102a1.076 1.076 0 0 1 1.074 1.074v-.064a1.072 1.072 0 0 0-.661-1.001 1.067 1.067 0 0 0-.413-.083h-1.102a1.067 1.067 0 0 0-.763.318 1.073 1.073 0 0 0-.312.766v.064a1.076 1.076 0 0 1 1.075-1.074ZM83.106 159.27v.046l.478.477c.193.196.305.459.312.735a1.069 1.069 0 0 0-.313-.799l-.477-.459ZM84.584 154.008h-.68a6.913 6.913 0 0 0-.798-1.938c.371.616.647 1.285.817 1.984h.68a1.076 1.076 0 0 1 1.074 1.074v-.064a1.075 1.075 0 0 0-1.093-1.056ZM70.783 150.096l.78-.781a1.073 1.073 0 0 1 1.175-.234c.131.054.25.134.35.234l.477.487a6.802 6.802 0 0 1 1.984-.827v-.064c-.7.165-1.37.441-1.984.817l-.477-.477a1.077 1.077 0 0 0-1.175-.235c-.131.055-.25.134-.35.235l-.78.771a1.083 1.083 0 0 0-.313.799c.008-.273.12-.532.313-.725ZM69.763 154.081h.707c.167-.7.442-1.369.817-1.983a6.907 6.907 0 0 0-.799 1.937h-.679a1.067 1.067 0 0 0-.763.318 1.082 1.082 0 0 0-.312.766v.073a1.074 1.074 0 0 1 1.029-1.111Z" fill="#36FDFF"/><path d="M77.174 157.791a2.149 2.149 0 1 0 0-4.298 2.149 2.149 0 0 0 0 4.298ZM96.449 148.452h-.45a4.672 4.672 0 0 0-.56-1.341l.321-.321a.722.722 0 0 0 .213-.51.72.72 0 0 0-.213-.509l-.514-.524a.726.726 0 0 0-1.029 0l-.321.322a4.447 4.447 0 0 0-1.332-.551v-.459a.736.736 0 0 0-.725-.726h-.735a.724.724 0 0 0-.725.726v.459c-.47.11-.92.296-1.332.551l-.33-.322a.713.713 0 0 0-.786-.157.714.714 0 0 0-.234.157l-.523.524a.711.711 0 0 0-.158.786c.037.087.09.166.158.233l.321.321a4.646 4.646 0 0 0-.55 1.341h-.46a.726.726 0 0 0-.725.716v.744a.736.736 0 0 0 .725.726h.46c.112.47.298.919.55 1.331l-.321.322a.718.718 0 0 0-.158.792c.036.089.09.169.158.236l.523.514a.716.716 0 0 0 1.02 0l.33-.321c.412.254.861.44 1.332.551v.459a.73.73 0 0 0 .448.67.716.716 0 0 0 .277.055h.735a.715.715 0 0 0 .513-.212.72.72 0 0 0 .212-.513v-.459c.471-.111.92-.297 1.332-.551l.321.321a.728.728 0 0 0 .793.159.73.73 0 0 0 .236-.159l.514-.514a.714.714 0 0 0 .214-.514.73.73 0 0 0-.214-.514l-.321-.322a4.59 4.59 0 0 0 .56-1.331h.45a.716.716 0 0 0 .513-.213.72.72 0 0 0 .212-.513v-.744a.72.72 0 0 0-.448-.664.73.73 0 0 0-.277-.052Zm-4.977 3.848a2.753 2.753 0 0 1-2.546-1.701 2.755 2.755 0 1 1 2.546 1.701Z" fill="#fff"/><path d="M92.564 145.091c.471.111.92.297 1.332.551l.321-.321a.72.72 0 0 1 1.029 0l.514.523a.692.692 0 0 1 .211.487.67.67 0 0 0-.21-.533l-.515-.523a.72.72 0 0 0-1.029 0l-.321.321a4.499 4.499 0 0 0-1.332-.551v.046ZM87.495 152.015l-.303.303a.703.703 0 0 0-.211.533.735.735 0 0 1 .211-.487l.303-.349ZM91.105 143.879h.734a.735.735 0 0 1 .726.725v-.045a.736.736 0 0 0-.725-.726h-.735a.724.724 0 0 0-.725.726v.045a.726.726 0 0 1 .725-.725ZM95.457 151.988l.321.321a.692.692 0 0 1 .212.487.67.67 0 0 0-.212-.533l-.321-.275ZM96.449 148.452h-.45a4.83 4.83 0 0 0-.542-1.304c.256.415.445.867.56 1.341h.45a.734.734 0 0 1 .513.212.735.735 0 0 1 .213.513v-.055a.717.717 0 0 0-.744-.707ZM87.174 145.817l.524-.524a.713.713 0 0 1 .785-.157c.088.036.167.09.234.157l.33.322c.412-.255.861-.441 1.332-.551v-.046c-.47.11-.92.296-1.332.551l-.33-.322a.713.713 0 0 0-.786-.157.713.713 0 0 0-.233.157l-.524.524a.703.703 0 0 0-.211.532.732.732 0 0 1 .211-.486ZM86.485 148.498h.46c.111-.473.297-.926.55-1.341a4.533 4.533 0 0 0-.532 1.304h-.46a.726.726 0 0 0-.725.716v.056a.727.727 0 0 1 .707-.735Z" fill="#36FDFF"/><path d="M91.472 150.987a1.442 1.442 0 1 0-.001-2.884 1.442 1.442 0 0 0 0 2.884Z" fill="#fff"/><path d="M93.749 166.285H72.114a5.418 5.418 0 0 1-5.418-5.408v.395a5.41 5.41 0 0 0 5.418 5.408h21.635a5.391 5.391 0 0 0 3.827-1.581 5.403 5.403 0 0 0 1.582-3.827v-.395a5.407 5.407 0 0 1-5.41 5.408Z" fill="#004172"/><g opacity=".19" fill="#fff"><path d="M154.035 146.276 59.753 240.53a5.587 5.587 0 0 0 4.84 2.286h9.872l79.57-79.543v-16.997ZM154.007 186.92v-6.282l-60.185 60.186h6.272l53.913-53.904Z"/></g><path d="M116.881 237.564H94.704c-.857 0-1.552.694-1.552 1.552v.009c0 .857.695 1.552 1.552 1.552h22.177c.857 0 1.552-.695 1.552-1.552v-.009c0-.858-.695-1.552-1.552-1.552Z" fill="#D4F0FF"/><path d="M94.704 237.839h22.168a1.554 1.554 0 0 1 1.543 1.414.784.784 0 0 0 0-.137 1.56 1.56 0 0 0-1.561-1.552h-22.15a1.552 1.552 0 0 0-1.552 1.552v.137a1.552 1.552 0 0 1 1.552-1.414Z" fill="#fff"/><path d="M75.98 64.125v4.077a6.06 6.06 0 0 0 6.042 6.042h47.587a6.06 6.06 0 0 0 6.042-6.042v-4.077H75.98Z" fill="#1B343F"/><path opacity=".25" d="M147.525 64.125H64.042a9.605 9.605 0 0 0-9.578 9.578v.34a9.614 9.614 0 0 1 9.578-9.579h83.473a9.607 9.607 0 0 1 9.578 9.578v-.34a9.603 9.603 0 0 0-9.568-9.577Z" fill="#fff"/><path d="M101.738 204.321h-9.449v9.45h9.449v-9.45Z" fill="#00B2E5"/><path d="M157.102 196.36h-9.173v9.173h9.173v-9.173Z" fill="#00C8E5"/><path fill-rule="evenodd" clip-rule="evenodd" d="M129.553 172.052h9.174v9.174h-9.174v-9.174Zm-37.264 13.38h-9.45v9.449h9.45v-9.449Zm18.907 18.889h-9.449v-9.449h-9.45v9.449h9.45v9.45h9.449v-9.45Zm-28.357 18.825v-9.366h9.45V232.596h-9.45v-9.367H73.39v-9.449h9.45v9.366Zm-.009-18.825h-9.449v9.45h9.45v-9.45Zm-18.898 0h9.449v9.45h-9.45v-9.45Zm-9.45 18.908h9.45v-9.449h-9.45v9.449Zm47.265 0h-9.45v-9.449h9.45v9.449Zm27.806-51.177h-9.173v9.174h9.173v-9.174Zm-27.53 9.183h9.173v9.174h-9.173v-9.174Zm18.347-9.183h-9.174v9.174h9.174v-9.174Zm9.183 18.357h-9.173v-9.174h9.173v9.174Z" fill="#004CAE"/><path d="M109.48 67.284H84.566c-.953 0-1.726.77-1.726 1.721 0 .951.773 1.722 1.726 1.722h24.914c.953 0 1.726-.77 1.726-1.722 0-.95-.773-1.721-1.726-1.721Z" fill="#1B202C"/><path d="M122.556 71.884a2.7 2.7 0 1 0 0-5.4 2.7 2.7 0 0 0 0 5.4Z" fill="#1B5962"/><path d="M122.556 71.306a2.122 2.122 0 1 0 0-4.243 2.122 2.122 0 0 0 0 4.243Z" fill="#131A29"/><path d="M122.556 70.939a1.754 1.754 0 1 0 0-3.508 1.754 1.754 0 0 0 0 3.508Z" fill="#131210"/><path opacity=".13" d="M121.5 69.276a1.028 1.028 0 1 0 0-2.056 1.028 1.028 0 0 0 0 2.056ZM123.227 69.249a.514.514 0 1 0 0-1.028.514.514 0 0 0 0 1.028ZM122.529 69.947a.34.34 0 1 0-.001-.68.34.34 0 0 0 .001.68Z" fill="#fff"/><path d="M84.915 173.366a2.21 2.21 0 0 0-2.204 2.203v4.234h-8.467v-4.234a2.212 2.212 0 0 0-2.204-2.203 2.213 2.213 0 0 0-2.213 2.203v76.164h4.417v-5.794h8.467v5.794h4.417v-76.164a2.215 2.215 0 0 0-2.213-2.203Zm-2.204 71.627h-8.467v-7.154h8.467v7.154Zm0-8.146h-8.467v-7.171h8.467v7.171Zm0-8.145h-8.467v-7.172h8.467v7.172Zm0-8.145h-8.467v-7.172h8.467v7.172Zm0-8.145h-8.467v-7.172h8.467v7.172Zm0-8.146h-8.467v-7.199h8.467v7.199Zm0-8.145h-8.467v-7.172h8.467v7.172Zm0-8.145h-8.467v-7.172h8.467v7.172Z" fill="#131A29" style="mix-blend-mode:multiply" opacity=".2"/><path d="M66.09 261.366a2.044 2.044 0 0 1-1.956-1.368 2.05 2.05 0 0 1-.11-.836l5.299-83.565a2.385 2.385 0 0 1 2.35-2.204 2.055 2.055 0 0 1 2.067 2.204l-5.299 83.565a2.395 2.395 0 0 1-2.35 2.204Z" fill="#1877F2"/><path d="M82.61 180.776H71.692a.446.446 0 0 1-.46-.487.524.524 0 0 1 .515-.486h10.918a.457.457 0 0 1 .46.486.524.524 0 0 1-.515.487ZM82.087 188.921H71.168a.448.448 0 0 1-.45-.486.524.524 0 0 1 .514-.487h10.92c.062 0 .124.013.181.037a.472.472 0 0 1 .25.266c.022.058.031.121.027.184a.534.534 0 0 1-.523.486ZM81.572 197.067H70.654a.458.458 0 0 1-.433-.303.456.456 0 0 1-.026-.184.531.531 0 0 1 .523-.487h10.919a.458.458 0 0 1 .432.303c.022.059.03.122.027.184a.532.532 0 0 1-.524.487ZM81.058 205.212H70.14a.457.457 0 0 1-.46-.487.533.533 0 0 1 .524-.486h10.919a.447.447 0 0 1 .45.486.524.524 0 0 1-.515.487ZM80.571 213.357H69.625a.446.446 0 0 1-.459-.486.524.524 0 0 1 .514-.487h10.891a.447.447 0 0 1 .338.141.448.448 0 0 1 .121.346.523.523 0 0 1-.459.486ZM80.02 221.503H69.103a.452.452 0 0 1-.45-.487.522.522 0 0 1 .515-.487h10.918a.458.458 0 0 1 .433.303c.021.059.03.121.026.184a.531.531 0 0 1-.523.487ZM79.506 229.648H68.634a.457.457 0 0 1-.46-.487.531.531 0 0 1 .46-.505h10.918a.458.458 0 0 1 .433.303c.021.059.03.121.026.184a.534.534 0 0 1-.505.505ZM78.992 237.839H68.073a.457.457 0 0 1-.459-.487.533.533 0 0 1 .523-.486h10.92a.45.45 0 0 1 .45.486.524.524 0 0 1-.515.487ZM78.478 245.939H67.559a.464.464 0 0 1-.338-.141.455.455 0 0 1-.12-.346.526.526 0 0 1 .513-.487h10.919a.464.464 0 0 1 .338.141.456.456 0 0 1 .121.346.522.522 0 0 1-.514.487ZM77.954 254.084H67.036a.452.452 0 0 1-.45-.487.522.522 0 0 1 .514-.487H78.02a.458.458 0 0 1 .432.303c.022.059.03.122.027.184a.531.531 0 0 1-.523.487Z" fill="#004CAE"/><path d="M78.974 261.366a2.067 2.067 0 0 1-1.522-.647 2.055 2.055 0 0 1-.554-1.557l5.308-83.565a2.385 2.385 0 0 1 2.342-2.204 2.034 2.034 0 0 1 1.959 1.366c.093.269.13.554.107.838l-5.299 83.565a2.385 2.385 0 0 1-2.341 2.204Z" fill="#1877F2"/><path d="m16.171 247.849 29.386-29.386-.588-.588-29.597 29.652.322.322h.477ZM20.285 247.821l26.098-26.107.11-1.258L19.12 247.83l1.166-.009ZM24.362 247.821l21.69-21.69c0-.423.065-.836.093-1.249l-22.958 22.957 1.175-.018ZM28.43 247.83l17.365-17.337c0-.404 0-.808.065-1.221L27.31 247.83h1.12ZM32.499 247.849l13.177-13.141v-1.185l-14.325 14.326h1.148ZM36.557 247.867l9.046-9.045v-1.148L35.41 247.867h1.148Z" fill="#003A6C"/><path d="M46.457 206.443v45.281H41.8v-40.616a4.654 4.654 0 0 1 4.656-4.665Z" fill="#004CAE"/><path d="M44.867 210.011 7.179 247.698l2.318 2.318 37.688-37.687-2.318-2.318Z" fill="#1877F2"/><path d="M48.78 204.239v47.494h-4.656v-42.839a4.656 4.656 0 0 1 4.656-4.655Z" fill="#1877F2"/><path d="M0 251.733a4.655 4.655 0 0 1 4.656-4.656h42.83v4.656H0Z" fill="#1877F2"/><path d="M13.692 251.733v-4.656h42.83a4.657 4.657 0 0 1 4.655 4.656H13.692Z" fill="#1877F2"/><path d="M45.85 211.218a.763.763 0 1 0 0-1.525.763.763 0 0 0 0 1.525Z" fill="#FFFF34"/><path d="M45.85 211.273a.762.762 0 1 0 0-1.524.762.762 0 0 0 0 1.524Z" fill="#FFC100"/><path d="M45.85 211.062a.551.551 0 1 0 0-1.102.551.551 0 0 0 0 1.102Z" fill="#FFFFAE"/><path d="M45.85 213.908a.762.762 0 1 0 0-1.524.762.762 0 0 0 0 1.524Z" fill="#FFFF34"/><path d="M45.85 213.963a.762.762 0 1 0 0-1.524.762.762 0 0 0 0 1.524Z" fill="#FFC100"/><path d="M45.85 213.752a.55.55 0 1 0 .002-1.101.55.55 0 0 0-.001 1.101Z" fill="#FFFFAE"/><path d="M7.181 249.345a.762.762 0 1 0 0-1.524.762.762 0 0 0 0 1.524Z" fill="#FFFF34"/><path d="M7.181 249.401a.763.763 0 1 0-.001-1.526.763.763 0 0 0 .001 1.526Z" fill="#FFC100"/><path d="M7.18 249.189a.55.55 0 1 0 .002-1.101.55.55 0 0 0-.001 1.101Z" fill="#FFFFAE"/><path d="M10.101 249.345a.762.762 0 1 0 0-1.524.762.762 0 0 0 0 1.524Z" fill="#FFFF34"/><path d="M10.101 249.401a.763.763 0 1 0-.001-1.526.763.763 0 0 0 .001 1.526Z" fill="#FFC100"/><path d="M10.101 249.189a.55.55 0 1 0 .001-1.101.55.55 0 0 0 0 1.101Z" fill="#FFFFAE"/><path d="m195.359 247.849-29.386-29.386.579-.588 29.67 29.68-.322.321-.541-.027ZM191.254 247.821l-26.107-26.107-.11-1.258 27.374 27.374-1.157-.009ZM187.167 247.821l-21.69-21.69c0-.423-.064-.836-.092-1.249l22.958 22.957-1.176-.018ZM183.1 247.83l-17.365-17.337c0-.404 0-.808-.065-1.221l18.587 18.586-1.157-.028ZM179.031 247.849l-13.14-13.141v-1.185l14.325 14.326h-1.185ZM174.972 247.867l-8.999-9.045v-1.148l10.193 10.193h-1.194Z" fill="#003A6C"/><path d="M169.757 251.733h-4.656v-45.281a4.655 4.655 0 0 1 4.656 4.656v40.625Z" fill="#004CAE"/><path d="m166.672 210.01-2.318 2.318 37.687 37.687 2.319-2.318-37.688-37.687Z" fill="#1877F2"/><path d="M167.406 251.724h-4.656v-47.495a4.656 4.656 0 0 1 4.656 4.656v42.839Z" fill="#1877F2"/><path d="M164.036 251.724v-4.656h42.829a4.656 4.656 0 0 1 4.656 4.656h-47.485Z" fill="#1877F2"/><path d="M150.344 251.733a4.655 4.655 0 0 1 4.655-4.656h42.83v4.656h-47.485Z" fill="#1877F2"/><path d="M165.68 211.218a.762.762 0 1 0 0-1.525.762.762 0 0 0 0 1.525Z" fill="#FFFF34"/><path d="M165.68 211.273a.762.762 0 1 0 0-1.524.762.762 0 0 0 0 1.524Z" fill="#FFC100"/><path d="M165.679 211.062a.55.55 0 1 0 0-1.102.55.55 0 0 0 0 1.102Z" fill="#FFFFAE"/><path d="M165.68 213.908a.762.762 0 1 0 0-1.524.762.762 0 0 0 0 1.524Z" fill="#FFFF34"/><path d="M165.68 213.963a.762.762 0 1 0 0-1.524.762.762 0 0 0 0 1.524Z" fill="#FFC100"/><path d="M165.679 213.752a.55.55 0 1 0 .002-1.1.55.55 0 0 0-.002 1.1Z" fill="#FFFFAE"/><path d="M204.349 249.345a.762.762 0 1 0 0-1.524.762.762 0 0 0 0 1.524Z" fill="#FFFF34"/><path d="M204.349 249.401a.763.763 0 1 0-.001-1.525.763.763 0 0 0 .001 1.525Z" fill="#FFC100"/><path d="M204.349 249.189a.55.55 0 1 0 0-1.102.55.55 0 0 0 0 1.102Z" fill="#FFFFAE"/><path d="M201.429 249.345a.762.762 0 1 0 0-1.524.762.762 0 0 0 0 1.524Z" fill="#FFFF34"/><path d="M201.429 249.401a.763.763 0 1 0-.001-1.525.763.763 0 0 0 .001 1.525Z" fill="#FFC100"/><path d="M201.428 249.189a.55.55 0 1 0 .002-1.1.55.55 0 0 0-.002 1.1Z" fill="#FFFFAE"/><path d="M158.278 157.58h4.527v-51.847h-14.619v2.902h-2.976v1.561h-5.023a2.75 2.75 0 0 0-2.745 2.755v33.719c0 .516.164 1.017.468 1.433h-14.133a4.88 4.88 0 0 0-2.911-3.627v-3.196a1.838 1.838 0 0 0-.652-1.405v-29.257a4.855 4.855 0 0 0 2.843-7.268 4.858 4.858 0 0 0-2.273-1.915v-3.177a1.84 1.84 0 0 0-.652-1.414v-4.922a76.912 76.912 0 0 1 32.985-15.51 13.577 13.577 0 0 0 9.706 10.716V73.225a15.415 15.415 0 0 0-4.022-10.368 13.575 13.575 0 0 0-5.904 11.094 79.401 79.401 0 0 0-34.758 16.437 1.22 1.22 0 0 0-.45.918v5.51a1.834 1.834 0 0 0-.643 1.414v3.196a4.87 4.87 0 0 0-2.986 4.881 4.87 4.87 0 0 0 3.721 4.348v29.165a1.842 1.842 0 0 0-.661 1.414v3.196a4.866 4.866 0 0 0-2.727 2.806 4.874 4.874 0 0 0 1.461 5.469 4.883 4.883 0 0 0 5.646.403 8.09 8.09 0 0 0 3.572 3.59l.129.055a7.66 7.66 0 0 0 1.028.423c.35.118.709.204 1.075.257h.238a7.78 7.78 0 0 0 1.13.092h29.606v.055Z" fill="#131A29" style="mix-blend-mode:multiply" opacity=".2"/><path d="M202.595 115.549h-21.011v-2.598a2.752 2.752 0 0 0-2.755-2.755h-27.053a2.755 2.755 0 0 0-2.755 2.755v33.72a2.444 2.444 0 0 0 2.443 2.442h55.585v-29.101a4.462 4.462 0 0 0-4.454-4.463Z" fill="#A8FFFF"/><path d="M205.423 105.733h-52.646v43.353h52.646v-43.353Z" fill="#254793"/><path d="M202.457 149.086h-52.655v-40.451h46.448l6.207 4.812v35.639Z" fill="#3B68B6"/><path d="M196.25 108.635v4.812h6.207l-6.207-4.812Z" fill="#3B92E1"/><path d="M195.597 115.549H174.55v-2.598a2.752 2.752 0 0 0-2.755-2.755h-27.016a2.752 2.752 0 0 0-2.755 2.755v33.72a2.443 2.443 0 0 0 2.443 2.442h55.584v-29.101a4.462 4.462 0 0 0-4.454-4.463Z" fill="#1877F2"/><path d="M182.989 115.549h-8.439v-2.598a2.759 2.759 0 0 0-.734-1.837l-31.783 31.792v3.783a2.443 2.443 0 0 0 2.443 2.443h4.968l33.545-33.583ZM196.479 115.641a4.64 4.64 0 0 0-.918-.092h-5.051l-33.527 33.537h6.015l33.481-33.445ZM199.032 117.147l-31.608 31.617h2.856l29.67-29.707a4.41 4.41 0 0 0-.918-1.91Z" fill="#9BF3FF"/><path d="M144.779 110.444h27.016a2.752 2.752 0 0 1 2.755 2.755v-.248a2.752 2.752 0 0 0-2.755-2.755h-27.016a2.753 2.753 0 0 0-2.755 2.755v.275a2.749 2.749 0 0 1 .797-1.966 2.761 2.761 0 0 1 1.958-.816ZM195.598 115.549H174.55v.276h21.048a4.462 4.462 0 0 1 4.463 4.463v-.276a4.465 4.465 0 0 0-4.463-4.463Z" fill="#DCFFFF"/><path d="M147.194 134.622h19.183v10.056h-15.391a3.793 3.793 0 0 1-3.792-3.793v-6.263ZM166.377 130.609h-19.183v1.828h19.183v-1.828Z" fill="#004CAE"/><path d="M166.377 126.597h-19.183v1.827h19.183v-1.827Z" fill="#1877F2"/><path d="m282.717 47.466-14.98-14.98a1.265 1.265 0 0 0-1.789-.003 1.265 1.265 0 0 0 .003 1.789l14.98 14.98a1.265 1.265 0 0 0 1.789.003 1.265 1.265 0 0 0-.003-1.789Z" fill="#002956"/><path d="m280.925 32.489-14.98 14.98a1.265 1.265 0 0 0-.003 1.789 1.265 1.265 0 0 0 1.789-.003l14.98-14.98a1.265 1.265 0 0 0 .003-1.79 1.265 1.265 0 0 0-1.789.004Z" fill="#003A6C"/><path d="m282.707 63.61-14.98-14.98a1.265 1.265 0 0 0-1.789-.003 1.265 1.265 0 0 0 .003 1.79l14.98 14.98a1.265 1.265 0 0 0 1.789.002 1.265 1.265 0 0 0-.003-1.788Z" fill="#002956"/><path d="m280.927 48.624-14.981 14.98a1.265 1.265 0 0 0-.003 1.79 1.265 1.265 0 0 0 1.789-.004l14.98-14.98a1.264 1.264 0 0 0 .003-1.789 1.264 1.264 0 0 0-1.788.003Z" fill="#003A6C"/><path d="m282.713 79.749-14.98-14.98a1.265 1.265 0 0 0-1.789-.004 1.264 1.264 0 0 0 .003 1.79l14.98 14.98a1.265 1.265 0 0 0 1.789.002 1.265 1.265 0 0 0-.003-1.788Z" fill="#002956"/><path d="m280.929 64.762-14.98 14.98a1.264 1.264 0 0 0-.003 1.79 1.264 1.264 0 0 0 1.788-.004l14.981-14.98a1.265 1.265 0 0 0 .003-1.789 1.265 1.265 0 0 0-1.789.003Z" fill="#003A6C"/><path d="m282.709 95.877-14.98-14.98a1.265 1.265 0 0 0-1.789-.003 1.265 1.265 0 0 0 .003 1.789l14.98 14.98a1.265 1.265 0 0 0 1.789.003 1.265 1.265 0 0 0-.003-1.788Z" fill="#002956"/><path d="m280.924 80.9-14.98 14.98a1.265 1.265 0 0 0-.003 1.79 1.265 1.265 0 0 0 1.789-.004l14.98-14.98a1.265 1.265 0 0 0 .003-1.789 1.265 1.265 0 0 0-1.789.003Z" fill="#003A6C"/><path d="m282.715 112.016-14.98-14.98a1.265 1.265 0 0 0-1.789-.004 1.265 1.265 0 0 0 .003 1.789l14.98 14.98a1.264 1.264 0 0 0 1.789.003 1.264 1.264 0 0 0-.003-1.788Z" fill="#002956"/><path d="m280.928 97.03-14.981 14.979a1.265 1.265 0 0 0-.003 1.789 1.265 1.265 0 0 0 1.789-.003l14.98-14.98a1.264 1.264 0 0 0 .003-1.789 1.264 1.264 0 0 0-1.788.003Z" fill="#003A6C"/><path d="m282.711 128.154-14.98-14.981a1.266 1.266 0 0 0-1.789-.003 1.265 1.265 0 0 0 .003 1.789l14.981 14.98a1.263 1.263 0 1 0 1.785-1.785Z" fill="#002956"/><path d="m280.922 113.167-14.981 14.98a1.266 1.266 0 0 0-.003 1.789 1.265 1.265 0 0 0 1.789-.003l14.98-14.98a1.265 1.265 0 0 0 .004-1.789 1.265 1.265 0 0 0-1.789.003Z" fill="#003A6C"/><path d="m282.71 144.289-14.98-14.98a1.264 1.264 0 0 0-1.789-.003 1.265 1.265 0 0 0 .003 1.788l14.981 14.981a1.265 1.265 0 0 0 1.788.003 1.264 1.264 0 0 0-.003-1.789Z" fill="#002956"/><path d="m280.932 129.312-14.98 14.98a1.265 1.265 0 0 0-.004 1.789 1.265 1.265 0 0 0 1.789-.003l14.981-14.981a1.265 1.265 0 0 0 .003-1.788 1.264 1.264 0 0 0-1.789.003Z" fill="#003A6C"/><path d="m282.706 160.427-14.98-14.98a1.264 1.264 0 0 0-1.789-.003 1.266 1.266 0 0 0 .003 1.789l14.981 14.98a1.265 1.265 0 0 0 1.789.003 1.265 1.265 0 0 0-.004-1.789Z" fill="#002956"/><path d="m280.927 145.441-14.981 14.98a1.265 1.265 0 0 0-.003 1.789 1.266 1.266 0 0 0 1.789-.003l14.98-14.981a1.264 1.264 0 0 0 .003-1.789 1.264 1.264 0 0 0-1.788.004Z" fill="#003A6C"/><path d="m282.713 176.565-14.98-14.98a1.265 1.265 0 0 0-1.789-.003 1.264 1.264 0 0 0 .003 1.789l14.98 14.98a1.265 1.265 0 0 0 1.789.003 1.265 1.265 0 0 0-.003-1.789Z" fill="#002956"/><path d="m280.921 161.579-14.98 14.98a1.265 1.265 0 0 0-.004 1.789 1.266 1.266 0 0 0 1.789-.003l14.98-14.981a1.265 1.265 0 0 0 .004-1.789 1.265 1.265 0 0 0-1.789.004Z" fill="#003A6C"/><path d="m282.71 193.262-14.98-14.98a1.265 1.265 0 0 0-1.789-.004 1.266 1.266 0 0 0 .003 1.789l14.981 14.98a1.264 1.264 0 0 0 1.788.004 1.264 1.264 0 0 0-.003-1.789Z" fill="#002956"/><path d="m280.922 178.285-14.98 14.98a1.265 1.265 0 0 0-.003 1.789 1.265 1.265 0 0 0 1.789-.004l14.98-14.98a1.265 1.265 0 0 0 .003-1.789 1.265 1.265 0 0 0-1.789.004Z" fill="#003A6C"/><path d="m282.717 209.968-14.98-14.98a1.265 1.265 0 0 0-1.789-.004 1.265 1.265 0 0 0 .003 1.789l14.98 14.98a1.265 1.265 0 0 0 1.789.004 1.265 1.265 0 0 0-.003-1.789Z" fill="#002956"/><path d="m280.925 194.991-14.981 14.98a1.266 1.266 0 0 0-.003 1.789 1.265 1.265 0 0 0 1.789-.004l14.98-14.98a1.265 1.265 0 0 0 .004-1.789 1.265 1.265 0 0 0-1.789.004Z" fill="#003A6C"/><path d="m282.709 226.68-14.98-14.98a1.265 1.265 0 0 0-1.789-.003 1.265 1.265 0 0 0 .003 1.789l14.98 14.98a1.265 1.265 0 0 0 1.789.003 1.265 1.265 0 0 0-.003-1.789Z" fill="#002956"/><path d="m280.924 211.703-14.98 14.98a1.265 1.265 0 0 0-.003 1.789 1.265 1.265 0 0 0 1.789-.003l14.98-14.98a1.265 1.265 0 0 0 .003-1.789 1.265 1.265 0 0 0-1.789.003Z" fill="#003A6C"/><path d="M269.392 21.828a2.844 2.844 0 0 0-2.842-2.847 2.844 2.844 0 0 0-2.842 2.847v213.1a2.844 2.844 0 0 0 2.842 2.847 2.844 2.844 0 0 0 2.842-2.847v-213.1ZM285.903 21.828a2.844 2.844 0 0 0-2.842-2.847 2.844 2.844 0 0 0-2.842 2.847v213.1a2.844 2.844 0 0 0 2.842 2.847 2.844 2.844 0 0 0 2.842-2.847v-213.1Z" fill="#1877F2"/><path d="M222.559 144.917a1.23 1.23 0 0 1-1.231-1.231v-37.742a1.23 1.23 0 0 1 2.461 0v37.742a1.23 1.23 0 0 1-1.23 1.231ZM123.585 144.917a1.23 1.23 0 0 1-1.231-1.231v-37.742a1.221 1.221 0 0 1 .319-.938 1.242 1.242 0 0 1 .907-.399 1.238 1.238 0 0 1 .907.399 1.236 1.236 0 0 1 .319.938v37.742a1.22 1.22 0 0 1-1.221 1.231Z" fill="#fff"/><path d="M224.295 141.253a1.883 1.883 0 1 0-3.765 0v4.141a1.883 1.883 0 1 0 3.765 0v-4.141Z" fill="#3B68B6"/><path d="M222.412 153.824a4.876 4.876 0 1 0 0-9.752 4.876 4.876 0 0 0 0 9.752Z" fill="#AFE4FF"/><path d="M222.412 152.162a3.214 3.214 0 1 0 0-6.428 3.214 3.214 0 0 0 0 6.428Z" fill="#7EAADF"/><path d="M222.412 150.619a1.67 1.67 0 1 0 0-3.342 1.67 1.67 0 0 0 0 3.342Z" fill="#5688C1"/><path d="M125.458 141.253a1.883 1.883 0 1 0-3.765 0v4.141a1.883 1.883 0 1 0 3.765 0v-4.141Z" fill="#3B68B6"/><path d="M123.575 153.824a4.877 4.877 0 1 0 0-9.754 4.877 4.877 0 0 0 0 9.754Z" fill="#AFE4FF"/><path d="M123.575 152.162a3.214 3.214 0 1 0 0-6.428 3.214 3.214 0 0 0 0 6.428Z" fill="#7EAADF"/><path d="M123.575 150.619a1.67 1.67 0 1 0 0-3.342 1.67 1.67 0 0 0 0 3.342Z" fill="#5688C1"/><path d="M213.284 157.58h-80.02a8.048 8.048 0 0 1-8.045-8.044h96.109a8.044 8.044 0 0 1-8.044 8.044Z" fill="#1877F2"/><path d="M283.341 234.074h-18.026a10.1 10.1 0 0 0-10.101 10.101h38.219a10.102 10.102 0 0 0-10.092-10.101Z" fill="#004CAE"/><path d="M289.338 241.641h-35.676a10.1 10.1 0 0 0-10.101 10.101h55.85a10.104 10.104 0 0 0-10.073-10.101Z" fill="#1877F2"/><path d="M289.338 241.641h-35.676a10.1 10.1 0 0 0-10.101 10.101 10.099 10.099 0 0 1 10.101-9.871h35.676a10.098 10.098 0 0 1 10.101 9.871c0-2.679-1.064-5.248-2.959-7.142a10.097 10.097 0 0 0-7.142-2.959Z" fill="#FFFF3B"/><path d="M139.517 157.58h5.795l3.324-8.044h-5.795l-3.324 8.044ZM131.399 149.536l-2.754 6.593a8 8 0 0 0 4.591 1.451h.597l3.315-8.044h-5.749ZM171.988 149.536h-5.794l-3.324 8.044h5.794l3.324-8.044ZM160.307 149.536h-5.785l-3.324 8.044h5.794l3.315-8.044ZM195.34 149.536h-5.794l-3.324 8.044h5.794l3.324-8.044ZM209.574 157.58h3.673c.749 0 1.494-.105 2.214-.312l3.186-7.732h-5.785l-3.288 8.044ZM207.012 149.536h-5.795l-3.324 8.044h5.795l3.324-8.044ZM183.66 149.536h-5.795l-3.315 8.044h5.786l3.324-8.044Z" fill="#004CAE"/><path d="M222.402 148.076h-98.257a.569.569 0 0 0-.57.569v.615c0 .315.255.569.57.569h98.257c.315 0 .57-.254.57-.569v-.615a.569.569 0 0 0-.57-.569ZM222.559 99.48a1.228 1.228 0 0 1-1.231-1.231v-6.327a76.87 76.87 0 0 0-96.605 0v6.336a1.23 1.23 0 0 1-2.1.87 1.23 1.23 0 0 1-.361-.87v-6.915a1.215 1.215 0 0 1 .45-.918 79.324 79.324 0 0 1 100.627 0 1.21 1.21 0 0 1 .45.918v6.915a1.23 1.23 0 0 1-1.23 1.221Z" fill="#fff"/><path d="M224.441 98.249a1.883 1.883 0 0 0-3.765 0v4.141a1.883 1.883 0 1 0 3.765 0v-4.141Z" fill="#3B68B6"/><path d="M222.559 110.82a4.876 4.876 0 1 0 0-9.752 4.876 4.876 0 0 0 0 9.752Z" fill="#AFE4FF"/><path d="M222.559 109.158a3.214 3.214 0 1 0 0-6.428 3.214 3.214 0 0 0 0 6.428Z" fill="#7EAADF"/><path d="M222.559 107.615a1.67 1.67 0 1 0 0-3.342 1.67 1.67 0 0 0 0 3.342Z" fill="#5688C1"/><path d="M125.385 98.249a1.883 1.883 0 0 0-3.765 0v4.141a1.882 1.882 0 1 0 3.765 0v-4.141Z" fill="#3B68B6"/><path d="M123.493 110.82a4.876 4.876 0 1 0 0-9.752 4.876 4.876 0 0 0 0 9.752Z" fill="#AFE4FF"/><path d="M123.493 109.158a3.214 3.214 0 1 0 0-6.428 3.214 3.214 0 0 0 0 6.428Z" fill="#7EAADF"/><path d="M123.493 107.615a1.67 1.67 0 1 0 0-3.342 1.67 1.67 0 0 0 0 3.342Z" fill="#5688C1"/><path d="M171.051 76.1a2.055 2.055 0 0 1-1.451-.604 2.046 2.046 0 0 1-.597-1.454V19.33a2.047 2.047 0 0 1 3.94-.783c.103.248.156.514.156.783v54.712a2.058 2.058 0 0 1-.596 1.454 2.059 2.059 0 0 1-1.452.603Z" fill="#fff"/><path d="M171.051 87.624c7.501 0 13.582-6.08 13.582-13.582 0-7.5-6.081-13.581-13.582-13.581s-13.581 6.08-13.581 13.581c0 7.501 6.08 13.582 13.581 13.582Z" fill="#AFE4FF"/><path d="M171.051 82.978c4.935 0 8.935-4 8.935-8.935a8.935 8.935 0 1 0-17.87 0 8.935 8.935 0 0 0 8.935 8.934Z" fill="#7EAADF"/><path d="M171.052 78.707a4.665 4.665 0 1 0 0-9.33 4.665 4.665 0 0 0 0 9.33Z" fill="#004CAE"/><path d="M171.052 69.478a4.655 4.655 0 0 1 4.655 4.592v-.046a4.664 4.664 0 0 0-9.32 0v.046a4.657 4.657 0 0 1 4.665-4.591Z" fill="#FFFF6E"/><path d="m164.298 9.848-7.902 7.902a1.265 1.265 0 0 0-.004 1.789 1.265 1.265 0 0 0 1.789-.003l7.903-7.903a1.265 1.265 0 0 0 .003-1.789 1.265 1.265 0 0 0-1.789.004ZM178.765 9.844l-7.903 7.902a1.265 1.265 0 0 0-.003 1.79 1.265 1.265 0 0 0 1.789-.004l7.902-7.902a1.265 1.265 0 0 0 .004-1.79 1.265 1.265 0 0 0-1.789.004ZM193.241 9.84l-7.903 7.903a1.266 1.266 0 0 0-.003 1.789 1.265 1.265 0 0 0 1.789-.004l7.903-7.902a1.266 1.266 0 0 0 .003-1.789 1.265 1.265 0 0 0-1.789.003ZM207.701 9.852l-7.902 7.903a1.265 1.265 0 0 0-.003 1.789 1.265 1.265 0 0 0 1.789-.004l7.902-7.902a1.265 1.265 0 0 0 .003-1.789 1.265 1.265 0 0 0-1.789.003ZM222.177 9.849l-7.902 7.902a1.265 1.265 0 0 0-.004 1.789 1.265 1.265 0 0 0 1.789-.003l7.903-7.903a1.266 1.266 0 0 0 .003-1.789 1.265 1.265 0 0 0-1.789.004ZM236.653 9.845l-7.902 7.902a1.265 1.265 0 0 0-.004 1.79 1.265 1.265 0 0 0 1.789-.004l7.903-7.902a1.265 1.265 0 0 0 .003-1.79 1.265 1.265 0 0 0-1.789.004ZM251.12 9.85l-7.902 7.903a1.265 1.265 0 0 0-.003 1.789 1.265 1.265 0 0 0 1.789-.004l7.902-7.902a1.265 1.265 0 0 0 .003-1.789 1.265 1.265 0 0 0-1.789.003ZM265.596 9.847l-7.902 7.902a1.265 1.265 0 0 0-.003 1.789 1.265 1.265 0 0 0 1.789-.003l7.902-7.903a1.265 1.265 0 0 0 .003-1.789 1.265 1.265 0 0 0-1.789.004ZM280.063 9.843l-7.902 7.902a1.265 1.265 0 0 0-.004 1.79 1.265 1.265 0 0 0 1.789-.004l7.903-7.902a1.265 1.265 0 0 0 .003-1.79 1.265 1.265 0 0 0-1.789.004Z" fill="#003A6C"/><path d="M312.506 17.778H146.68c-.847 0-1.534.687-1.534 1.534v.009c0 .847.687 1.534 1.534 1.534h165.826c.847 0 1.534-.687 1.534-1.534v-.01c0-.846-.687-1.533-1.534-1.533ZM312.515 8.76H156.643c-.847 0-1.533.687-1.533 1.534v.01c0 .846.686 1.533 1.533 1.533h155.872c.847 0 1.534-.687 1.534-1.534v-.009c0-.847-.687-1.533-1.534-1.533Z" fill="#1877F2"/><path d="M147.276 20.533a1.634 1.634 0 0 1-1.056-2.893l8.981-8.264a1.64 1.64 0 0 1 2.31.197 1.637 1.637 0 0 1-.198 2.31l-8.98 8.264c-.296.25-.67.387-1.057.386ZM296.591 4.031a4.03 4.03 0 1 0-8.062 0v21.332a4.031 4.031 0 0 0 8.062 0V4.031Z" fill="#1877F2"/><path d="M306.941 4.031a4.031 4.031 0 0 0-8.063 0v21.332a4.032 4.032 0 0 0 8.063 0V4.031Z" fill="#2182FF"/><path d="M317.3 4.031a4.031 4.031 0 0 0-8.063 0v21.332a4.032 4.032 0 0 0 8.063 0V4.031Z" fill="#004CAE"/><path d="M171.051 27.806a8.476 8.476 0 1 0 0-16.952 8.476 8.476 0 0 0 0 16.952Z" fill="#AFE4FF"/><path d="M171.052 24.904a5.574 5.574 0 1 0 0-11.148 5.574 5.574 0 0 0 0 11.148Z" fill="#7EAADF"/><path d="M171.052 22.241a2.911 2.911 0 1 0 0-5.823 2.911 2.911 0 0 0 0 5.823Z" fill="#004CAE"/><path d="M171.051 16.474a2.91 2.91 0 0 1 2.902 2.884 2.915 2.915 0 0 0-.791-2.163 2.909 2.909 0 0 0-4.231 0 2.91 2.91 0 0 0-.791 2.163 2.924 2.924 0 0 1 2.911-2.884Z" fill="#FFFF6E"/><path d="M136.952 212.31h-.386a4.044 4.044 0 0 0-.468-1.138l.275-.276a.616.616 0 0 0 .202-.459.621.621 0 0 0-.202-.459l-.45-.45a.623.623 0 0 0-.872 0l-.275.275a4.062 4.062 0 0 0-1.139-.468v-.386a.625.625 0 0 0-.615-.624h-.625a.625.625 0 0 0-.624.624v.386c-.399.097-.78.255-1.13.468l-.275-.275a.63.63 0 0 0-.71-.149.63.63 0 0 0-.209.149l-.45.45a.613.613 0 0 0-.201.459.621.621 0 0 0 .201.459l.276.276a3.764 3.764 0 0 0-.468 1.138h-.395a.616.616 0 0 0-.616.615v.625a.61.61 0 0 0 .177.441.623.623 0 0 0 .439.183h.395c.092.4.251.782.468 1.13l-.276.275a.648.648 0 0 0-.197.459.633.633 0 0 0 .197.46l.45.44a.616.616 0 0 0 .46.202.617.617 0 0 0 .459-.202l.275-.275c.348.217.73.376 1.13.468v.395c0 .082.016.162.047.238a.623.623 0 0 0 .577.377h.625c.08 0 .16-.016.235-.046a.628.628 0 0 0 .333-.333.617.617 0 0 0 .047-.236v-.413a3.806 3.806 0 0 0 1.139-.468l.275.275a.624.624 0 0 0 .872 0l.45-.441a.622.622 0 0 0 .197-.459.632.632 0 0 0-.197-.459l-.275-.276a3.99 3.99 0 0 0 .468-1.129h.386a.617.617 0 0 0 .624-.624v-.625a.613.613 0 0 0-.624-.597Zm-4.243 3.279a2.347 2.347 0 0 1-2.172-1.452 2.355 2.355 0 0 1 1.714-3.205 2.347 2.347 0 0 1 2.413 1 2.36 2.36 0 0 1 .22 2.207 2.343 2.343 0 0 1-2.175 1.45Z" fill="#004CAE"/><path d="M132.709 214.468a1.23 1.23 0 1 0 0-2.461 1.23 1.23 0 0 0 0 2.461ZM134.363 226.03h-.68a7.073 7.073 0 0 0-.817-1.975l.477-.486a1.063 1.063 0 0 0 .317-.763 1.078 1.078 0 0 0-.317-.762l-.78-.771a1.078 1.078 0 0 0-1.175-.235c-.131.055-.25.134-.35.235l-.477.477a6.86 6.86 0 0 0-1.984-.817v-.679a1.063 1.063 0 0 0-.661-1.001 1.065 1.065 0 0 0-.413-.083h-1.102a1.065 1.065 0 0 0-.763.318 1.063 1.063 0 0 0-.311.766v.679a6.755 6.755 0 0 0-1.984.817l-.478-.477a1.064 1.064 0 0 0-.762-.317 1.078 1.078 0 0 0-.762.317l-.78.771c-.101.1-.181.219-.235.35a1.06 1.06 0 0 0 0 .825c.054.131.134.25.235.35l.477.486a6.78 6.78 0 0 0-.817 1.975h-.68a1.083 1.083 0 0 0-.763.318 1.059 1.059 0 0 0-.311.765v1.093a1.085 1.085 0 0 0 .311.766 1.094 1.094 0 0 0 .763.318h.707c.167.7.443 1.369.818 1.983l-.478.478a1.08 1.08 0 0 0-.317.762c0 .141.028.282.082.413.055.13.135.249.235.349l.781.771a1.059 1.059 0 0 0 .762.318 1.065 1.065 0 0 0 .762-.318l.478-.477a6.76 6.76 0 0 0 1.983.826v.671c-.001.142.026.282.079.414a1.09 1.09 0 0 0 .582.587c.131.054.272.082.413.082h1.102a1.066 1.066 0 0 0 .763-.318 1.077 1.077 0 0 0 .312-.765v-.671c.7-.169 1.37-.448 1.983-.826l.478.477a1.059 1.059 0 0 0 .762.318 1.065 1.065 0 0 0 .762-.318l.781-.771c.1-.1.18-.219.235-.349a1.086 1.086 0 0 0 0-.826 1.08 1.08 0 0 0-.235-.349l-.478-.478a7.136 7.136 0 0 0 .818-1.983h.679a1.084 1.084 0 0 0 .763-.318 1.073 1.073 0 0 0 .312-.766v-1.093a1.08 1.08 0 0 0-.681-1.009 1.063 1.063 0 0 0-.421-.074Zm-7.411 5.776a4.107 4.107 0 0 1-2.903-7.008 4.103 4.103 0 0 1 6.316.622 4.107 4.107 0 0 1-3.413 6.386Z" fill="#004CAE"/><path d="M126.952 229.813a2.149 2.149 0 1 0-.001-4.297 2.149 2.149 0 0 0 .001 4.297ZM146.227 220.474h-.45a4.676 4.676 0 0 0-.561-1.341l.322-.321a.714.714 0 0 0 .157-.786.71.71 0 0 0-.157-.233l-.514-.524a.736.736 0 0 0-.515-.214.719.719 0 0 0-.514.214l-.321.322a4.443 4.443 0 0 0-1.332-.551v-.46a.732.732 0 0 0-.725-.725h-.735a.726.726 0 0 0-.725.725v.46c-.471.11-.921.296-1.332.551l-.33-.322a.714.714 0 0 0-.786-.157.714.714 0 0 0-.234.157l-.523.524a.713.713 0 0 0 0 1.019l.321.321a4.635 4.635 0 0 0-.551 1.341h-.459a.726.726 0 0 0-.725.716v.744a.734.734 0 0 0 .725.726h.459c.113.47.299.919.551 1.331l-.321.321a.72.72 0 0 0-.214.515.719.719 0 0 0 .214.514l.523.514a.717.717 0 0 0 1.02 0l.33-.321c.411.254.861.44 1.332.551v.459a.718.718 0 0 0 .212.513.718.718 0 0 0 .513.212h.735a.713.713 0 0 0 .513-.212.718.718 0 0 0 .212-.513v-.459a4.495 4.495 0 0 0 1.332-.551l.321.321a.72.72 0 0 0 .514.214.72.72 0 0 0 .515-.214l.514-.514a.725.725 0 0 0 0-1.029l-.322-.321c.256-.411.445-.861.561-1.331h.45a.733.733 0 0 0 .67-.448.737.737 0 0 0 .055-.278v-.744a.713.713 0 0 0-.448-.664.714.714 0 0 0-.277-.052Zm-4.978 3.848a2.754 2.754 0 0 1-2.545-1.701 2.762 2.762 0 0 1-.157-1.592 2.761 2.761 0 0 1 2.165-2.164 2.755 2.755 0 1 1 .537 5.457Z" fill="#004CAE"/><path d="M141.249 223.008a1.441 1.441 0 1 0 .002-2.882 1.441 1.441 0 0 0-.002 2.882Z" fill="#004CAE"/></svg>