<svg width="215" height="198" fill="none" xmlns="http://www.w3.org/2000/svg"><g opacity=".1"><path d="M156.11 175a3.223 3.223 0 0 1-2.976-1.99 3.224 3.224 0 0 1 .703-3.51 3.218 3.218 0 0 1 4.955.498 3.22 3.22 0 0 1 .538 1.792 3.211 3.211 0 0 1-3.22 3.21Zm0-5.68a2.473 2.473 0 0 0-2.282 1.525 2.467 2.467 0 0 0 3.227 3.227 2.473 2.473 0 0 0 1.525-2.282 2.473 2.473 0 0 0-2.47-2.5v.03ZM13.5 53a3.21 3.21 0 1 1 0-6.418 3.21 3.21 0 0 1 0 6.418Zm0-5.67a2.46 2.46 0 1 0 2.5 2.49 2.457 2.457 0 0 0-2.5-2.46v-.03ZM115.86 7.5a3.208 3.208 0 0 1-2.958-1.989 3.205 3.205 0 0 1 .702-3.494 3.207 3.207 0 0 1 3.497-.692 3.208 3.208 0 0 1 1.035 5.238 3.212 3.212 0 0 1-2.276.937Zm0-5.67a2.46 2.46 0 1 0 .02 4.92 2.46 2.46 0 0 0-.02-4.92ZM47.27 21.51a3.22 3.22 0 1 1-.02-6.44 3.22 3.22 0 0 1 .02 6.44Zm0-5.68a2.47 2.47 0 1 0-.02 4.939 2.47 2.47 0 0 0 .02-4.939ZM212.55 75.33a.382.382 0 0 1-.38-.38v-3.77a.375.375 0 0 1 .085-.308.384.384 0 0 1 .45-.098.384.384 0 0 1 .206.243.375.375 0 0 1 .009.163V75a.38.38 0 0 1-.37.33Z" fill="#fff"/><path d="M214.43 73.44h-3.77a.379.379 0 0 1-.307-.665.378.378 0 0 1 .307-.085h3.77a.378.378 0 0 1 .407.215.382.382 0 0 1-.099.45.382.382 0 0 1-.308.085ZM160.84 14.55a.38.38 0 0 1-.38-.37V10.4a.374.374 0 0 1 .112-.265.365.365 0 0 1 .268-.105.357.357 0 0 1 .265.105.368.368 0 0 1 .105.265v3.78a.371.371 0 0 1-.37.37Z" fill="#fff"/><path d="M162.73 12.66H159a.372.372 0 0 1-.262-.635.38.38 0 0 1 .262-.115h3.78a.38.38 0 0 1 .244.661.36.36 0 0 1-.294.089ZM198.42 124.59a.366.366 0 0 1-.265-.105.37.37 0 0 1-.105-.265v-3.77a.358.358 0 0 1 .105-.268.378.378 0 0 1 .645.268v3.77a.378.378 0 0 1-.112.265.358.358 0 0 1-.268.105Z" fill="#fff"/><path d="M200.31 122.71h-3.78a.38.38 0 0 1 0-.75h3.78a.38.38 0 0 1 0 .75ZM54.14 14a.36.36 0 0 1-.37-.37V9.82a.37.37 0 0 1 .37-.37.38.38 0 0 1 .38.37v3.78a.371.371 0 0 1-.38.4Z" fill="#fff"/><path d="M56 12.09h-3.78a.38.38 0 0 1-.37-.38.37.37 0 0 1 .37-.37H56a.36.36 0 0 1 .37.37.371.371 0 0 1-.37.38ZM147.42 179.7a.381.381 0 0 1-.37-.38v-3.77a.374.374 0 0 1 .085-.307.382.382 0 0 1 .58 0 .392.392 0 0 1 .085.307v3.77c0 .101-.04.197-.111.269a.382.382 0 0 1-.269.111Z" fill="#fff"/><path d="M149.31 177.81h-3.77a.374.374 0 0 1-.307-.085.382.382 0 0 1 0-.58.392.392 0 0 1 .307-.085h3.77a.396.396 0 0 1 .308.085.379.379 0 0 1 .133.29.379.379 0 0 1-.441.375ZM105.81 19.63a.382.382 0 0 1-.38-.38v-3.77a.38.38 0 0 1 .524-.35.364.364 0 0 1 .226.35v3.77a.358.358 0 0 1-.105.268.36.36 0 0 1-.265.112Z" fill="#fff"/><path d="M107.7 17.74h-3.78a.379.379 0 0 1-.228-.621.379.379 0 0 1 .228-.129h3.78a.379.379 0 0 1 .228.621.379.379 0 0 1-.228.129Z" fill="#fff"/><path d="M113.43 22.8a9.253 9.253 0 0 0 1.3 8.13c6.29 9 25.54-4.94 31.11-9.38a22.419 22.419 0 0 0 6-6.54c6.12-11.26-9-13.86-16.7-11.6-6.44 1.9-19.27 10.59-21.71 19.39Z" fill="url(#a)"/><path d="M88.69 42.48c15 2.9 18.11-19.66 4.34-23.39-14.58-3.94-19.32 20.49-4.34 23.39Z" fill="url(#b)"/><path d="M201.27 36C197 27.09 188.77 19.61 179 18.2c-11.85-1.71-23.11 5.41-32.21 13.2-9.1 7.79-17.79 16.83-29.3 20.31-20.49 6.21-41.71-7.36-63.12-7.5a51.35 51.35 0 0 0-37.43 16.16c-35.47 38.16-.09 99.39 40.56 116.19 32.82 13.57 72.13 5.91 100.85-15 27.39-19.93 44.26-54.91 47.39-88.65.253-2.667.417-5.307.49-7.92.28-9.88-.65-20.07-4.96-28.99Z" fill="url(#c)"/></g><defs><linearGradient id="a" x1="130.09" y1="-5.86" x2="138.21" y2="57.56" gradientUnits="userSpaceOnUse"><stop stop-color="#48D6CA"/><stop offset=".11" stop-color="#48CFCB"/><stop offset=".27" stop-color="#4ABACF"/><stop offset=".47" stop-color="#4B99D5"/><stop offset=".69" stop-color="#4E6ADD"/><stop offset=".93" stop-color="#512FE7"/><stop offset="1" stop-color="#521CEA"/></linearGradient><linearGradient id="b" x1="86.63" y1="-.56" x2="94.81" y2="63.3" gradientUnits="userSpaceOnUse"><stop stop-color="#48D6CA"/><stop offset=".11" stop-color="#48CFCB"/><stop offset=".27" stop-color="#4ABACF"/><stop offset=".47" stop-color="#4B99D5"/><stop offset=".69" stop-color="#4E6ADD"/><stop offset=".93" stop-color="#512FE7"/><stop offset="1" stop-color="#521CEA"/></linearGradient><linearGradient id="c" x1="105.46" y1="24.33" x2="101.89" y2="197.53" gradientUnits="userSpaceOnUse"><stop stop-color="#48D6CA"/><stop offset=".11" stop-color="#48CFCB"/><stop offset=".27" stop-color="#4ABACF"/><stop offset=".47" stop-color="#4B99D5"/><stop offset=".69" stop-color="#4E6ADD"/><stop offset=".93" stop-color="#512FE7"/><stop offset="1" stop-color="#521CEA"/></linearGradient></defs></svg>