<svg width="285" height="278" viewBox="0 0 285 278" fill="none" xmlns="http://www.w3.org/2000/svg">
<path d="M144.543 262.8C208.964 262.8 261.111 210.588 261.111 146.231C261.111 81.8753 208.899 29.663 144.543 29.663C80.1864 29.663 27.9741 81.8104 27.9741 146.167C27.9741 210.523 80.1864 262.8 144.543 262.8Z" fill="url(#paint0_linear_1811_6661)"/>
<path d="M207.47 56.7433H78.3031C70.2504 56.7433 63.7563 63.3023 63.7563 71.29H222.082C222.017 63.2373 215.523 56.7433 207.47 56.7433Z" fill="url(#paint1_linear_1811_6661)"/>
<path d="M63.7563 70.9003H222.082V191.495C222.082 196.885 219.939 202.016 216.172 205.782C212.406 209.549 207.21 211.692 201.885 211.692H83.9529C78.5628 211.692 73.4325 209.549 69.666 205.782C65.8994 202.016 63.7563 196.82 63.7563 191.495V70.9003Z" fill="url(#paint2_linear_1811_6661)"/>
<path d="M194.807 86.1614H90.9668C88.8237 86.1614 87.0703 87.9148 87.0703 90.0578C87.0703 92.2009 88.8237 93.9542 90.9668 93.9542H194.807C196.95 93.9542 198.703 92.2009 198.703 90.0578C198.768 87.9148 197.015 86.1614 194.807 86.1614Z" fill="url(#paint3_linear_1811_6661)"/>
<path d="M194.807 119.346H90.9668C88.8237 119.346 87.0703 121.099 87.0703 123.242C87.0703 125.386 88.8237 127.139 90.9668 127.139H194.807C196.95 127.139 198.703 125.386 198.703 123.242C198.768 121.099 197.015 119.346 194.807 119.346Z" fill="url(#paint4_linear_1811_6661)"/>
<path d="M194.807 152.596H90.9668C88.8237 152.596 87.0703 154.349 87.0703 156.492C87.0703 158.635 88.8237 160.389 90.9668 160.389H194.807C196.95 160.389 198.703 158.635 198.703 156.492C198.768 154.349 197.015 152.596 194.807 152.596Z" fill="url(#paint5_linear_1811_6661)"/>
<path d="M194.807 185.845H90.9668C88.8237 185.845 87.0703 187.599 87.0703 189.742C87.0703 191.885 88.8237 193.638 90.9668 193.638H194.807C196.95 193.638 198.703 191.885 198.703 189.742C198.703 187.599 197.015 185.845 194.807 185.845Z" fill="url(#paint6_linear_1811_6661)"/>
<g filter="url(#filter0_d_1811_6661)">
<path d="M90.3172 145.452H35.0526C30.6367 145.452 27 149.024 27 153.505V232.538C27 236.954 30.5717 240.59 35.0526 240.59H90.3172C94.7331 240.59 98.3698 237.019 98.3698 232.538V153.505C98.3048 149.089 94.7331 145.452 90.3172 145.452Z" fill="url(#paint7_linear_1811_6661)"/>
</g>
<g filter="url(#filter1_d_1811_6661)">
<path d="M247.668 22H186.624C183.767 22 181.494 24.3379 181.494 27.1303V55.8341C181.494 58.6915 183.831 60.9644 186.624 60.9644H247.668C250.526 60.9644 252.799 58.6265 252.799 55.8341V27.1953C252.863 24.3379 250.526 22 247.668 22Z" fill="url(#paint8_linear_1811_6661)"/>
</g>
<path d="M84.1479 185.001H41.2221C39.7934 185.001 38.6245 186.17 38.6245 187.599C38.6245 189.027 39.7934 190.196 41.2221 190.196H84.1479C85.5766 190.196 86.7455 189.027 86.7455 187.599C86.7455 186.17 85.5766 185.001 84.1479 185.001Z" fill="url(#paint9_linear_1811_6661)"/>
<path d="M84.1479 221.887H41.5468C40.1182 221.887 38.9492 222.991 38.9492 224.42C38.9492 225.849 40.1182 226.953 41.5468 226.953H84.1479C85.5766 226.953 86.7456 225.849 86.7456 224.42C86.7456 223.056 85.5766 221.887 84.1479 221.887Z" fill="url(#paint10_linear_1811_6661)"/>
<path d="M84.1479 202.6H41.5468C40.1182 202.6 38.9492 203.704 38.9492 205.133C38.9492 206.561 40.1182 207.665 41.5468 207.665H84.1479C85.5766 207.665 86.7456 206.561 86.7456 205.133C86.7456 203.769 85.5766 202.6 84.1479 202.6Z" fill="url(#paint11_linear_1811_6661)"/>
<path d="M56.8729 157.661H44.3393C41.5469 157.661 39.2739 159.934 39.2739 162.726V166.233C39.2739 169.026 41.5469 171.299 44.3393 171.299H56.8729C59.6653 171.299 61.9382 169.026 61.9382 166.233V162.726C61.9382 159.934 59.6653 157.661 56.8729 157.661Z" fill="url(#paint12_linear_1811_6661)"/>
<path d="M196.56 47.4567C199.807 47.4567 202.47 44.7942 202.47 41.5471C202.47 38.3001 199.807 35.6375 196.56 35.6375C193.313 35.6375 190.65 38.3001 190.65 41.5471C190.65 44.7942 193.248 47.4567 196.56 47.4567Z" fill="#81D5E7"/>
<path d="M217.731 47.4567C220.978 47.4567 223.64 44.7942 223.64 41.5471C223.64 38.3001 220.978 35.6375 217.731 35.6375C214.484 35.6375 211.821 38.3001 211.821 41.5471C211.821 44.7942 214.419 47.4567 217.731 47.4567Z" fill="#81D5E7"/>
<path d="M238.901 47.4567C242.148 47.4567 244.811 44.7942 244.811 41.5471C244.811 38.3001 242.148 35.6375 238.901 35.6375C235.654 35.6375 232.992 38.3001 232.992 41.5471C232.992 44.7942 235.589 47.4567 238.901 47.4567Z" fill="#81D5E7"/>
<path d="M222.796 188.768L207.795 205.327L250.071 243.707L265.073 227.148L222.796 188.768Z" fill="url(#paint13_linear_1811_6661)"/>
<path fill-rule="evenodd" clip-rule="evenodd" d="M238.642 161.363C238.642 195.976 210.587 224.03 175.974 224.03C141.361 224.03 113.306 195.976 113.306 161.363C113.306 126.749 141.361 98.6949 175.974 98.6949C210.587 98.6949 238.642 126.749 238.642 161.363ZM229.03 161.363C229.03 190.651 205.262 214.419 175.974 214.419C146.686 214.419 122.917 190.651 122.917 161.363C122.917 132.074 146.686 108.306 175.974 108.306C205.327 108.306 229.03 132.074 229.03 161.363Z" fill="url(#paint14_linear_1811_6661)"/>
<path d="M176.039 214.419C205.327 214.419 229.095 190.651 229.095 161.363C229.095 132.074 205.327 108.306 176.039 108.306C146.751 108.306 122.982 132.074 122.982 161.363C122.982 190.651 146.686 214.419 176.039 214.419Z" fill="url(#paint15_linear_1811_6661)" fill-opacity="0.2"/>
<path d="M188.767 161.363L203.963 146.167C205.392 144.673 206.171 142.66 206.106 140.582C206.106 138.504 205.262 136.555 203.768 135.062C202.275 133.568 200.327 132.789 198.248 132.724C196.17 132.724 194.157 133.503 192.664 134.867L177.467 150.063L162.271 134.867C161.557 134.088 160.648 133.503 159.674 133.049C158.7 132.594 157.661 132.399 156.557 132.399C155.517 132.399 154.414 132.594 153.439 132.984C152.465 133.373 151.556 133.958 150.777 134.737C149.998 135.516 149.413 136.361 149.023 137.4C148.634 138.374 148.439 139.413 148.439 140.517C148.439 141.556 148.699 142.66 149.088 143.634C149.543 144.608 150.127 145.452 150.907 146.231L166.103 161.428L151.102 176.559C150.322 177.273 149.738 178.182 149.283 179.156C148.829 180.131 148.634 181.17 148.634 182.274C148.634 183.313 148.829 184.417 149.218 185.391C149.608 186.365 150.192 187.274 150.972 188.053C151.751 188.833 152.595 189.417 153.634 189.807C154.608 190.196 155.647 190.391 156.751 190.391C157.79 190.391 158.894 190.131 159.869 189.742C160.843 189.287 161.752 188.703 162.466 187.923L177.662 172.727L192.858 187.923C194.352 189.287 196.365 190.002 198.378 189.872C200.392 189.807 202.34 188.962 203.768 187.534C205.197 186.105 206.041 184.157 206.106 182.144C206.171 180.131 205.457 178.182 204.093 176.624L188.767 161.363Z" fill="url(#paint16_linear_1811_6661)"/>
<path d="M177.792 196.171C198.379 196.171 215.068 193.7 215.068 190.651C215.068 187.602 198.379 185.131 177.792 185.131C157.205 185.131 140.516 187.602 140.516 190.651C140.516 193.7 157.205 196.171 177.792 196.171Z" fill="black"/>
<path d="M134.671 227.277C135.191 225.069 138.308 225.069 138.828 227.277L140.581 234.616C140.776 235.395 141.36 235.979 142.14 236.174L149.478 237.928C151.686 238.447 151.686 241.564 149.478 242.084L142.14 243.837C141.36 244.032 140.776 244.617 140.581 245.396L138.828 252.734C138.308 254.942 135.191 254.942 134.671 252.734L132.918 245.396C132.723 244.617 132.139 244.032 131.36 243.837L124.021 242.084C121.813 241.564 121.813 238.447 124.021 237.928L131.36 236.174C132.139 235.979 132.723 235.395 132.918 234.616L134.671 227.277Z" fill="url(#paint17_linear_1811_6661)"/>
<path d="M50.3141 32.0658C50.8336 29.8578 53.9507 29.8578 54.4703 32.0658L56.2237 39.4041C56.4185 40.1834 57.003 40.7679 57.7822 40.9627L65.1205 42.7161C67.3285 43.2356 67.3285 46.3528 65.1205 46.8723L57.7822 48.6257C57.003 48.8205 56.4185 49.405 56.2237 50.1842L54.4703 57.5225C53.9507 59.7305 50.8336 59.7305 50.3141 57.5225L48.5607 50.1842C48.3659 49.405 47.7814 48.8205 47.0021 48.6257L39.6638 46.8723C37.4558 46.3528 37.4558 43.2356 39.6638 42.7161L47.0021 40.9627C47.7814 40.7679 48.3659 40.1834 48.5607 39.4041L50.3141 32.0658Z" fill="url(#paint18_linear_1811_6661)"/>
<path fill-rule="evenodd" clip-rule="evenodd" d="M139.932 33.2997C141.88 33.2997 143.503 31.6761 143.503 29.7279C143.503 27.7797 141.88 26.1562 139.932 26.1562C137.983 26.1562 136.36 27.7797 136.36 29.7279C136.36 31.6761 137.918 33.2997 139.932 33.2997ZM139.932 35.9622C143.373 35.9622 146.166 33.1698 146.166 29.7279C146.166 26.2861 143.373 23.4936 139.932 23.4936C136.49 23.4936 133.697 26.2861 133.697 29.7279C133.697 33.1698 136.49 35.9622 139.932 35.9622Z" fill="url(#paint19_linear_1811_6661)"/>
<path d="M250.591 131.295C250.266 129.996 251.5 128.762 252.799 129.152L261.696 131.685C262.994 132.074 263.449 133.698 262.475 134.672L255.851 141.101C254.877 142.075 253.253 141.621 252.864 140.257L250.591 131.295Z" fill="url(#paint20_linear_1811_6661)"/>
<path d="M41.9363 116.034C43.2351 115.709 44.469 116.943 44.0793 118.242L41.5467 127.139C41.157 128.438 39.5335 128.892 38.5594 127.918L32.1303 121.294C31.1562 120.32 31.6108 118.697 32.9745 118.307L41.9363 116.034Z" fill="url(#paint21_linear_1811_6661)"/>
<path d="M211.691 239.032C212.99 238.707 214.224 239.941 213.834 241.24L211.302 250.137C210.912 251.435 209.288 251.89 208.314 250.916L201.885 244.292C200.911 243.318 201.366 241.694 202.729 241.305L211.691 239.032Z" fill="url(#paint22_linear_1811_6661)"/>
<path fill-rule="evenodd" clip-rule="evenodd" d="M258.838 85.1223C260.787 85.1223 262.41 83.4988 262.41 81.5506C262.41 79.6024 260.787 77.9788 258.838 77.9788C256.89 77.9788 255.267 79.6024 255.267 81.5506C255.267 83.4988 256.89 85.1223 258.838 85.1223ZM258.838 87.7849C262.28 87.7849 265.073 84.9924 265.073 81.5506C265.073 78.1087 262.28 75.3163 258.838 75.3163C255.396 75.3163 252.604 78.1087 252.604 81.5506C252.604 84.9924 255.396 87.7849 258.838 87.7849Z" fill="url(#paint23_linear_1811_6661)"/>
<path d="M250.071 243.642L265.073 227.083L267.345 229.161C269.553 231.174 270.852 233.901 270.982 236.889C271.112 239.876 270.073 242.733 268.125 244.941C266.112 247.149 263.384 248.448 260.397 248.578C257.41 248.708 254.552 247.669 252.344 245.721L250.071 243.642Z" fill="#65C8DE"/>
<defs>
<filter id="filter0_d_1811_6661" x="0" y="122.452" width="131.37" height="155.138" filterUnits="userSpaceOnUse" color-interpolation-filters="sRGB">
<feFlood flood-opacity="0" result="BackgroundImageFix"/>
<feColorMatrix in="SourceAlpha" type="matrix" values="0 0 0 0 0 0 0 0 0 0 0 0 0 0 0 0 0 0 127 0" result="hardAlpha"/>
<feOffset dx="3" dy="7"/>
<feGaussianBlur stdDeviation="15"/>
<feColorMatrix type="matrix" values="0 0 0 0 0.105882 0 0 0 0 0.466667 0 0 0 0 0.545098 0 0 0 0.15 0"/>
<feBlend mode="normal" in2="BackgroundImageFix" result="effect1_dropShadow_1811_6661"/>
<feBlend mode="normal" in="SourceGraphic" in2="effect1_dropShadow_1811_6661" result="shape"/>
</filter>
<filter id="filter1_d_1811_6661" x="161.494" y="0" width="123.306" height="90.9644" filterUnits="userSpaceOnUse" color-interpolation-filters="sRGB">
<feFlood flood-opacity="0" result="BackgroundImageFix"/>
<feColorMatrix in="SourceAlpha" type="matrix" values="0 0 0 0 0 0 0 0 0 0 0 0 0 0 0 0 0 0 127 0" result="hardAlpha"/>
<feOffset dx="6" dy="4"/>
<feGaussianBlur stdDeviation="13"/>
<feColorMatrix type="matrix" values="0 0 0 0 0.105882 0 0 0 0 0.466667 0 0 0 0 0.545098 0 0 0 0.09 0"/>
<feBlend mode="normal" in2="BackgroundImageFix" result="effect1_dropShadow_1811_6661"/>
<feBlend mode="normal" in="SourceGraphic" in2="effect1_dropShadow_1811_6661" result="shape"/>
</filter>
<linearGradient id="paint0_linear_1811_6661" x1="143.64" y1="-8.37275" x2="146.03" y2="401.072" gradientUnits="userSpaceOnUse">
<stop stop-color="white" stop-opacity="0"/>
<stop offset="1" stop-color="#8EE2F4"/>
</linearGradient>
<linearGradient id="paint1_linear_1811_6661" x1="63.633" y1="58.9253" x2="222.199" y2="70.1016" gradientUnits="userSpaceOnUse">
<stop stop-color="#90E3F5"/>
<stop offset="1" stop-color="#65C8DE"/>
</linearGradient>
<linearGradient id="paint2_linear_1811_6661" x1="59.6326" y1="139.64" x2="288.334" y2="143.705" gradientUnits="userSpaceOnUse">
<stop stop-color="white"/>
<stop offset="1" stop-color="#BCF3FF"/>
</linearGradient>
<linearGradient id="paint3_linear_1811_6661" x1="82.3556" y1="90.0578" x2="205.347" y2="90.0578" gradientUnits="userSpaceOnUse">
<stop stop-color="#65C8DE"/>
<stop offset="1" stop-color="#D2F7FF"/>
</linearGradient>
<linearGradient id="paint4_linear_1811_6661" x1="82.3556" y1="123.242" x2="205.347" y2="123.242" gradientUnits="userSpaceOnUse">
<stop stop-color="#65C8DE"/>
<stop offset="1" stop-color="#D2F7FF"/>
</linearGradient>
<linearGradient id="paint5_linear_1811_6661" x1="82.3556" y1="156.492" x2="205.347" y2="156.492" gradientUnits="userSpaceOnUse">
<stop stop-color="#65C8DE"/>
<stop offset="1" stop-color="#D2F7FF"/>
</linearGradient>
<linearGradient id="paint6_linear_1811_6661" x1="82.3556" y1="189.742" x2="205.347" y2="189.742" gradientUnits="userSpaceOnUse">
<stop stop-color="#65C8DE"/>
<stop offset="1" stop-color="#D2F7FF"/>
</linearGradient>
<linearGradient id="paint7_linear_1811_6661" x1="27.0065" y1="190.092" x2="163.81" y2="201.327" gradientUnits="userSpaceOnUse">
<stop stop-color="white"/>
<stop offset="1" stop-color="#BCF3FF"/>
</linearGradient>
<linearGradient id="paint8_linear_1811_6661" x1="179.63" y1="40.3977" x2="282.691" y2="43.3785" gradientUnits="userSpaceOnUse">
<stop stop-color="white"/>
<stop offset="1" stop-color="#BCF3FF"/>
</linearGradient>
<linearGradient id="paint9_linear_1811_6661" x1="92.3304" y1="187.599" x2="34.3904" y2="187.599" gradientUnits="userSpaceOnUse">
<stop stop-color="#D2F7FF"/>
<stop offset="1" stop-color="#65C8DE"/>
</linearGradient>
<linearGradient id="paint10_linear_1811_6661" x1="92.285" y1="224.42" x2="34.845" y2="224.42" gradientUnits="userSpaceOnUse">
<stop stop-color="#D2F7FF"/>
<stop offset="1" stop-color="#65C8DE"/>
</linearGradient>
<linearGradient id="paint11_linear_1811_6661" x1="92.285" y1="205.133" x2="34.845" y2="205.133" gradientUnits="userSpaceOnUse">
<stop stop-color="#D2F7FF"/>
<stop offset="1" stop-color="#65C8DE"/>
</linearGradient>
<linearGradient id="paint12_linear_1811_6661" x1="77.5954" y1="164.48" x2="36.423" y2="164.48" gradientUnits="userSpaceOnUse">
<stop offset="0.24" stop-color="#D2F7FF"/>
<stop offset="1" stop-color="#6BCBE0"/>
</linearGradient>
<linearGradient id="paint13_linear_1811_6661" x1="228.894" y1="224.511" x2="244.032" y2="207.906" gradientUnits="userSpaceOnUse">
<stop stop-color="#90E3F5"/>
<stop offset="1" stop-color="#65C8DE"/>
</linearGradient>
<linearGradient id="paint14_linear_1811_6661" x1="113.001" y1="160.954" x2="239.129" y2="161.772" gradientUnits="userSpaceOnUse">
<stop stop-color="#90E3F5"/>
<stop offset="1" stop-color="#65C8DE"/>
</linearGradient>
<linearGradient id="paint15_linear_1811_6661" x1="158.232" y1="115.177" x2="211.685" y2="253.871" gradientUnits="userSpaceOnUse">
<stop stop-color="white"/>
<stop offset="1" stop-color="#D2F7FF"/>
</linearGradient>
<linearGradient id="paint16_linear_1811_6661" x1="149.562" y1="135.581" x2="207.165" y2="189.391" gradientUnits="userSpaceOnUse">
<stop stop-color="#FF698D"/>
<stop offset="1" stop-color="#FF3868"/>
</linearGradient>
<linearGradient id="paint17_linear_1811_6661" x1="115.267" y1="239.869" x2="158.258" y2="240.142" gradientUnits="userSpaceOnUse">
<stop stop-color="#90E3F5"/>
<stop offset="1" stop-color="#65C8DE"/>
</linearGradient>
<linearGradient id="paint18_linear_1811_6661" x1="30.9033" y1="44.6578" x2="73.894" y2="44.9306" gradientUnits="userSpaceOnUse">
<stop stop-color="#90E3F5"/>
<stop offset="1" stop-color="#65C8DE"/>
</linearGradient>
<linearGradient id="paint19_linear_1811_6661" x1="133.652" y1="29.689" x2="146.192" y2="29.7669" gradientUnits="userSpaceOnUse">
<stop stop-color="#90E3F5"/>
<stop offset="1" stop-color="#65C8DE"/>
</linearGradient>
<linearGradient id="paint20_linear_1811_6661" x1="248.694" y1="139.945" x2="261.598" y2="127.516" gradientUnits="userSpaceOnUse">
<stop stop-color="#90E3F5"/>
<stop offset="1" stop-color="#65C8DE"/>
</linearGradient>
<linearGradient id="paint21_linear_1811_6661" x1="33.2667" y1="114.105" x2="45.6769" y2="127.022" gradientUnits="userSpaceOnUse">
<stop stop-color="#90E3F5"/>
<stop offset="1" stop-color="#65C8DE"/>
</linearGradient>
<linearGradient id="paint22_linear_1811_6661" x1="203.015" y1="237.096" x2="215.425" y2="250.013" gradientUnits="userSpaceOnUse">
<stop stop-color="#90E3F5"/>
<stop offset="1" stop-color="#65C8DE"/>
</linearGradient>
<linearGradient id="paint23_linear_1811_6661" x1="252.578" y1="81.5116" x2="265.118" y2="81.5896" gradientUnits="userSpaceOnUse">
<stop stop-color="#90E3F5"/>
<stop offset="1" stop-color="#65C8DE"/>
</linearGradient>
</defs>
</svg>
