<svg width="262" height="176" fill="none" xmlns="http://www.w3.org/2000/svg"><path d="M93.118 170.75c-2.044 0-3.988-.411-5.444-1.255l-71.3-41.165c-1.433-.828-2.216-1.975-2.216-3.237 0-1.51 1.131-3.036 3.106-4.175l135.986-78.51c3.695-2.138 9.318-2.363 12.524-.512l71.3 41.165c1.433.829 2.215 1.975 2.215 3.237 0 1.51-1.13 3.036-3.105 4.175l-135.987 78.511c-2.021 1.169-4.616 1.766-7.079 1.766Zm-5.297-1.518c3.121 1.804 8.604 1.572 12.214-.512l135.986-78.51c1.874-1.085 2.951-2.51 2.951-3.912 0-1.146-.736-2.2-2.06-2.966l-71.301-41.164c-3.121-1.805-8.604-1.573-12.214.51L17.411 121.19c-1.874 1.084-2.95 2.509-2.95 3.903 0 1.146.735 2.2 2.06 2.966l71.3 41.173Z" fill="#1877F2"/><path d="m239.134 67.285-10.239 1.765-63.199-36.486c-3.167-1.828-8.705-1.603-12.368.511L32.421 102.881l-18.108 3.121v6.42h.008c-.008 1.17.689 2.293 2.13 3.122l71.3 41.164c3.168 1.828 8.705 1.603 12.369-.511l135.986-78.51c1.967-1.14 2.99-2.588 3.021-3.974h.007v-6.428Z" fill="url(#a)"/><path d="m87.75 150.241-71.3-41.165c-3.167-1.827-2.772-5.026.891-7.14l135.987-78.511c3.663-2.115 9.201-2.347 12.368-.511l71.301 41.164c3.167 1.828 2.772 5.027-.891 7.141L100.12 149.73c-3.664 2.114-9.202 2.347-12.37.511Z" fill="#15519F"/><path d="M236.106 71.219 100.119 149.73c-3.663 2.114-9.2 2.347-12.368.511l-71.3-41.165c-1.27-.735-1.96-1.688-2.1-2.703-.193 1.317.488 2.603 2.1 3.54l71.3 41.164c3.167 1.828 8.705 1.604 12.368-.511l135.987-78.51c2.192-1.263 3.206-2.92 2.989-4.438-.186 1.262-1.193 2.563-2.989 3.601Z" fill="#fff"/><path opacity=".51" d="m87.89 148.646-68.76-39.709c-3.067-1.774-2.68-4.864.86-6.908L153.45 24.997c3.54-2.045 8.899-2.27 11.966-.496l68.76 39.709c3.067 1.773 2.68 4.864-.859 6.908L99.856 148.15c-3.54 2.045-8.899 2.269-11.966.496Z" fill="#1877F2"/><path opacity=".8" d="M93.087 148.289c-1.99 0-3.888-.402-5.305-1.216l-68.76-39.708c-1.41-.813-2.184-1.944-2.184-3.191 0-1.487 1.107-2.982 3.044-4.097l133.461-77.032c3.602-2.076 9.07-2.3 12.191-.496l68.76 39.709c1.409.813 2.184 1.944 2.184 3.19 0 1.488-1.108 2.983-3.044 4.098L99.972 146.578c-1.967 1.13-4.492 1.711-6.885 1.711ZM88 146.686c3.005 1.735 8.271 1.51 11.749-.496l133.461-77.031c1.79-1.038 2.82-2.393 2.82-3.718 0-1.084-.697-2.083-1.96-2.811l-68.76-39.709c-3.005-1.735-8.271-1.51-11.749.496L20.098 100.449c-1.788 1.037-2.819 2.393-2.819 3.717 0 1.084.697 2.083 1.96 2.812l68.76 39.708Z" fill="#1877F2"/><g opacity=".3"><path opacity=".5" d="m83.83 145.341-68.76-39.708c-3.067-1.774-2.68-4.864.86-6.909L149.39 21.692c3.539-2.044 8.899-2.269 11.966-.495l68.76 39.708c3.067 1.774 2.68 4.864-.86 6.909L95.795 144.845c-3.539 2.045-8.898 2.27-11.965.496Z" fill="#1877F2"/><path d="m85.58 129.518-41.769-24.11c-3.005-1.735-2.625-4.771.845-6.77 3.47-2.005 8.72-2.222 11.725-.487l41.77 24.11c3.004 1.735 2.625 4.771-.845 6.769-3.47 2.006-8.721 2.223-11.726.488Z" fill="#9FFFF8"/></g><path d="M45.843 44.576v50.265c.015 1.092.674 2.13 2.021 2.905l41.769 24.11c3.005 1.735 8.256 1.518 11.726-.488 1.944-1.123 2.92-2.572 2.865-3.935v-50.28L45.843 44.576Z" fill="url(#b)"/><path d="m89.64 71.599-41.768-24.11c-3.005-1.735-2.626-4.771.844-6.77 3.47-2.006 8.72-2.223 11.726-.488l41.769 24.11c3.005 1.735 2.625 4.771-.845 6.77-3.47 2.005-8.72 2.222-11.725.487Z" fill="#A0CAFF"/><path d="M93.807 68.369a3.613 3.613 0 0 1-3.609-3.61V42.424c0-7.613-5.576-17.271-12.167-21.082l-9.58-5.53c-2.533-1.463-4.818-1.82-6.274-.976-1.456.837-2.285 2.998-2.285 5.918v22.336c0 1.99-1.619 3.61-3.609 3.61a3.613 3.613 0 0 1-3.61-3.61V20.753c0-5.654 2.092-9.976 5.895-12.175 3.803-2.192 8.597-1.851 13.492.975l9.58 5.53c8.845 5.112 15.777 17.117 15.777 27.332v22.337a3.61 3.61 0 0 1-3.61 3.617Z" fill="#1877F2"/><path opacity=".4" d="M157.316 93.432 109.7 65.937c-3.245-1.874-2.835-5.143.906-7.304 3.741-2.16 9.41-2.393 12.656-.526l47.616 27.495c3.245 1.874 2.834 5.142-.906 7.303-3.749 2.169-9.411 2.4-12.656.527Z" fill="#fff"/><path d="M162.808 94.849c-2.092 0-4.082-.418-5.569-1.278l-47.616-27.495c-1.464-.844-2.269-2.013-2.269-3.307 0-1.549 1.153-3.098 3.175-4.267 3.779-2.184 9.526-2.417 12.802-.527l47.617 27.495c1.463.844 2.269 2.021 2.269 3.307 0 1.549-1.154 3.098-3.176 4.267-2.06 1.193-4.716 1.805-7.233 1.805Zm-5.414-1.549c3.199 1.843 8.806 1.61 12.5-.527 1.921-1.107 3.021-2.563 3.021-3.996 0-1.177-.751-2.254-2.115-3.036l-47.616-27.495c-3.191-1.843-8.798-1.61-12.5.527-1.921 1.107-3.021 2.563-3.021 3.996 0 1.17.752 2.254 2.115 3.036L157.394 93.3Z" fill="#1877F2"/><path opacity=".4" d="M165.975 90.853c-1.115.642-2.912.642-4.027 0-1.115-.643-1.115-1.681 0-2.324 1.115-.643 2.912-.643 4.027 0 1.115.643 1.115 1.68 0 2.324Z" fill="#1877F2"/><path d="M163.962 91.441c-.752 0-1.495-.163-2.068-.496-.574-.333-.891-.774-.891-1.254s.317-.922.891-1.255c1.138-.658 2.997-.658 4.135 0 .574.333.891.774.891 1.255 0 .48-.317.921-.891 1.254-.573.326-1.316.496-2.067.496Zm0-3.292c-.713 0-1.418.155-1.96.465-.503.287-.782.666-.782 1.069 0 .403.279.782.782 1.069 1.077.627 2.842.627 3.919 0 .503-.295.782-.674.782-1.07 0-.402-.279-.773-.782-1.068-.542-.302-1.247-.465-1.959-.465Z" fill="#1877F2"/><path opacity=".4" d="M159.283 86.957c-1.115.643-2.912.643-4.027 0-1.115-.643-1.115-1.68 0-2.324 1.115-.643 2.912-.643 4.027 0 1.116.635 1.116 1.68 0 2.324Z" fill="#1877F2"/><path d="M157.277 86.267c-.751 0-1.494-.162-2.067-.495-.574-.333-.891-.775-.891-1.255 0-.48.317-.921.891-1.255 1.138-.658 2.997-.658 4.135 0 .573.334.891.775.891 1.255 0 .48-.318.922-.891 1.255-.573.325-1.324.495-2.068.495Zm-.007-3.291c-.713 0-1.418.155-1.96.465-.503.286-.782.666-.782 1.068 0 .403.279.783.782 1.07 1.085.627 2.843.619 3.919 0 .504-.295.782-.675.782-1.07 0-.402-.278-.774-.782-1.068-.534-.31-1.247-.465-1.959-.465ZM139.867 72.172c-.751 0-1.495-.163-2.068-.496-.573-.333-.891-.775-.891-1.255 0-.48.318-.921.891-1.254 1.138-.659 2.997-.659 4.136 0 .573.333.89.774.89 1.254s-.317.922-.89 1.255c-.566.333-1.317.496-2.068.496Zm0-3.284c-.713 0-1.418.155-1.96.465-.503.294-.782.673-.782 1.068s.279.782.782 1.07c1.077.626 2.843.626 3.919 0 .504-.295.782-.675.782-1.07s-.278-.782-.782-1.069c-.534-.31-1.247-.464-1.959-.464Z" fill="#1877F2"/><path opacity=".4" d="M141.88 77.23c-1.115.642-2.912.642-4.027 0-1.115-.644-1.115-1.682 0-2.324 1.115-.643 2.912-.643 4.027 0 1.116.642 1.116 1.68 0 2.323Z" fill="#1877F2"/><path d="M133.183 64.969c-.752 0-1.495-.163-2.068-.496-.573-.333-.891-.774-.891-1.255 0-.48.318-.921.891-1.254 1.138-.659 2.997-.659 4.136 0 .573.333.89.774.89 1.254s-.317.922-.89 1.255c-.574.333-1.325.496-2.068.496Zm0-3.284c-.713 0-1.418.155-1.96.465-.503.286-.782.666-.782 1.068 0 .403.279.783.782 1.07 1.077.627 2.835.627 3.919 0 .504-.295.782-.675.782-1.07 0-.402-.278-.782-.782-1.068-.542-.31-1.255-.465-1.959-.465Z" fill="#1877F2"/><path opacity=".4" d="M135.196 73.651c-1.115.643-2.912.643-4.027 0-1.115-.643-1.115-1.68 0-2.323s2.912-.643 4.027 0c1.108.642 1.108 1.68 0 2.323Z" fill="#1877F2"/><path d="M126.491 56.21c-.751 0-1.494-.163-2.068-.496-.573-.334-.89-.775-.89-1.255 0-.48.317-.922.89-1.255 1.139-.658 2.998-.658 4.136 0 .573.333.891.775.891 1.255 0 .48-.318.921-.891 1.255-.573.333-1.316.495-2.068.495Zm0-3.285c-.712 0-1.417.155-1.959.465-.504.294-.782.666-.782 1.069 0 .403.278.782.782 1.069 1.084.627 2.842.62 3.919 0 .503-.295.782-.674.782-1.07 0-.402-.279-.781-.782-1.068-.542-.31-1.247-.465-1.96-.465Z" fill="#1877F2"/><path opacity=".4" d="M128.389 69.941c-1.116.643-2.912.643-4.028 0-1.115-.643-1.115-1.68 0-2.323 1.116-.643 2.912-.643 4.028 0 1.107.642 1.107 1.688 0 2.323ZM147.565 78.089l5.824 3.361c.961.558.845 1.526-.271 2.169-1.115.642-2.796.712-3.756.154l-5.824-3.36c-.961-.558-.844-1.527.271-2.17 1.115-.642 2.796-.712 3.756-.154Z" fill="#1877F2"/><path d="M150.996 81.543c-.635 0-1.231-.132-1.688-.387l-5.824-3.362c-.457-.263-.705-.627-.705-1.03 0-.48.356-.96.976-1.324 1.138-.658 2.873-.728 3.864-.155l5.825 3.361c.457.264.704.628.704 1.038 0 .48-.356.96-.975 1.317-.62.356-1.418.542-2.177.542Zm-5.057-6.436c-.721 0-1.48.178-2.076.519-.55.317-.867.728-.867 1.13 0 .326.209.628.596.845l5.824 3.361c.93.534 2.572.473 3.648-.155.55-.317.868-.728.868-1.13 0-.326-.21-.628-.597-.853l-5.824-3.36c-.418-.24-.984-.357-1.572-.357Z" fill="#1877F2"/><path opacity=".4" d="M219.493 69.027c-1.053.604-2.749.604-3.803 0-1.053-.604-1.053-1.588 0-2.192 1.054-.604 2.75-.604 3.803 0 1.054.604 1.054 1.58 0 2.192ZM204.987 58.455l7.443 4.299c.906.526.798 1.44-.256 2.044-1.053.604-2.641.674-3.547.147l-7.443-4.298c-.906-.527-.798-1.44.256-2.045 1.053-.604 2.641-.673 3.547-.147ZM163.179 33.803l7.443 4.299c.906.526.798 1.44-.255 2.044-1.054.604-2.641.674-3.548.147l-7.442-4.298c-.907-.527-.798-1.44.255-2.045 1.046-.612 2.633-.674 3.547-.147Z" fill="#24126A"/><path d="M219.493 66.355c-1.053.604-2.749.604-3.803 0-1.053-.604-1.053-1.588 0-2.192 1.054-.604 2.75-.604 3.803 0 1.054.604 1.054 1.588 0 2.192ZM204.987 55.783l7.443 4.299c.906.526.798 1.44-.256 2.044-1.053.605-2.641.674-3.547.148l-7.443-4.299c-.906-.527-.798-1.44.256-2.045 1.053-.604 2.641-.666 3.547-.147ZM163.179 31.131l7.443 4.298c.906.527.798 1.441-.255 2.045-1.054.604-2.641.674-3.548.147l-7.442-4.298c-.907-.527-.798-1.44.255-2.045 1.046-.604 2.633-.674 3.547-.147ZM241.272 156.212c-1.046 0-2.091-.232-2.889-.689l-15.319-8.845c-.798-.457-1.232-1.076-1.232-1.742 0-.666.442-1.286 1.232-1.743l15.319-8.845c1.596-.921 4.182-.921 5.778 0l15.319 8.845c.798.457 1.232 1.077 1.232 1.743 0 .666-.442 1.285-1.232 1.742l-15.319 8.845c-.798.457-1.843.689-2.889.689Zm0-22.298c-.999 0-1.99.217-2.757.659l-15.32 8.845c-.705.41-1.1.944-1.1 1.51 0 .565.388 1.1 1.1 1.51l15.32 8.845c1.518.875 3.988.875 5.506 0l15.32-8.845c.705-.41 1.1-.945 1.1-1.51 0-.566-.387-1.1-1.1-1.51l-15.312-8.845c-.759-.442-1.758-.659-2.757-.659Z" fill="#1877F2"/><path opacity=".4" d="M261.192 141.536v-5.244l-.96-.534c-.271 1.642-2.2 2.718-3.811 2.943l-10.974 6.42-4.794 1.728-15.289-7.893.356-.201c-1.309-.612-2.013-2.006-2.718-3.284l-1.03.612-.612.17v5.337c0 .681.449 1.363 1.347 1.874l15.32 8.845c1.797 1.038 4.709 1.038 6.506 0l15.319-8.845c.883-.511 1.333-1.177 1.348-1.843-.008-.031-.008-.055-.008-.085Z" fill="#1877F2"/><path d="M261.192 136.873v-3.47l-.96-.534c-.271 1.642-2.2 2.718-3.811 2.943l-10.974 6.421-4.794 1.727-15.289-7.892.356-.202c-1.309-.612-2.013-2.006-2.718-3.284l-1.03.612-.612.171v3.562c0 .682.449 1.363 1.347 1.875l15.32 8.844c1.797 1.038 4.709 1.038 6.506 0l15.319-8.844c.883-.512 1.333-1.178 1.348-1.844-.008-.031-.008-.054-.008-.085Z" fill="url(#c)"/><path opacity=".3" d="m256.421 135.804-10.974 6.421-4.167 1.502v4.694c1.177 0 2.354-.256 3.253-.775l15.319-8.844c.883-.512 1.332-1.178 1.348-1.844v-3.562l-.875-.488h-.093c-.31 1.618-2.215 2.679-3.811 2.896Z" fill="#0F054C"/><path d="m238.019 144.122-15.319-8.844c-1.797-1.038-1.797-2.719 0-3.757l15.319-8.844c1.797-1.038 4.709-1.038 6.506 0l15.32 8.844c1.796 1.038 1.796 2.719 0 3.757l-15.32 8.844c-1.789 1.038-4.709 1.038-6.506 0Z" fill="url(#d)"/><path d="m259.844 135.278-15.319 8.844c-1.797 1.038-4.709 1.038-6.506 0l-15.319-8.844c-.806-.465-1.247-1.054-1.333-1.666-.108.752.341 1.518 1.333 2.092l15.319 8.844c1.797 1.038 4.709 1.038 6.506 0l15.319-8.844c.992-.574 1.433-1.348 1.333-2.092-.086.612-.527 1.201-1.333 1.666Z" fill="#fff"/><path d="M45.92 175.314c-1.045 0-2.09-.232-2.889-.689l-15.32-8.845c-.797-.457-1.23-1.077-1.23-1.743 0-.666.44-1.285 1.23-1.742l15.32-8.845c1.596-.922 4.183-.922 5.778 0l15.32 8.845c.797.457 1.231 1.076 1.231 1.742 0 .666-.441 1.286-1.231 1.743l-15.32 8.845c-.797.457-1.843.689-2.889.689Zm-2.75-.922c1.519.876 3.99.876 5.508 0l15.32-8.844c.712-.411 1.099-.945 1.099-1.511 0-.565-.387-1.099-1.1-1.51l-15.32-8.845c-1.517-.875-3.988-.875-5.506 0l-15.32 8.845c-.712.411-1.1.945-1.1 1.51 0 .566.388 1.1 1.1 1.511l15.32 8.844Z" fill="#1877F2"/><path opacity=".4" d="M65.84 160.637v-5.243l-.96-.534c-.27 1.642-2.2 2.718-3.81 2.943l-10.975 6.42-4.794 1.727-15.289-7.892.357-.201c-1.31-.612-2.014-2.006-2.719-3.284l-1.03.612-.612.17v5.337c0 .681.45 1.363 1.348 1.874l15.32 8.845c1.796 1.038 4.709 1.038 6.505 0l15.32-8.845c.883-.511 1.332-1.177 1.347-1.843-.007-.024-.007-.055-.007-.086Z" fill="#1877F2"/><path d="M65.84 155.975v-3.47l-.96-.534c-.27 1.642-2.2 2.718-3.81 2.943l-10.975 6.42-4.794 1.728-15.289-7.893.357-.201c-1.31-.612-2.014-2.006-2.719-3.284l-1.03.612-.612.17v3.563c0 .682.45 1.363 1.348 1.874l15.32 8.845c1.796 1.038 4.709 1.038 6.505 0l15.32-8.845c.883-.511 1.332-1.177 1.347-1.843-.007-.023-.007-.054-.007-.085Z" fill="url(#e)"/><path opacity=".3" d="m61.07 154.914-10.975 6.42-4.167 1.503v4.693c1.178 0 2.355-.255 3.253-.774l15.32-8.845c.883-.511 1.332-1.177 1.347-1.843v-3.563l-.875-.488h-.093c-.31 1.611-2.215 2.672-3.81 2.897Z" fill="#0F054C"/><path d="m42.668 163.224-15.32-8.845c-1.797-1.037-1.797-2.718 0-3.756l15.32-8.845c1.797-1.037 4.709-1.037 6.505 0l15.32 8.845c1.797 1.038 1.797 2.719 0 3.756l-15.32 8.845c-1.789 1.038-4.709 1.038-6.505 0Z" fill="url(#f)"/><path d="M45.92 161.621c-.945 0-1.89-.209-2.61-.62l-11.966-6.916c-.72-.418-1.115-.976-1.115-1.58 0-.604.395-1.169 1.115-1.587l11.966-6.909c1.44-.829 3.78-.829 5.22 0l11.966 6.909c.72.418 1.116.975 1.116 1.58 0 .604-.395 1.169-1.116 1.587l-11.966 6.909c-.72.418-1.665.627-2.61.627Zm0-17.968c-.898 0-1.789.193-2.47.588l-11.966 6.909c-.635.364-.984.844-.984 1.355 0 .504.349.984.984 1.348l11.966 6.908c1.363.79 3.586.79 4.949 0l11.966-6.908c.635-.364.983-.844.983-1.355 0-.504-.348-.984-.983-1.348l-11.966-6.909c-.682-.395-1.58-.588-2.479-.588Z" fill="#1877F2"/><path d="m64.493 154.379-15.32 8.845c-1.797 1.038-4.709 1.038-6.506 0l-15.319-8.845c-.805-.464-1.247-1.053-1.332-1.665-.109.751.34 1.518 1.332 2.091l15.32 8.845c1.796 1.038 4.709 1.038 6.505 0l15.32-8.845c.991-.573 1.433-1.347 1.332-2.091-.085.612-.527 1.208-1.332 1.665Z" fill="#fff"/><path d="M19.92 34.306c-1.045 0-2.09-.232-2.889-.689l-15.32-8.845c-.797-.457-1.23-1.076-1.23-1.742 0-.666.44-1.286 1.23-1.743l15.32-8.845c1.588-.921 4.183-.921 5.778 0l15.32 8.845c.798.457 1.231 1.077 1.231 1.743 0 .666-.441 1.285-1.231 1.742l-15.32 8.845c-.797.457-1.843.69-2.889.69Zm0-22.29c-.999 0-1.99.217-2.75.659L1.852 21.52c-.712.41-1.1.944-1.1 1.51 0 .565.388 1.1 1.1 1.51l15.32 8.845c1.518.875 3.989.875 5.507 0l15.32-8.845c.712-.41 1.099-.945 1.099-1.51 0-.566-.387-1.1-1.1-1.51l-15.32-8.845c-.766-.442-1.758-.659-2.757-.659Z" fill="#1877F2"/><path opacity=".4" d="M39.84 19.63v-5.244l-.96-.534c-.27 1.642-2.2 2.718-3.81 2.943l-10.975 6.42-4.794 1.728L4.012 17.05l.349-.2c-1.309-.613-2.014-2.007-2.719-3.285l-1.03.612-.612.17v5.337c0 .681.45 1.363 1.348 1.874l15.32 8.845c1.797 1.038 4.709 1.038 6.506 0l15.32-8.845c.882-.511 1.331-1.177 1.347-1.843v-.085Z" fill="#1877F2"/><path d="M39.84 14.967v-3.47l-.96-.534c-.27 1.642-2.2 2.719-3.81 2.943l-10.975 6.42-4.794 1.728-15.289-7.892.357-.202c-1.31-.612-2.014-2.006-2.719-3.284l-1.03.612-.612.17v3.563c0 .682.45 1.364 1.348 1.875l15.32 8.845c1.796 1.037 4.708 1.037 6.505 0l15.32-8.845c.883-.511 1.332-1.178 1.348-1.844-.008-.023-.008-.054-.008-.085Z" fill="url(#g)"/><path opacity=".3" d="m35.07 13.906-10.975 6.42-4.167 1.503v4.694c1.177 0 2.355-.256 3.253-.775l15.32-8.845c.883-.51 1.332-1.177 1.347-1.843v-3.563l-.875-.488h-.093c-.31 1.611-2.215 2.672-3.81 2.897Z" fill="#0F054C"/><path d="M16.668 22.224 1.348 13.38c-1.797-1.037-1.797-2.718 0-3.756L16.668.778c1.797-1.037 4.709-1.037 6.506 0l15.319 8.845c1.797 1.038 1.797 2.719 0 3.757l-15.32 8.844c-1.789 1.03-4.708 1.03-6.505 0Z" fill="url(#h)"/><path d="M19.92 20.613c-.945 0-1.89-.209-2.61-.62L5.344 13.086c-.72-.418-1.115-.976-1.115-1.588 0-.604.395-1.169 1.115-1.58L17.31 3.01c1.44-.829 3.78-.829 5.22 0l11.966 6.909c.72.418 1.116.975 1.116 1.58 0 .604-.395 1.169-1.116 1.58L22.53 19.986c-.72.418-1.665.627-2.61.627Zm0-17.968c-.898 0-1.789.194-2.47.589L5.484 10.142c-.635.364-.984.844-.984 1.348 0 .503.349.983.984 1.355l11.966 6.909c1.363.79 3.586.79 4.949 0l11.966-6.909c.635-.364.983-.844.983-1.348 0-.503-.348-.983-.983-1.347L22.399 3.24c-.69-.395-1.58-.596-2.479-.596Z" fill="#1877F2"/><path d="m38.493 13.38-15.32 8.844c-1.796 1.038-4.709 1.038-6.505 0L1.348 13.38C.542 12.915.101 12.326.016 11.714c-.109.752.34 1.518 1.332 2.091l15.32 8.845c1.796 1.038 4.709 1.038 6.505 0l15.32-8.845c.991-.573 1.433-1.347 1.332-2.09-.085.603-.527 1.2-1.332 1.664Z" fill="#fff"/><path d="M240.691 142.234c-.945 0-1.889-.209-2.61-.62l-11.966-6.916c-.72-.418-1.115-.976-1.115-1.58 0-.604.395-1.17 1.115-1.588l11.966-6.908c1.441-.829 3.78-.829 5.22 0l11.966 6.908c.721.418 1.116.976 1.116 1.58 0 .604-.395 1.17-1.116 1.588l-11.966 6.908c-.72.419-1.665.628-2.61.628Zm0-17.969c-.898 0-1.789.194-2.47.589l-11.966 6.908c-.635.364-.984.845-.984 1.356 0 .503.349.983.984 1.347l11.966 6.909c1.363.79 3.586.79 4.949 0l11.966-6.909c.635-.364.983-.844.983-1.355 0-.503-.348-.984-.983-1.348l-11.966-6.908c-.682-.395-1.58-.589-2.479-.589Z" fill="#1877F2"/><defs><linearGradient id="a" x1="14.305" y1="94.634" x2="239.133" y2="94.634" gradientUnits="userSpaceOnUse"><stop stop-color="#7DB5FE"/><stop offset=".151" stop-color="#3D90FC"/><stop offset=".387" stop-color="#1877F2"/><stop offset=".612" stop-color="#0B4796"/><stop offset=".822" stop-color="#1B5CAF"/><stop offset="1" stop-color="#1877F2"/></linearGradient><linearGradient id="b" x1="46" y1="67.5" x2="104" y2="89.5" gradientUnits="userSpaceOnUse"><stop stop-color="#1877F2"/><stop offset="1" stop-color="#1C60B7"/></linearGradient><linearGradient id="c" x1="225.318" y1="126.506" x2="256.925" y2="144.755" gradientUnits="userSpaceOnUse"><stop stop-color="#BFDBFF"/><stop offset=".227" stop-color="#B1D1FB"/><stop offset=".68" stop-color="#78A7E4"/><stop offset="1" stop-color="#1877F2"/></linearGradient><linearGradient id="d" x1="221.354" y1="133.399" x2="261.191" y2="133.399" gradientUnits="userSpaceOnUse"><stop stop-color="#F0F7FF"/><stop offset=".36" stop-color="#D8E6F8"/><stop offset=".706" stop-color="#D1E4FC"/><stop offset="1" stop-color="#B6D2F5"/></linearGradient><linearGradient id="e" x1="29.966" y1="145.608" x2="61.573" y2="163.857" gradientUnits="userSpaceOnUse"><stop stop-color="#BFDBFF"/><stop offset=".227" stop-color="#B1D1FB"/><stop offset=".68" stop-color="#78A7E4"/><stop offset="1" stop-color="#1877F2"/></linearGradient><linearGradient id="f" x1="26.003" y1="152.501" x2="65.84" y2="152.501" gradientUnits="userSpaceOnUse"><stop stop-color="#F0F7FF"/><stop offset=".36" stop-color="#D8E6F8"/><stop offset=".706" stop-color="#D1E4FC"/><stop offset="1" stop-color="#B6D2F5"/></linearGradient><linearGradient id="g" x1="3.966" y1="4.601" x2="35.573" y2="22.849" gradientUnits="userSpaceOnUse"><stop stop-color="#BFDBFF"/><stop offset=".227" stop-color="#B1D1FB"/><stop offset=".68" stop-color="#78A7E4"/><stop offset="1" stop-color="#1877F2"/></linearGradient><linearGradient id="h" x1=".003" y1="11.498" x2="39.84" y2="11.498" gradientUnits="userSpaceOnUse"><stop stop-color="#F0F7FF"/><stop offset=".36" stop-color="#D8E6F8"/><stop offset=".706" stop-color="#D1E4FC"/><stop offset="1" stop-color="#B6D2F5"/></linearGradient></defs></svg>