<svg width="172" height="144" fill="none" xmlns="http://www.w3.org/2000/svg"><path d="m42.776 88.02-10.488 6.085M73.994 77.524c1.927 1.107 1.936 2.911 0 4.027L56.306 91.83a7.715 7.715 0 0 1-6.974 0L31.565 81.551c-1.927-1.116-1.936-2.92 0-4.036l17.662-10.278a7.654 7.654 0 0 1 6.974 0l17.793 10.287Z" stroke="#1877F2" stroke-width=".7" stroke-linecap="round" stroke-linejoin="round"/><path d="M70.76 75.431c1.63.942 1.647 2.467 0 3.409l-14.986 8.718a6.52 6.52 0 0 1-5.902 0l-15.09-8.718c-1.63-.95-1.64-2.476 0-3.418l14.994-8.717a6.503 6.503 0 0 1 5.893 0l15.09 8.726Z" fill="url(#a)"/><path d="M68.65 74.716v.21a.31.31 0 0 1 0 .087.481.481 0 0 1 0 .104.604.604 0 0 1 0 .088.584.584 0 0 1-.052.104.355.355 0 0 1 0 .079l-.079.113a.236.236 0 0 1-.06.07l-.14.157-.061.06-.105.088-.096.078-.122.079-.13.087-12.388 7.192c-.153.09-.314.166-.48.227l-.13.052c-.105.044-.219.07-.323.105l-.349.078-.418.079h-.105a4.25 4.25 0 0 1-.575 0h-.088a4.248 4.248 0 0 1-.575 0h-.087a5.567 5.567 0 0 1-.55-.087h-.095a3.84 3.84 0 0 1-.48-.149h-.087a3.625 3.625 0 0 1-.523-.252L37.894 76.12a1.743 1.743 0 0 1-1.02-1.421v1.404a1.743 1.743 0 0 0 1.011 1.42l12.467 7.193c.158.095.324.177.496.244h.079l.305.105h.357l.34.06H53.586l.288-.043h.13l.34-.079c.062-.013.123-.03.183-.052a.66.66 0 0 0 .14-.052l.14-.052a3.03 3.03 0 0 0 .479-.227l12.38-7.192h.043l.087-.061.122-.079.096-.078.113-.087v-.044l.148-.157a.985.985 0 0 0 .087-.113v-.053l.053-.113V76.477a.21.21 0 0 0 0-.07v-.174l.235-1.517Z" fill="url(#b)"/><path d="M67.63 73.296c1.352.784 1.36 2.04 0 2.824l-12.388 7.192a5.318 5.318 0 0 1-4.864 0L37.894 76.12c-1.351-.776-1.36-2.04 0-2.825l12.38-7.192a5.361 5.361 0 0 1 4.873 0l12.483 7.193Z" fill="url(#c)"/><path d="M64.309 75.109a2.718 2.718 0 0 1-.331.235l-9.59 5.58a3.436 3.436 0 0 1-3.139 0l-9.659-5.58a1.74 1.74 0 0 1-.331-.244c-.523-.497-.419-1.15.322-1.57l9.59-5.579a3.486 3.486 0 0 1 3.139 0l9.667 5.58c.742.418.846 1.08.332 1.578Z" fill="url(#d)"/><path d="M64.309 75.109a2.718 2.718 0 0 1-.332.235l-9.59 5.58a3.435 3.435 0 0 1-3.138 0l-9.659-5.58c-.12-.068-.23-.15-.331-.244.095-.094.204-.173.322-.235l9.59-5.58a3.434 3.434 0 0 1 3.138 0l9.668 5.58c.123.064.234.146.332.244Z" fill="url(#e)"/><path d="M58.294 74.316v.314l-.053.165-.052.14a1.63 1.63 0 0 1-.087.174l-.157.078c-.044.061-.079.131-.131.192-.031.036-.06.074-.087.113l-.236.253-.096.087-.165.14-.157.087-.192.13-.218.14a5.694 5.694 0 0 1-.514.262l-.166.07c-.14.052-.279.113-.427.156l-.166.062-.279.078-.217.061-.306.061h-.209c-.209 0-.418.07-.627.087H51.319a1.673 1.673 0 0 1-.288-.052h-.226l-.349-.087-.192-.044-.592-.2h-.079a6.606 6.606 0 0 1-.75-.358 2.78 2.78 0 0 1-1.63-2.284v.68a2.782 2.782 0 0 0 1.63 2.284c.242.135.493.254.75.358h.052l.593.2h.192l.34.087H51.006l.287.053H53.725c.21 0 .419-.053.628-.088h.183l.305-.06.218-.062.28-.078h.06l.096-.044c.148-.043.297-.104.436-.157l.157-.07c.18-.076.354-.163.523-.26h.07a.796.796 0 0 0 .14-.097l.2-.13.157-.123.165-.14.061-.06.236-.253v-.06l.043-.053.131-.192.052-.087c0-.061.061-.122.087-.175a.522.522 0 0 1 0-.104.92.92 0 0 0 .044-.166.494.494 0 0 0 0-.104v-1.012a.958.958 0 0 1 .297.088Z" fill="url(#f)"/><path d="M56.672 71.83c2.171 1.248 2.18 3.279 0 4.534a8.64 8.64 0 0 1-7.846 0c-2.162-1.255-2.17-3.278 0-4.533a8.622 8.622 0 0 1 7.846 0Z" fill="url(#g)"/><path style="mix-blend-mode:screen" d="M58.31 49.33H47.319v24.288c-.253.976.27 1.996 1.56 2.746a8.639 8.639 0 0 0 7.846 0 2.946 2.946 0 0 0 1.578-1.927l.009-25.107Z" fill="url(#h)"/><path style="mix-blend-mode:screen" d="M49.567 69.006a1.16 1.16 0 1 1-1.15-1.15 1.15 1.15 0 0 1 1.15 1.15Z" fill="url(#i)"/><path style="mix-blend-mode:screen" d="M52.993 65.728a1.16 1.16 0 1 1-1.15-1.15 1.15 1.15 0 0 1 1.15 1.15Z" fill="url(#j)"/><path style="mix-blend-mode:screen" d="M51.276 70.89a1.16 1.16 0 1 1-1.16-1.151 1.15 1.15 0 0 1 1.16 1.15Z" fill="url(#k)"/><path style="mix-blend-mode:screen" d="M56.114 73.827a1.16 1.16 0 1 1-2.32 0 1.16 1.16 0 0 1 2.32 0Z" fill="url(#l)"/><path style="mix-blend-mode:screen" d="M57.117 70.14a.567.567 0 1 0 0-1.134.567.567 0 0 0 0 1.133Z" fill="url(#m)"/><path style="mix-blend-mode:screen" d="M51.842 73.827a.567.567 0 1 1-1.133 0 .567.567 0 0 1 1.133 0Z" fill="url(#n)"/><path style="mix-blend-mode:screen" d="M54.013 69.957a.566.566 0 1 1-1.133 0 .566.566 0 0 1 1.133 0Z" fill="url(#o)"/><path style="mix-blend-mode:screen" d="M68.642 74.612V53.018A1.674 1.674 0 0 0 67.63 51.5L55.164 44.3a5.362 5.362 0 0 0-4.873 0l-12.397 7.192a1.622 1.622 0 0 0-.985 1.604v21.411a1.416 1.416 0 0 0 0 .384 1.849 1.849 0 0 0 1.002 1.23l12.467 7.191a5.318 5.318 0 0 0 4.864 0L67.63 76.12a1.822 1.822 0 0 0 .986-1.23v-.278h.026Z" fill="url(#p)"/><path d="M70.76 54.7c1.63.942 1.647 2.476 0 3.418l-14.986 8.717a6.469 6.469 0 0 1-5.902 0l-15.09-8.717c-1.63-.942-1.64-2.476 0-3.418l14.994-8.718a6.477 6.477 0 0 1 5.893 0L70.76 54.7Z" fill="url(#q)"/><path d="M68.65 53.986v.209a.375.375 0 0 1 0 .096.667.667 0 0 1 0 .096.26.26 0 0 1 0 .087.584.584 0 0 1-.052.104.354.354 0 0 1 0 .079l-.079.122-.06.07-.14.157-.061.052-.105.087-.096.078a.618.618 0 0 0-.122.088l-.13.078-12.388 7.201a4.058 4.058 0 0 1-.48.227l-.13.052-.323.096-.349.087-.418.07h-1.43a5.517 5.517 0 0 1-.55-.096h-.095a2.77 2.77 0 0 1-.48-.148h-.087a3.568 3.568 0 0 1-.523-.244l-12.658-7.245a1.744 1.744 0 0 1-1.02-1.42v1.403a1.744 1.744 0 0 0 1.02 1.42l12.466 7.202c.16.088.327.167.497.235h.079c.099.043.2.078.305.105h.357l.34.06H52.618c.035.005.07.005.105 0h.096c.049.005.099.005.148 0 .128.01.256.01.383 0h.149l.287-.043h.131l.34-.087.183-.044.14-.052.14-.052c.164-.065.324-.141.479-.227l12.379-7.2h.043l.088-.053.122-.087.096-.079.113-.087.148-.157.087-.122v-.052l.053-.105V55.781a.167.167 0 0 0 0-.07v-.174l.322-1.551Z" fill="url(#r)"/><path d="M67.63 52.573c1.352.776 1.36 2.04 0 2.816l-12.388 7.2a5.371 5.371 0 0 1-4.864 0l-12.484-7.2c-1.351-.776-1.36-2.04 0-2.816l12.38-7.2a5.396 5.396 0 0 1 4.873 0l12.483 7.2Z" fill="url(#s)"/><path d="M64.309 54.378c-.1.092-.212.171-.331.235l-9.59 5.58a3.436 3.436 0 0 1-3.139 0l-9.659-5.58a1.422 1.422 0 0 1-.331-.244c-.523-.488-.419-1.142.322-1.57l9.59-5.578a3.434 3.434 0 0 1 3.139 0l9.667 5.57c.742.436.846 1.09.332 1.587Z" fill="url(#t)"/><path d="M64.309 54.378c-.1.092-.212.171-.332.235l-9.59 5.58a3.435 3.435 0 0 1-3.138 0l-9.659-5.58a1.422 1.422 0 0 1-.331-.244c.1-.089.208-.168.322-.235l9.59-5.58a3.486 3.486 0 0 1 3.138 0l9.668 5.58c.119.07.23.151.332.244Z" fill="url(#u)"/><path d="M58.294 53.55v.314l-.053.165-.052.13a1.62 1.62 0 0 1-.087.175.872.872 0 0 1-.07.122 1.478 1.478 0 0 1-.13.192 3.091 3.091 0 0 1-.323.366l-.096.087-.166.14a1.083 1.083 0 0 1-.157.122c-.06.052-.13.087-.192.13l-.218.14a5.696 5.696 0 0 1-.514.262l-.165.07-.428.165-.165.052-.28.079-.217.06-.305.07h-.21c-.209.044-.418.07-.627.096h-.253c-.125.01-.25.01-.375 0H51.354l-.288-.052-.226-.052c-.122 0-.236-.052-.349-.079l-.192-.052c-.2-.06-.4-.122-.593-.2h-.078c-.259-.1-.51-.22-.75-.358a2.772 2.772 0 0 1-1.63-2.284v.68a2.773 2.773 0 0 0 1.63 2.284c.242.135.493.254.75.358h.052c.192.078.393.14.593.2h.192l.34.079H51.04l.287.052h1.857c.125.009.25.009.375 0h.2c.211-.016.42-.045.628-.087h.183l.305-.07.218-.061.279-.078h.157l.436-.166.157-.07a4.87 4.87 0 0 0 .523-.261h.07a.798.798 0 0 0 .14-.096l.217-.166.157-.122.166-.14s0-.043.06-.06l.236-.253v-.053l.044-.06.209-.184.052-.078c.033-.056.062-.115.087-.175a.466.466 0 0 1 0-.095c.018-.055.032-.11.044-.166a.58.58 0 0 0 0-.113V53.393c.06.047.115.1.166.157Z" fill="url(#v)"/><path d="M56.672 51.108c2.171 1.247 2.18 3.27 0 4.525a8.613 8.613 0 0 1-7.846 0c-2.162-1.255-2.17-3.278 0-4.525a8.57 8.57 0 0 1 7.846 0Z" fill="url(#w)"/><path d="M39.96 97.636c1.743.985 1.743 2.615 0 3.574l-15.692 9.11a6.81 6.81 0 0 1-6.172 0l-15.788-9.11c-1.744-.985-1.744-2.615 0-3.574L18 88.516a6.774 6.774 0 0 1 6.163 0l15.797 9.12Z" stroke="#1877F2" stroke-width=".7" stroke-linecap="round" stroke-linejoin="round"/><path d="M37.092 95.778c1.447.872 1.456 2.197 0 3.034l-13.269 7.759a5.757 5.757 0 0 1-5.23 0L5.21 98.847c-1.447-.872-1.456-2.197 0-3.034l13.294-7.724a5.746 5.746 0 0 1 5.231 0l13.356 7.69Z" fill="url(#x)"/><path d="M35.217 95.15a.296.296 0 0 1 0 .088.321.321 0 0 1 0 .096.251.251 0 0 1 0 .078v.166a.471.471 0 0 1-.043.096v.07l-.079.104-.043.061-.131.14-.052.052-.096.079-.087.06-.105.08-.122.069-10.976 6.381a2.405 2.405 0 0 1-.427.201l-.113.052-.288.087-.305.07-.375.07h-.087a5.516 5.516 0 0 1-.515 0H20.712l-.497-.079h-.078l-.428-.122h-.078a4.643 4.643 0 0 1-.462-.226L8.114 96.441a1.517 1.517 0 0 1-.872-1.255v1.246a1.535 1.535 0 0 0 .872 1.256l11.054 6.381c.14.082.285.152.436.209h.078l.27.096h.314l.306.053H22.166a.43.43 0 0 0 .113 0c.104-.017.206-.044.305-.079h.166l.122-.052.122-.044c.146-.058.29-.125.427-.2l10.976-6.382.078-.052.114-.078.087-.07.096-.079a.97.97 0 0 0 .13-.14.498.498 0 0 0 .07-.113v-.043c.013-.033.028-.065.044-.096v-.148a.122.122 0 0 1 0-.061.358.358 0 0 0 0-.096v-.061l.2-1.482Z" fill="url(#y)"/><path d="M34.32 93.896c1.194.688 1.203 1.804 0 2.493l-10.976 6.381a4.734 4.734 0 0 1-4.316 0L7.974 96.389c-1.194-.689-1.203-1.805 0-2.493l10.976-6.382a4.735 4.735 0 0 1 4.359 0l11.01 6.382Z" fill="url(#z)"/><path d="m31.373 95.5-.288.209-8.508 4.943a3.087 3.087 0 0 1-2.79 0l-8.56-4.943a1.632 1.632 0 0 1-.297-.218c-.462-.436-.367-1.02.279-1.395l8.517-4.943a3.06 3.06 0 0 1 2.79 0l8.56 4.943c.663.375.759.96.297 1.404Z" fill="url(#A)"/><path d="m31.373 95.5-.288.209-8.508 4.943a3.087 3.087 0 0 1-2.79 0l-8.56-4.943a1.627 1.627 0 0 1-.297-.218c.083-.081.177-.152.279-.21l8.517-4.951a3.086 3.086 0 0 1 2.79 0l8.56 4.952c.11.057.21.13.297.218Z" fill="url(#B)"/><path d="M26.038 94.759a.48.48 0 0 1 0 .157.778.778 0 0 1 0 .122l-.044.148-.052.113c-.02.054-.043.106-.07.157l-.07.105c-.032.061-.07.12-.113.174l-.079.096a1.74 1.74 0 0 1-.209.227l-.078.078-.149.122-.139.114-.174.113-.184.122a3.951 3.951 0 0 1-.47.235l-.14.061-.383.14-.14.052-.253.07-.191.052-.27.061h-.184c-.183 0-.375.061-.558.079h-2.414l-.201-.044-.305-.07-.166-.052a5.45 5.45 0 0 1-.531-.174h-.07a5.804 5.804 0 0 1-.663-.323 2.458 2.458 0 0 1-1.447-2.023v.602a2.458 2.458 0 0 0 1.447 2.023c.214.121.435.229.663.322h.043c.175.067.352.126.532.175h.13l.306.07H22.027l.558-.08h.157l.331.07.192-.052.253-.07H23.658l.383-.148.14-.06c.159-.069.313-.147.462-.236h.06l.131-.087c.062-.033.12-.07.175-.114l.14-.104.148-.131.052-.052c.074-.069.144-.141.21-.218l.043-.053a.183.183 0 0 0 0-.052c.04-.053.078-.108.113-.166l.052-.078.07-.148a.469.469 0 0 0 .044-.096l.043-.148v-.096a.956.956 0 0 0 0-.157.436.436 0 0 0 0-.105v-.645a.865.865 0 0 1 .114-.078Z" fill="url(#C)"/><path d="M24.608 92.623c1.918 1.116 1.935 2.912 0 4.019a7.664 7.664 0 0 1-6.974 0c-1.918-1.107-1.927-2.903 0-4.02a7.647 7.647 0 0 1 6.974 0Z" fill="url(#D)"/><path d="M37.092 89.066c1.447.872 1.456 2.197 0 3.034l-13.286 7.724a5.766 5.766 0 0 1-5.23 0L5.192 92.1c-1.447-.872-1.455-2.197 0-3.034l13.295-7.724a5.745 5.745 0 0 1 5.23 0l13.374 7.724Z" fill="url(#E)"/><path d="M35.217 88.438a.296.296 0 0 1 0 .087.358.358 0 0 1 0 .096.252.252 0 0 1 0 .079v.087a.312.312 0 0 1 0 .078.469.469 0 0 1-.043.096.508.508 0 0 0 0 .07l-.079.105-.043.06-.131.14-.052.052-.096.079-.087.061-.105.078-.122.07-10.976 6.382a3.2 3.2 0 0 1-.427.2l-.113.044-.288.096-.305.07-.375.07h-.087a5.072 5.072 0 0 1-.515 0h-.078a5.072 5.072 0 0 1-.514 0h-.07l-.497-.08h-.078a3.503 3.503 0 0 1-.428-.13h-.078a3.188 3.188 0 0 1-.462-.218L8.114 89.728a1.526 1.526 0 0 1-.872-1.255v1.247a1.535 1.535 0 0 0 .872 1.255l11.054 6.382c.14.081.285.151.436.209h.078l.27.096h.314l.306.06H22.28c.104-.016.206-.042.305-.078h.166l.122-.052.122-.044a3.8 3.8 0 0 0 .427-.2l10.976-6.382.009-.087a.496.496 0 0 0 .113-.07l.087-.07.096-.078.13-.14.07-.112v-.044a.996.996 0 0 1 .044-.096v-.148a.122.122 0 0 1 0-.061.394.394 0 0 0 0-.096v-.061l.27-1.465Z" fill="url(#F)"/><path d="M34.32 87.183c1.194.688 1.203 1.804 0 2.493l-10.976 6.382a4.733 4.733 0 0 1-4.316 0L7.974 89.675c-1.194-.689-1.203-1.805 0-2.502l10.976-6.373a4.708 4.708 0 0 1 4.359 0l11.01 6.382Z" fill="url(#G)"/><path d="M31.373 88.778c-.09.08-.187.153-.288.218l-8.508 4.943a3.087 3.087 0 0 1-2.79 0l-8.56-4.943a2.18 2.18 0 0 1-.297-.218c-.462-.436-.367-1.02.279-1.394l8.517-4.952a3.086 3.086 0 0 1 2.79 0l8.56 4.943c.663.383.759.968.297 1.403Z" fill="url(#H)"/><path d="M31.373 88.778c-.09.08-.187.153-.288.218l-8.508 4.943a3.087 3.087 0 0 1-2.79 0l-8.56-4.943a2.18 2.18 0 0 1-.297-.218 1.82 1.82 0 0 1 .279-.218l8.517-4.943a3.085 3.085 0 0 1 2.79 0l8.56 4.943c.106.064.205.137.297.218Z" fill="url(#I)"/><path d="M26.038 88.046a.41.41 0 0 1 0 .148.697.697 0 0 1 0 .131c0 .044 0 .096-.044.148l-.052.114c-.02.053-.043.106-.07.156l-.07.105-.113.174-.079.096a1.74 1.74 0 0 1-.209.227l-.078.078-.149.123-.139.113-.174.113-.184.122c-.148.087-.305.157-.47.235l-.14.062-.383.139-.14.052-.253.07-.191.052-.27.061h-.184c-.183 0-.375.061-.558.079h-2.153l-.261-.044h-.201l-.305-.078-.166-.044-.531-.174h-.07a4.605 4.605 0 0 1-.663-.314 2.46 2.46 0 0 1-1.447-2.022v.601a2.458 2.458 0 0 0 1.447 2.023c.214.121.435.229.663.322h.043c.175.067.352.126.532.174h.13l.306.07h.201l.261.044h2.153l.558-.079h.157l.27-.06.192-.053.253-.07H23.596l.384-.14.14-.06a3.83 3.83 0 0 0 .462-.236h.06l.131-.087.175-.113.14-.113.147-.123.053-.052a1.74 1.74 0 0 0 .209-.227h.044v-.052c.042-.054.08-.113.113-.174l.052-.07c.027-.05.05-.103.07-.157a.27.27 0 0 0 .044-.087l.043-.148v-.096a.957.957 0 0 0 0-.157.436.436 0 0 0 0-.105v-.645a.868.868 0 0 1 .175-.052Z" fill="url(#J)"/><path d="M24.608 85.875c1.918 1.107 1.935 2.912 0 4.02a7.662 7.662 0 0 1-6.974 0c-1.918-1.108-1.927-2.904 0-4.02a7.646 7.646 0 0 1 6.974 0Z" fill="url(#K)"/><path d="m86.06 33.342 9.17-5.335a8.493 8.493 0 0 1-.932.47l-.305.122c-.2.087-.401.157-.61.227-.21.07-.602.174-.872.244l-.41.096c-.174 0-.349.052-.532.078-.183.027-.436.061-.662.079-.227.017-.262 0-.392 0h-1.186c-.366 0-.724-.053-1.098-.096h-.061a15.4 15.4 0 0 1-1.212-.218l-.244-.026c-.419-.105-.872-.218-1.282-.349l-9.18 5.335.218.07.82.227.252.052.253.053.34.078c.288.052.576.105.872.14h.078c.28 0 .55.07.82.087h1.988c.174 0 .34-.053.505-.079l.532-.07h.122c.096 0 .192-.06.288-.078.305-.07.61-.157.872-.253l.2-.052.41-.166.305-.122c.32-.155.63-.327.933-.514Z" fill="url(#L)"/><path d="m100.627 9.838-9.17 5.327 28.175 3.749 9.171-5.336-28.176-3.74Z" fill="url(#M)"/><path d="M171.041 83.905c.145-.744.285-1.494.419-2.25 0-.13.052-.26.069-.392.148-.871.297-1.743.428-2.615l-9.163 5.257c-.131.872-.279 1.743-.427 2.615l-.079.427c-.13.759-.27 1.509-.418 2.24-.061.306-.131.602-.192.873a90.992 90.992 0 0 1-.357 1.665l-.209.872-.419 1.743c-.087.323-.166.636-.253.95-.139.54-.287 1.073-.436 1.596-.087.287-.165.575-.252.871a59.301 59.301 0 0 1-.759 2.45v.114a44.442 44.442 0 0 1-.872 2.441c-.157.409-.305.81-.462 1.211-.061.157-.113.314-.174.462-.227.584-.462 1.16-.706 1.744-.044.122-.096.235-.148.357-.192.445-.384.872-.585 1.308l-.244.549c-.157.323-.314.645-.462.968l-.453.872-.41.802-.471.872-.418.767c-.166.279-.323.558-.479.871l-.436.733-.497.802c-.14.235-.288.471-.436.706l-.488.741-.454.68c-.165.244-.34.479-.505.715-.166.235-.305.436-.462.645-.157.209-.34.453-.515.68-.174.227-.305.418-.462.619l-.523.645-.471.584-.531.628-.471.549-.541.593c-.157.174-.313.349-.479.514-.166.166-.358.384-.541.567l-.479.497-.549.532-.48.47-.558.506-.479.436-.567.488-.471.41-.566.462-.471.375c-.192.157-.384.296-.575.444l-.462.349-.593.427-.445.323-.619.418-.41.279-.714.453-.306.201c-.337.209-.677.41-1.02.602l9.172-5.327c.34-.192.68-.401 1.02-.61l.305-.192.715-.462.409-.27.619-.428c.148-.095.297-.209.445-.313l.593-.428.462-.357.575-.436.471-.383.567-.463.479-.401.558-.488.479-.436.558-.514.48-.462.549-.541.48-.488c.183-.192.366-.375.54-.566.174-.192.323-.349.48-.523.156-.175.357-.393.54-.593l.48-.55.523-.618.47-.585c.175-.218.349-.427.523-.653l.462-.611.515-.68.462-.653.497-.707.462-.68.488-.741.157-.244a7.86 7.86 0 0 0 .279-.462l.497-.802.436-.732.479-.872.419-.767c.157-.288.313-.575.462-.872l.418-.802.445-.915c.069-.131.139-.262.2-.401.061-.14.175-.384.271-.576.095-.191.165-.357.244-.54.2-.427.392-.872.584-1.308.052-.122.104-.235.148-.357.244-.567.471-1.134.706-1.744.061-.148.113-.314.174-.462l.367-.95c0-.087.061-.175.087-.262.296-.793.584-1.604.871-2.44a.83.83 0 0 1 0-.123c.262-.793.515-1.612.759-2.44 0-.105.07-.21.096-.315.026-.104.104-.366.157-.549.148-.523.296-1.063.436-1.604.087-.314.165-.619.252-.941l.419-1.744c.052-.21.105-.41.157-.628l.052-.27c.122-.549.244-1.107.358-1.665.069-.14.139-.436.2-.767Z" fill="url(#N)"/><path d="m170.405 77.245-.183-.166a52.74 52.74 0 0 1-1.421-1.421 2.193 2.193 0 0 0-.192-.2c-.454-.489-.872-.986-1.334-1.5-.07-.07-.131-.148-.192-.218-.427-.506-.872-1.02-1.246-1.552l-.262-.34c-.296-.392-.575-.784-.872-1.177l-.532-.758c-.165-.244-.322-.497-.488-.75a45.582 45.582 0 0 1-1.046-1.665c-.183-.314-.375-.619-.558-.942-.183-.322-.279-.488-.41-.74-.313-.567-.619-1.134-.871-1.744a38.995 38.995 0 0 1-.968-2.066.457.457 0 0 1 0-.105 47.085 47.085 0 0 1-.811-1.979l-.078-.209a39.38 39.38 0 0 1-.672-1.918l-.078-.244a33.704 33.704 0 0 1-.558-1.9c0-.088-.052-.175-.07-.262a39.229 39.229 0 0 1-.444-1.892 2.412 2.412 0 0 1-.044-.253 29.292 29.292 0 0 1-.322-1.891 1.585 1.585 0 0 1 0-.218 29.314 29.314 0 0 1-.201-1.91v-.165a22.501 22.501 0 0 1-.07-2.005V45.59c0-.27 0-.532.061-.785.061-.252 0-.252 0-.374 0-.253.061-.497.105-.75 0-.113 0-.227.052-.34.053-.358.122-.706.201-1.046l-9.163 5.361c-.069.305-.13.61-.191.933v.105c0 .034 0 .226-.053.348-.052.122-.061.34-.078.515v3.722c0 .27 0 .637.043.96v.313l.053.663c0 .322.069.653.113.976v.27a1.586 1.586 0 0 0 0 .218c0 .174.044.34.07.506.052.34.113.688.174 1.029l.079.357c.01.085.024.17.043.253 0 .14.061.279.087.418.079.358.166.715.253 1.064 0 .14.07.27.105.41.035.139 0 .174.069.261.07.087.062.262.105.392.096.358.201.715.305 1.064l.148.445.079.244c0 .122.07.235.113.357.114.34.227.68.358 1.02.061.183.13.366.2.54l.079.21.087.244.392.976c.105.253.218.506.331.759a.563.563 0 0 0 .044.104.385.385 0 0 1 0 .096c.148.332.296.663.453.985.157.323.314.663.48.986.203.418.412.828.627 1.229.088.165.184.314.271.48.087.165.27.487.409.731.14.245.192.358.297.532l.261.419c.34.558.689 1.116 1.047 1.665.104.157.2.322.296.47l.192.27.54.76c.166.235.323.479.497.705l.358.471.261.349.244.322c.262.332.523.654.794.977l.209.244c.059.077.123.15.192.218l.357.427c.262.296.523.584.793.872l.183.2.201.2c.139.15.279.306.427.454.279.288.567.567.872.872l.131.122.183.166.566.531c.297.262.593.524.872.776l.07.061L172 78.596c-.558-.419-1.072-.88-1.595-1.352Z" fill="url(#O)"/><path d="m119.632 18.914 9.171-5.336 28.089 28.743-9.162 5.335-28.098-28.742Z" fill="url(#P)"/><path d="m119.632 18.914 28.098 28.768a21.503 21.503 0 0 0-.506 4.752c0 10.897 6.591 24 15.57 31.532-7.079 47.312-36.842 52.577-43.502 53.179a197.01 197.01 0 0 1-18.63-28.473c-9.093-16.686-20.54-42.961-24.41-74.703 8.997 2.842 15.692-2.615 15.692-13.477a30.148 30.148 0 0 0-.48-5.327l28.168 3.749Z" fill="url(#Q)"/><path d="M119.301 132.516a196.646 196.646 0 0 1-16.128-25.073c-8.239-15.117-18.918-39.23-23.12-68.583 9.11 1.273 15.23-5.309 15.265-16.46 0-.87 0-1.743-.105-2.614l24.41 3.243 24.332 24.898c-.07.802-.114 1.63-.114 2.476 0 11.15 6.033 24.776 15.117 33.999-7.122 40.006-31.925 46.919-39.649 48.096m.314-110.228-25.064-3.304v.279c.088.959.131 1.9.123 2.807 0 10.959-6.103 17.383-15.1 15.997h-.235v.314c4.193 29.64 14.995 54.05 23.32 69.35a196.304 196.304 0 0 0 16.416 25.456l.157.218h.174c7.602-1.107 32.98-7.915 40.102-48.689l.052-.27-.244-.244c-8.979-8.988-14.994-22.387-14.96-33.346-.001-.888.043-1.775.131-2.659v-.261l-24.88-25.456-.114-.113" fill="url(#R)"/><path d="M138.759 80v-.166l-.052-.497v-.157a3.782 3.782 0 0 0-.079-.349 1.434 1.434 0 0 0-.043-.183 1.352 1.352 0 0 0-.044-.14l-.052-.174c0-.052-.044-.113-.061-.174l-.061-.157a.986.986 0 0 0-.07-.166l-.052-.122-.079-.165a1.618 1.618 0 0 0-.087-.175l-.105-.2-.113-.218v-.044c-.078-.13-.157-.27-.244-.392l-.209-.305-.149-.192-.13-.165-.131-.149-.131-.148-.104-.105-.14-.139-.148-.14-.148-.13-.079-.061-.061-.053-.148-.113-.148-.096a.789.789 0 0 0-.14-.096l-.139-.087-34-19.624-.104-.06-.14-.07-.131-.061-.139-.061-.131-.053h-1.369l-.226.061-.27.122-9.172 5.336c.155-.09.323-.154.497-.192.188-.027.38-.027.567 0 .21.02.418.065.619.13.238.08.466.185.68.314L126.292 80c.235.137.46.292.672.463.214.18.417.372.61.575.403.43.755.908 1.046 1.42.14.254.279.515.392.777.121.265.223.54.305.82.084.285.148.576.192.871.042.268.062.54.061.81l-.078 26.485a3.74 3.74 0 0 1-.061.724 2.377 2.377 0 0 1-.192.593 2.02 2.02 0 0 1-.253.392l-.096.114a1.47 1.47 0 0 1-.357.305l9.171-5.336c.137-.079.26-.179.366-.296l.096-.113c.045-.049.086-.101.122-.157.046-.073.087-.149.122-.227l.079-.174.052-.175a1.18 1.18 0 0 0 .044-.165.262.262 0 0 0 0-.079V106.911l.078-26.484.096-.428Z" fill="url(#S)"/><path d="M126.249 79.694a7.343 7.343 0 0 1 3.339 5.78l-.079 26.485c0 2.127-1.508 2.99-3.356 1.918l-34-19.615a7.366 7.366 0 0 1-3.339-5.789l.07-26.485c0-2.127 1.517-2.981 3.374-1.909l33.991 19.615Z" fill="url(#T)"/><path d="M108.569 76.33a9.9 9.9 0 0 1 4.49 7.767c0 1.586-.645 2.615-1.622 3.007v8.117c0 1.83-1.307 2.615-2.912 1.647a6.337 6.337 0 0 1-2.876-4.986v-8.117a9.422 9.422 0 0 1-1.596-4.864c.009-2.842 2.031-4.002 4.516-2.572Z" fill="url(#U)"/><path d="M106.442 46.017v-.113c.061-.279.131-.54.209-.793a.962.962 0 0 1 .044-.14c.074-.232.164-.46.27-.68v-.07c.111-.238.239-.469.384-.688l.061-.096c.112-.167.234-.327.366-.48l.148-.157c.113-.122.232-.239.358-.348l.148-.131a4.84 4.84 0 0 1 .558-.384l-3.949 2.293a4.782 4.782 0 0 0-.55.384l-.157.13c-.125.11-.244.226-.357.35l-.139.156a5.051 5.051 0 0 0-.367.48l-.069.087a5.125 5.125 0 0 0-.358.645.205.205 0 0 0 0 .07l-.192.444c0 .079-.043.157-.069.236l-.053.14a.75.75 0 0 1-.043.13 7.51 7.51 0 0 0-.122.48c-.004.06-.004.121 0 .182v.288c0 .061-.044.297-.07.453v.253a.255.255 0 0 1 0 .087V61.44c.001.187-.016.374-.052.558a2.13 2.13 0 0 1-.149.453 1.45 1.45 0 0 1-.191.297l-.07.087a1.313 1.313 0 0 1-.279.227l3.94-2.293c.105-.06.199-.137.279-.227l.07-.087a.58.58 0 0 0 .096-.113c0-.053.061-.114.096-.175l.052-.13c0-.044 0-.088.044-.131.043-.044 0-.087 0-.131v-.061a.62.62 0 0 0 0-.061.623.623 0 0 1 0-.122v-.122a.623.623 0 0 0 0-.122V47.97a9.983 9.983 0 0 1 .052-1.037v-.096a7.02 7.02 0 0 1 .061-.82Z" fill="url(#V)"/><path d="M130.381 61.308V60.14a2.484 2.484 0 0 1 0-.244c0-.235-.052-.48-.087-.715-.035-.235-.061-.488-.105-.732v-.061c0-.227-.069-.453-.113-.68l-.157-.758c0-.096-.043-.184-.061-.28-.017-.095 0-.104-.044-.165-.043-.061-.043-.21-.069-.323l-.209-.776c-.053-.191-.114-.383-.166-.575a.457.457 0 0 0 0-.105v-.087l-.235-.758-.262-.75s-.044-.096-.061-.148a.93.93 0 0 0-.044-.113c-.052-.149-.104-.306-.165-.454l-.288-.715a8.97 8.97 0 0 0-.227-.514.255.255 0 0 0 0-.087v-.096l-.322-.706c-.122-.262-.253-.523-.375-.776l-.061-.122-.079-.148c-.104-.2-.209-.41-.322-.61-.113-.201-.279-.506-.419-.75-.139-.244-.139-.262-.218-.384l-.078-.148-.401-.645-.593-.942s-.061-.096-.096-.148c-.287-.436-.593-.872-.871-1.29-.21-.288-.428-.576-.654-.872a16.115 16.115 0 0 0-.532-.663l-.567-.662c-.183-.21-.375-.427-.566-.628l-.096-.096-.096-.104-.41-.428c-.2-.209-.41-.41-.619-.61l-.183-.174-.148-.14-.305-.287-.654-.567-.279-.227-.148-.122-.218-.183-.645-.488-.462-.322-.088-.062-.078-.06-.619-.41c-.209-.131-.41-.262-.619-.375l-.148-.087-.462-.262-.175-.087-.235-.122-.183-.096-.296-.14-.21-.104h-.087a8.274 8.274 0 0 0-.584-.244l-.558-.21h-.078l-.218-.07-.288-.095h-.157l-.593-.253-.2-.052h-.209l-.253-.061h-.131l-.244-.044-.297-.043h-.104a2.31 2.31 0 0 0-.244 0H108.36c-.227 0-.453.035-.68.104h-.044c-.312.066-.621.15-.924.253h-.148l-.392.157-.183.078c-.18.088-.364.184-.55.288l-3.94 2.293c.177-.106.361-.202.549-.288l.183-.078c.131-.053.253-.114.384-.157l.148-.052c.306-.103.617-.188.933-.253h.078c.221-.04.448-.076.68-.105h1.944l.349.044h.297l.374.07.262.06.401.096.262.07.444.14.209.07.645.235.663.288.209.104c.166.07.323.148.488.236l.236.122.636.348c.497.288.985.593 1.465.924l.087.07c.445.314.872.645 1.325.994l.14.122c.427.34.871.706 1.246 1.08l.14.14c.418.384.819.794 1.22 1.212l.096.105c.419.453.872.872 1.238 1.395.41.497.802 1.002 1.186 1.517v.043c.348.462.68.942.993 1.43.21.314.402.627.593.941.192.314.332.523.488.794l.218.383c.256.448.5.901.733 1.36l.078.148c.279.558.549 1.125.802 1.7a.634.634 0 0 1 0 .088c.244.558.471 1.115.68 1.682v.113c.209.585.41 1.16.584 1.744v.105c.175.558.323 1.116.454 1.674v.165c.13.576.244 1.15.34 1.744.096.575.165 1.15.209 1.743v.14c.043.566.07 1.133.061 1.682V75.45c.002.184-.016.368-.052.549a1.845 1.845 0 0 1-.14.453 1.14 1.14 0 0 1-.192.297.637.637 0 0 1-.069.096 1.18 1.18 0 0 1-.279.226l3.949-2.293c.102-.063.196-.139.279-.226l.069-.087.088-.123c.037-.055.069-.113.096-.174l.061-.13a1.14 1.14 0 0 1 .043-.14.714.714 0 0 1 0-.13.115.115 0 0 1 0-.053.115.115 0 0 0 0-.052V61.98c.288-.227.288-.454.279-.672Z" fill="url(#W)"/><path d="M111.865 39.008c8.064 4.655 14.602 15.98 14.576 25.282v11.202c0 1.622-1.151 2.276-2.563 1.456a5.585 5.585 0 0 1-2.555-4.411V61.343c0-6.033-4.236-13.39-9.485-16.424-5.248-3.034-9.519-.584-9.537 5.44v11.193c0 1.622-1.151 2.276-2.563 1.465a5.614 5.614 0 0 1-2.554-4.411V47.403c.035-9.301 6.617-13.05 14.681-8.395Z" fill="url(#X)"/><path d="M111.42 81.01c.082-.027.167-.047.253-.06a.735.735 0 0 1 .244 0 .605.605 0 0 1 .218.087l-3.557-2.075H108.238a.21.21 0 0 0-.105 0h-.436l-.218.105-40.93 23.634 3.6 2.127 40.975-23.669.287-.13.009-.018Z" fill="url(#Y)"/><path d="M64.492 115.124c0-3.287-1.177-5.606-3.051-6.704l-3.566-2.066c1.883 1.089 3.043 3.408 3.06 6.704 0 .377-.017.761-.052 1.15v.366c0 .253-.053.497-.088.75-.034.253-.095.558-.148.828-.052.271-.07.384-.113.576-.044.192-.078.357-.13.532-.053.174-.123.496-.193.749s-.087.288-.14.427c-.086.279-.173.558-.278.872 0 .122-.078.236-.122.349-.148.383-.297.767-.462 1.151l-.061.13c-.148.34-.314.68-.48 1.012l-.157.314c-.165.313-.33.627-.505.941l-.105.183c-.209.366-.427.724-.662 1.072-.061.105-.131.201-.2.306-.166.252-.34.496-.515.741-.175.244-.192.27-.297.401-.104.13-.313.401-.47.601l-.401.497-.41.453c-.227.253-.453.497-.689.741l-.444.436-.35.332-.592.514c-.113.104-.235.2-.357.296-.123.096-.436.34-.654.497l-.314.227c-.331.227-.663.436-.994.636-.331.201-.645.34-.959.488l-.244.114c-.305.139-.601.261-.872.366h-.06a9.068 9.068 0 0 1-.76.209l-.426.087c-.184 0-.375.07-.558.088h-.306a5.931 5.931 0 0 1-.68 0h-.148a7.777 7.777 0 0 1-.776-.096h-.183a5.485 5.485 0 0 1-.575-.166l-.174-.061a4.937 4.937 0 0 1-.707-.314l3.566 2.075h.052l.524.261h.104l.174.062.28.095c.096.032.195.055.296.07H48.408c.21.037.422.06.636.07h1.473c.085-.012.17-.03.253-.052l.427-.096.236-.044.523-.166h.06c.219-.069.428-.156.646-.244l.253-.113.252-.113a12.56 12.56 0 0 0 1.944-1.134c.114-.069.21-.148.323-.226l.654-.497.357-.288c.192-.174.393-.34.584-.523l.358-.322.21-.201.226-.244c.235-.235.47-.488.697-.741.07-.079.148-.148.218-.235l.183-.218.41-.497c.078-.105.174-.21.261-.314l.21-.288.287-.392.2-.27c.105-.157.21-.323.323-.48.114-.157.131-.2.201-.305l.078-.122c.192-.288.367-.584.54-.872a.265.265 0 0 0 0-.07l.105-.183c.123-.209.245-.418.358-.636l.148-.297.166-.322.14-.27c.113-.244.226-.489.33-.741a14.27 14.27 0 0 0 .506-1.247l.131-.34c.052-.157.113-.314.166-.479.052-.166.07-.236.113-.358l.13-.436c0-.087.062-.183.08-.27.017-.087.078-.314.121-.471l.122-.593c0-.061 0-.122.044-.183.043-.061.043-.261.07-.383.052-.279.104-.558.14-.872 0-.07 0-.148.043-.227l.052-.523v-.366c.078-.331.096-.715.096-1.098Z" fill="url(#Z)"/><path d="m66.044 100.024.209.105-3.557-2.066-.096-.053-.113-.06a6.1 6.1 0 0 0-.637-.306l-.122-.06h-.104a7.563 7.563 0 0 0-.785-.28 9.058 9.058 0 0 0-.872-.2h-.244c-.253 0-.514-.07-.784-.087H57.553c-.386.017-.77.055-1.151.113-.253 0-.506.087-.767.14l-.253.06-.488.123h-.053c-.305.078-.61.174-.924.278l-.174.07c-.262.087-.515.183-.767.288h-.096l-.192.087c-.27.113-.55.244-.828.375l-.314.157c-.358.183-.724.375-1.09.584a27.58 27.58 0 0 0-1.648 1.046l-.523.384c-.357.261-.723.531-1.08.81-.201.157-.393.323-.585.489-.33.279-.653.558-.976.871l-.584.541c-.122.113-.244.218-.358.34-.322.314-.645.645-.959.976-.313.34-.627.68-.924 1.029-.104.113-.2.244-.296.357-.235.271-.453.541-.671.82-.218.279-.297.349-.436.532-.14.183-.227.314-.349.462l-.48.654-.322.444c-.183.262-.357.523-.532.794l-.34.496-.13.21c-.314.479-.61.967-.872 1.456l-.052.104c-.062.105-.114.209-.175.305-.2.349-.4.698-.584 1.055l-.253.497-.261.514-.236.454a36.3 36.3 0 0 0-.549 1.212l-.105.226v.07a34.033 34.033 0 0 0-.636 1.552l-.105.279-.2.566c-.096.262-.192.523-.28.785-.086.261-.121.401-.182.601-.061.201-.148.471-.218.707l-.14.453c-.07.261-.122.523-.191.776-.07.253-.149.593-.218.872l-.079.313c-.099.477-.186.956-.261 1.439 0 .096 0 .2-.044.296-.044.096-.078.436-.105.654-.026.218-.052.567-.078.872-.026.305-.044.401-.061.601a23.652 23.652 0 0 0-.078 1.91c0 5.431 1.944 9.258 5.039 11.062l3.565 2.067c-3.104-1.805-5.03-5.632-5.048-11.063 0-.628 0-1.264.079-1.901 0-.2.043-.409.06-.61.053-.497.105-1.003.184-1.508 0-.096 0-.192.044-.288.096-.584.218-1.168.348-1.743.061-.297.14-.585.21-.872.07-.288.209-.82.33-1.229.07-.245.14-.48.219-.715.148-.462.296-.924.462-1.386.07-.183.13-.375.209-.567.235-.636.488-1.264.759-1.892l.104-.235c.253-.558.514-1.107.785-1.657l.261-.523c.27-.523.55-1.037.872-1.551l.166-.306c.348-.592.715-1.185 1.09-1.743l.33-.497c.28-.419.567-.828.872-1.229.166-.227.323-.445.489-.654.165-.209.514-.671.776-.994.261-.322.444-.558.67-.828.402-.471.803-.933 1.221-1.378.436-.453.872-.871 1.317-1.307.191-.192.392-.366.584-.549l.976-.872.593-.488c.349-.288.715-.558 1.081-.82.174-.122.34-.261.523-.375.54-.375 1.081-.732 1.639-1.046.366-.218.732-.41 1.098-.593l.306-.148c.279-.139.558-.261.871-.383l.28-.123.767-.287.174-.061c.314-.114.628-.21.933-.288.174-.052.357-.096.531-.13l.253-.062c.262-.06.523-.104.776-.148.384-.059.771-.097 1.16-.113h.226a7.56 7.56 0 0 1 .994 0h.166c.261 0 .523.052.784.096h.236c.296.06.584.122.871.2.27.079.532.174.794.28l.218.095c.078.052.296.157.497.27Z" fill="url(#aa)"/><path d="M111.123 81.159c1.047-.602 1.805.14 1.482 1.482l-1.935 8.099a3.488 3.488 0 0 1-1.473 2.092l-11.621 6.704a3.423 3.423 0 0 0-1.552 2.685 3.39 3.39 0 0 1-1.552 2.676L70.15 118.898c-2.45 8.892-8.718 17.846-16.085 22.091-9.52 5.501-17.287 1.064-17.322-9.868-.035-10.933 7.69-24.306 17.209-29.798 7.35-4.245 13.66-2.563 16.163 3.487l41.008-23.651Zm-57.005 52.01c5.762-3.33 10.461-11.429 10.417-18.046-.043-6.616-4.725-9.31-10.46-5.98-5.737 3.33-10.462 11.429-10.462 18.046 0 6.617 4.725 9.31 10.461 5.98" fill="url(#ab)"/><path d="M81.675 105.002c-.75.436-1.369.087-1.369-.785a3.011 3.011 0 0 1 1.36-2.353c.758-.436 1.377-.088 1.377.776a3.011 3.011 0 0 1-1.368 2.362Zm4.115-2.371c-.759.436-1.37.087-1.37-.785a2.97 2.97 0 0 1 1.36-2.354c.75-.436 1.36-.087 1.37.776a3.02 3.02 0 0 1-1.36 2.363Zm4.106-2.371c-.759.435-1.37.087-1.378-.785a3.015 3.015 0 0 1 1.36-2.354c.759-.436 1.369-.087 1.378.785a3.017 3.017 0 0 1-1.36 2.354Zm4.097-2.372c-.75.436-1.36.087-1.369-.784a3.016 3.016 0 0 1 1.36-2.354c.759-.436 1.369-.087 1.369.784a2.972 2.972 0 0 1-1.36 2.354Zm4.106-2.37c-.75.435-1.369.086-1.369-.777a3.018 3.018 0 0 1 1.36-2.362c.759-.436 1.369-.088 1.369.784a2.972 2.972 0 0 1-1.36 2.354Zm4.106-2.372c-.75.436-1.369.087-1.369-.776a3.029 3.029 0 0 1 1.36-2.363c.759-.436 1.369-.087 1.369.785a2.988 2.988 0 0 1-1.36 2.354Zm4.839-7.576-30.225 17.436a2.152 2.152 0 0 0-.985 1.691v4.158c0 .628.453.872.994.567l30.224-17.436a2.2 2.2 0 0 0 .977-1.743v-4.159c0-.619-.445-.871-.985-.558" fill="url(#ac)"/><path d="M81.666 101.864a3.01 3.01 0 0 0-1.36 2.353c0 .872.62 1.221 1.369.785a3.004 3.004 0 0 0 1.369-2.362c0-.872-.62-1.212-1.378-.776Z" fill="url(#ad)"/><path d="M85.78 99.492a2.968 2.968 0 0 0-1.36 2.354c0 .872.611 1.221 1.37.785a3.027 3.027 0 0 0 1.36-2.363c0-.872-.62-1.212-1.37-.776Z" fill="url(#ae)"/><path d="M89.878 97.121a3.016 3.016 0 0 0-1.36 2.354c0 .872.62 1.22 1.378.784a3.01 3.01 0 0 0 1.36-2.353c0-.872-.62-1.22-1.378-.785Z" fill="url(#af)"/><path d="M93.984 94.75a3.016 3.016 0 0 0-1.36 2.354c0 .871.62 1.22 1.37.784a2.972 2.972 0 0 0 1.36-2.354c0-.871-.611-1.22-1.37-.784Z" fill="url(#ag)"/><path d="M98.09 92.379a3.015 3.015 0 0 0-1.36 2.362c0 .872.62 1.212 1.37.776a2.974 2.974 0 0 0 1.36-2.354c0-.871-.611-1.22-1.37-.784Z" fill="url(#ah)"/><path d="M102.196 90.007a3.025 3.025 0 0 0-1.36 2.363c0 .872.619 1.212 1.369.776a2.979 2.979 0 0 0 1.36-2.354c0-.872-.61-1.22-1.369-.785Z" fill="url(#ai)"/><path style="mix-blend-mode:screen" d="M102.832 23.727c4.368-4.368 4.368-11.45 0-15.818s-11.45-4.368-15.818 0-4.368 11.45 0 15.818 11.45 4.368 15.818 0Z" fill="url(#aj)"/><path style="mix-blend-mode:screen" d="M70.638 116.606c7.593 0 13.748-6.156 13.748-13.748 0-7.593-6.155-13.748-13.748-13.748-7.593 0-13.748 6.155-13.748 13.748 0 7.592 6.155 13.748 13.748 13.748Z" fill="url(#ak)"/><defs><linearGradient id="a" x1="38.6" y1="66.896" x2="78.946" y2="96.04" gradientUnits="userSpaceOnUse"><stop stop-color="#F6FBFF"/><stop offset="1" stop-color="#3D6DFF"/></linearGradient><linearGradient id="b" x1="36.909" y1="79.999" x2="68.65" y2="79.999" gradientUnits="userSpaceOnUse"><stop stop-color="#F6FBFF"/><stop offset="1" stop-color="#81ABFF"/></linearGradient><linearGradient id="c" x1="45.287" y1="68.466" x2="61.964" y2="82.362" gradientUnits="userSpaceOnUse"><stop stop-color="#F6FBFF"/><stop offset="1" stop-color="#3D6DFF"/></linearGradient><linearGradient id="d" x1="53.22" y1="78.369" x2="52.052" y2="68.073" gradientUnits="userSpaceOnUse"><stop stop-color="#F6FBFF"/><stop offset="1" stop-color="#3D6DFF"/></linearGradient><linearGradient id="e" x1="52.705" y1="67.245" x2="53.028" y2="103.956" gradientUnits="userSpaceOnUse"><stop stop-color="#F6FBFF"/><stop offset="1" stop-color="#81ABFF"/></linearGradient><linearGradient id="f" x1="47.248" y1="76.024" x2="58.311" y2="76.024" gradientUnits="userSpaceOnUse"><stop stop-color="#F6FBFF"/><stop offset="1" stop-color="#81ABFF"/></linearGradient><linearGradient id="g" x1="52.775" y1="70.637" x2="52.775" y2="81.115" gradientUnits="userSpaceOnUse"><stop stop-color="#01B3F9"/><stop offset="1" stop-color="#015BEA"/></linearGradient><linearGradient id="h" x1="52.784" y1="77.14" x2="52.784" y2="56.034" gradientUnits="userSpaceOnUse"><stop stop-color="#F6FBFF"/><stop offset=".19" stop-color="#C8CCCF" stop-opacity=".81"/><stop offset="1" stop-opacity="0"/></linearGradient><linearGradient id="p" x1="52.775" y1="82.876" x2="52.775" y2="52.852" gradientUnits="userSpaceOnUse"><stop stop-color="#F6FBFF"/><stop offset="1" stop-opacity="0"/></linearGradient><linearGradient id="q" x1="38.652" y1="45.18" x2="70.908" y2="70.82" gradientUnits="userSpaceOnUse"><stop stop-color="#F6FBFF"/><stop offset="1" stop-color="#3D6DFF"/></linearGradient><linearGradient id="r" x1="36.909" y1="59.269" x2="68.65" y2="59.269" gradientUnits="userSpaceOnUse"><stop stop-color="#F6FBFF"/><stop offset="1" stop-color="#81ABFF"/></linearGradient><linearGradient id="s" x1="44.101" y1="45.564" x2="70.281" y2="70.942" gradientUnits="userSpaceOnUse"><stop stop-color="#F6FBFF"/><stop offset="1" stop-color="#3D6DFF"/></linearGradient><linearGradient id="t" x1="53.22" y1="57.638" x2="52.052" y2="47.343" gradientUnits="userSpaceOnUse"><stop stop-color="#F6FBFF"/><stop offset="1" stop-color="#3D6DFF"/></linearGradient><linearGradient id="u" x1="51.729" y1="42.818" x2="54.78" y2="76.599" gradientUnits="userSpaceOnUse"><stop stop-color="#F6FBFF"/><stop offset="1" stop-color="#3D6DFF"/></linearGradient><linearGradient id="v" x1="47.248" y1="55.302" x2="58.311" y2="55.302" gradientUnits="userSpaceOnUse"><stop stop-color="#F6FBFF"/><stop offset="1" stop-color="#81ABFF"/></linearGradient><linearGradient id="w" x1="53.158" y1="50.221" x2="51.825" y2="59.2" gradientUnits="userSpaceOnUse"><stop stop-color="#015BEA"/><stop offset="1" stop-color="#1877F2"/></linearGradient><linearGradient id="x" x1="9.308" y1="87.854" x2="38.234" y2="110.913" gradientUnits="userSpaceOnUse"><stop stop-color="#F6FBFF"/><stop offset="1" stop-color="#3D6DFF"/></linearGradient><linearGradient id="y" x1="7.076" y1="99.832" x2="35.217" y2="99.832" gradientUnits="userSpaceOnUse"><stop stop-color="#F6FBFF"/><stop offset="1" stop-color="#81ABFF"/></linearGradient><linearGradient id="z" x1="6.971" y1="95.362" x2="35.206" y2="95.362" gradientUnits="userSpaceOnUse"><stop stop-color="#0062E0"/><stop offset=".39" stop-color="#015BEA"/><stop offset=".49" stop-color="#1877F2"/><stop offset="1" stop-color="#87B3EB"/></linearGradient><linearGradient id="A" x1="21.548" y1="98.385" x2="20.511" y2="89.258" gradientUnits="userSpaceOnUse"><stop stop-color="#F6FBFF"/><stop offset="1" stop-color="#3D6DFF"/></linearGradient><linearGradient id="B" x1="21.086" y1="88.525" x2="21.374" y2="121.078" gradientUnits="userSpaceOnUse"><stop stop-color="#F6FBFF"/><stop offset="1" stop-color="#81ABFF"/></linearGradient><linearGradient id="C" x1="16.247" y1="96.311" x2="26.055" y2="96.311" gradientUnits="userSpaceOnUse"><stop stop-color="#F6FBFF"/><stop offset="1" stop-color="#81ABFF"/></linearGradient><linearGradient id="D" x1="21.156" y1="90.252" x2="21.156" y2="97.269" gradientUnits="userSpaceOnUse"><stop stop-color="#F6FBFF"/><stop offset="1" stop-color="#3D6DFF"/></linearGradient><linearGradient id="E" x1="4.757" y1="78.831" x2="43.901" y2="106.885" gradientUnits="userSpaceOnUse"><stop stop-color="#F6FBFF"/><stop offset="1" stop-color="#3D6DFF"/></linearGradient><linearGradient id="F" x1="7.076" y1="93.12" x2="35.217" y2="93.12" gradientUnits="userSpaceOnUse"><stop stop-color="#F6FBFF"/><stop offset="1" stop-color="#81ABFF"/></linearGradient><linearGradient id="G" x1="12.673" y1="80.496" x2="39.637" y2="105.717" gradientUnits="userSpaceOnUse"><stop stop-color="#F6FBFF"/><stop offset="1" stop-color="#3D6DFF"/></linearGradient><linearGradient id="H" x1="21.548" y1="91.673" x2="20.511" y2="82.545" gradientUnits="userSpaceOnUse"><stop stop-color="#F6FBFF"/><stop offset="1" stop-color="#3D6DFF"/></linearGradient><linearGradient id="I" x1="21.147" y1="76.495" x2="21.147" y2="109.623" gradientUnits="userSpaceOnUse"><stop stop-color="#F6FBFF"/><stop offset="1" stop-color="#3D6DFF"/></linearGradient><linearGradient id="J" x1="16.247" y1="89.598" x2="26.055" y2="89.598" gradientUnits="userSpaceOnUse"><stop stop-color="#F6FBFF"/><stop offset="1" stop-color="#81ABFF"/></linearGradient><linearGradient id="K" x1="21.483" y1="85.09" x2="20.3" y2="93.061" gradientUnits="userSpaceOnUse"><stop stop-color="#015BEA"/><stop offset="1" stop-color="#1877F2"/></linearGradient><linearGradient id="L" x1="76.205" y1="26.268" x2="76.951" y2="37.044" gradientUnits="userSpaceOnUse"><stop stop-color="#DFFEFF"/><stop offset="1" stop-color="#1877F2"/></linearGradient><linearGradient id="M" x1="91.363" y1="7.472" x2="92.067" y2="22.173" gradientUnits="userSpaceOnUse"><stop stop-color="#DFFEFF"/><stop offset="1" stop-color="#1877F2"/></linearGradient><linearGradient id="N" x1="135.443" y1="64.837" x2="158.201" y2="144.319" gradientUnits="userSpaceOnUse"><stop stop-color="#DFFEFF"/><stop offset="1" stop-color="#1877F2"/></linearGradient><linearGradient id="O" x1="147.355" y1="31.441" x2="167.632" y2="92.265" gradientUnits="userSpaceOnUse"><stop stop-color="#DFFEFF"/><stop offset="1" stop-color="#1877F2"/></linearGradient><linearGradient id="P" x1="119.54" y1="4.693" x2="129.19" y2="58.283" gradientUnits="userSpaceOnUse"><stop stop-color="#DFFEFF"/><stop offset="1" stop-color="#1877F2"/></linearGradient><linearGradient id="Q" x1="119.519" y1="-9.245" x2="119.519" y2="112.447" gradientUnits="userSpaceOnUse"><stop stop-color="#DFFEFF"/><stop offset="1" stop-color="#1877F2"/></linearGradient><linearGradient id="R" x1="79.364" y1="76.155" x2="159.655" y2="76.155" gradientUnits="userSpaceOnUse"><stop stop-color="#DFFEFF"/><stop offset="1" stop-color="#fff"/></linearGradient><linearGradient id="S" x1="89.878" y1="84.201" x2="138.759" y2="84.201" gradientUnits="userSpaceOnUse"><stop stop-color="#0062E0"/><stop offset="1" stop-color="#015BEA"/></linearGradient><linearGradient id="T" x1="109.205" y1="65.763" x2="109.205" y2="109.126" gradientUnits="userSpaceOnUse"><stop stop-color="#87B3EB"/><stop offset="1" stop-color="#1877F2"/></linearGradient><linearGradient id="V" x1="101.534" y1="52.547" x2="109.031" y2="52.547" gradientUnits="userSpaceOnUse"><stop stop-color="#01B3F9"/><stop offset="1" stop-color="#015BEA"/></linearGradient><linearGradient id="W" x1="101.464" y1="55.903" x2="130.39" y2="55.903" gradientUnits="userSpaceOnUse"><stop stop-color="#01B3F9"/><stop offset="1" stop-color="#015BEA"/></linearGradient><linearGradient id="X" x1="111.804" y1="36.489" x2="111.804" y2="81.76" gradientUnits="userSpaceOnUse"><stop stop-color="#DFFEFF"/><stop offset="1" stop-color="#1877F2"/></linearGradient><linearGradient id="Y" x1="76.091" y1="76.398" x2="81.538" y2="115.171" gradientUnits="userSpaceOnUse"><stop stop-color="#DFFEFF"/><stop offset="1" stop-color="#1877F2"/></linearGradient><linearGradient id="Z" x1="47.597" y1="103.573" x2="60.264" y2="142.437" gradientUnits="userSpaceOnUse"><stop stop-color="#DFFEFF"/><stop offset="1" stop-color="#1877F2"/></linearGradient><linearGradient id="aa" x1="40.197" y1="92.546" x2="61.25" y2="154.511" gradientUnits="userSpaceOnUse"><stop stop-color="#DFFEFF"/><stop offset="1" stop-color="#1877F2"/></linearGradient><linearGradient id="ab" x1="45.112" y1="85.561" x2="101.159" y2="131.469" gradientUnits="userSpaceOnUse"><stop stop-color="#1877F2"/><stop offset="1" stop-color="#0049A7"/></linearGradient><linearGradient id="ac" x1="93.47" y1="112.691" x2="90.506" y2="83.33" gradientUnits="userSpaceOnUse"><stop stop-color="#F6FBFF"/><stop offset="1" stop-color="#3D6DFF"/></linearGradient><linearGradient id="ad" x1="81.936" y1="105.377" x2="80.245" y2="92.919" gradientUnits="userSpaceOnUse"><stop stop-color="#01B3F9"/><stop offset="1" stop-color="#015BEA"/></linearGradient><linearGradient id="ae" x1="86.287" y1="104.793" x2="84.595" y2="92.326" gradientUnits="userSpaceOnUse"><stop stop-color="#01B3F9"/><stop offset="1" stop-color="#015BEA"/></linearGradient><linearGradient id="af" x1="90.637" y1="104.2" x2="88.945" y2="91.742" gradientUnits="userSpaceOnUse"><stop stop-color="#01B3F9"/><stop offset="1" stop-color="#015BEA"/></linearGradient><linearGradient id="ag" x1="94.978" y1="103.616" x2="93.287" y2="91.149" gradientUnits="userSpaceOnUse"><stop stop-color="#01B3F9"/><stop offset="1" stop-color="#015BEA"/></linearGradient><linearGradient id="ah" x1="99.328" y1="103.023" x2="97.637" y2="90.565" gradientUnits="userSpaceOnUse"><stop stop-color="#01B3F9"/><stop offset="1" stop-color="#015BEA"/></linearGradient><linearGradient id="ai" x1="103.67" y1="102.43" x2="101.987" y2="89.972" gradientUnits="userSpaceOnUse"><stop stop-color="#01B3F9"/><stop offset="1" stop-color="#015BEA"/></linearGradient><radialGradient id="i" cx="0" cy="0" r="1" gradientUnits="userSpaceOnUse" gradientTransform="matrix(1.15948 0 0 1.15947 48.416 69.006)"><stop stop-color="#fff"/><stop offset=".12" stop-color="#0EB8F1"/><stop offset=".14" stop-color="#0DA5D8" stop-opacity=".9"/><stop offset=".18" stop-color="#0A7FA6" stop-opacity=".69"/><stop offset=".23" stop-color="#075D79" stop-opacity=".5"/><stop offset=".28" stop-color="#054054" stop-opacity=".35"/><stop offset=".33" stop-color="#032935" stop-opacity=".22"/><stop offset=".39" stop-color="#02171E" stop-opacity=".12"/><stop offset=".44" stop-color="#010A0D" stop-opacity=".05"/><stop offset=".51" stop-color="#000203" stop-opacity=".01"/><stop offset=".58" stop-opacity="0"/></radialGradient><radialGradient id="j" cx="0" cy="0" r="1" gradientUnits="userSpaceOnUse" gradientTransform="translate(51.843 65.728) scale(1.15947)"><stop stop-color="#fff"/><stop offset=".12" stop-color="#0EB8F1"/><stop offset=".14" stop-color="#0DA5D8" stop-opacity=".9"/><stop offset=".18" stop-color="#0A7FA6" stop-opacity=".69"/><stop offset=".23" stop-color="#075D79" stop-opacity=".5"/><stop offset=".28" stop-color="#054054" stop-opacity=".35"/><stop offset=".33" stop-color="#032935" stop-opacity=".22"/><stop offset=".39" stop-color="#02171E" stop-opacity=".12"/><stop offset=".44" stop-color="#010A0D" stop-opacity=".05"/><stop offset=".51" stop-color="#000203" stop-opacity=".01"/><stop offset=".58" stop-opacity="0"/></radialGradient><radialGradient id="k" cx="0" cy="0" r="1" gradientUnits="userSpaceOnUse" gradientTransform="translate(50.116 70.89) scale(1.15947)"><stop stop-color="#fff"/><stop offset=".12" stop-color="#0EB8F1"/><stop offset=".14" stop-color="#0DA5D8" stop-opacity=".9"/><stop offset=".18" stop-color="#0A7FA6" stop-opacity=".69"/><stop offset=".23" stop-color="#075D79" stop-opacity=".5"/><stop offset=".28" stop-color="#054054" stop-opacity=".35"/><stop offset=".33" stop-color="#032935" stop-opacity=".22"/><stop offset=".39" stop-color="#02171E" stop-opacity=".12"/><stop offset=".44" stop-color="#010A0D" stop-opacity=".05"/><stop offset=".51" stop-color="#000203" stop-opacity=".01"/><stop offset=".58" stop-opacity="0"/></radialGradient><radialGradient id="l" cx="0" cy="0" r="1" gradientUnits="userSpaceOnUse" gradientTransform="matrix(1.15946 0 0 1.15947 54.955 73.827)"><stop stop-color="#fff"/><stop offset=".12" stop-color="#0EB8F1"/><stop offset=".14" stop-color="#0DA5D8" stop-opacity=".9"/><stop offset=".18" stop-color="#0A7FA6" stop-opacity=".69"/><stop offset=".23" stop-color="#075D79" stop-opacity=".5"/><stop offset=".28" stop-color="#054054" stop-opacity=".35"/><stop offset=".33" stop-color="#032935" stop-opacity=".22"/><stop offset=".39" stop-color="#02171E" stop-opacity=".12"/><stop offset=".44" stop-color="#010A0D" stop-opacity=".05"/><stop offset=".51" stop-color="#000203" stop-opacity=".01"/><stop offset=".58" stop-opacity="0"/></radialGradient><radialGradient id="m" cx="0" cy="0" r="1" gradientUnits="userSpaceOnUse" gradientTransform="matrix(.56667 0 0 .56666 57.117 69.573)"><stop stop-color="#fff"/><stop offset=".12" stop-color="#0EB8F1"/><stop offset=".14" stop-color="#0DA5D8" stop-opacity=".9"/><stop offset=".18" stop-color="#0A7FA6" stop-opacity=".69"/><stop offset=".23" stop-color="#075D79" stop-opacity=".5"/><stop offset=".28" stop-color="#054054" stop-opacity=".35"/><stop offset=".33" stop-color="#032935" stop-opacity=".22"/><stop offset=".39" stop-color="#02171E" stop-opacity=".12"/><stop offset=".44" stop-color="#010A0D" stop-opacity=".05"/><stop offset=".51" stop-color="#000203" stop-opacity=".01"/><stop offset=".58" stop-opacity="0"/></radialGradient><radialGradient id="n" cx="0" cy="0" r="1" gradientUnits="userSpaceOnUse" gradientTransform="matrix(.56666 0 0 .56666 51.276 73.827)"><stop stop-color="#fff"/><stop offset=".12" stop-color="#0EB8F1"/><stop offset=".14" stop-color="#0DA5D8" stop-opacity=".9"/><stop offset=".18" stop-color="#0A7FA6" stop-opacity=".69"/><stop offset=".23" stop-color="#075D79" stop-opacity=".5"/><stop offset=".28" stop-color="#054054" stop-opacity=".35"/><stop offset=".33" stop-color="#032935" stop-opacity=".22"/><stop offset=".39" stop-color="#02171E" stop-opacity=".12"/><stop offset=".44" stop-color="#010A0D" stop-opacity=".05"/><stop offset=".51" stop-color="#000203" stop-opacity=".01"/><stop offset=".58" stop-opacity="0"/></radialGradient><radialGradient id="o" cx="0" cy="0" r="1" gradientUnits="userSpaceOnUse" gradientTransform="matrix(.56665 0 0 .56665 53.447 69.974)"><stop stop-color="#fff"/><stop offset=".12" stop-color="#0EB8F1"/><stop offset=".14" stop-color="#0DA5D8" stop-opacity=".9"/><stop offset=".18" stop-color="#0A7FA6" stop-opacity=".69"/><stop offset=".23" stop-color="#075D79" stop-opacity=".5"/><stop offset=".28" stop-color="#054054" stop-opacity=".35"/><stop offset=".33" stop-color="#032935" stop-opacity=".22"/><stop offset=".39" stop-color="#02171E" stop-opacity=".12"/><stop offset=".44" stop-color="#010A0D" stop-opacity=".05"/><stop offset=".51" stop-color="#000203" stop-opacity=".01"/><stop offset=".58" stop-opacity="0"/></radialGradient><radialGradient id="U" cx="0" cy="0" r="1" gradientUnits="userSpaceOnUse" gradientTransform="matrix(38.8988 0 0 38.8989 99.598 103.468)"><stop stop-color="#419DFF"/><stop offset=".53" stop-color="#1D4CD4"/><stop offset="1" stop-color="#08137A"/></radialGradient><radialGradient id="aj" cx="0" cy="0" r="1" gradientUnits="userSpaceOnUse" gradientTransform="translate(94.928 15.822) scale(11.185)"><stop stop-color="#fff"/><stop offset=".02" stop-color="#EEE" stop-opacity=".93"/><stop offset=".09" stop-color="#BDBDBD" stop-opacity=".74"/><stop offset=".17" stop-color="#909090" stop-opacity=".56"/><stop offset=".25" stop-color="#696969" stop-opacity=".41"/><stop offset=".34" stop-color="#484848" stop-opacity=".28"/><stop offset=".43" stop-color="#2E2E2E" stop-opacity=".18"/><stop offset=".53" stop-color="#191919" stop-opacity=".1"/><stop offset=".64" stop-color="#0B0B0B" stop-opacity=".04"/><stop offset=".78" stop-color="#030303" stop-opacity=".01"/><stop offset="1" stop-opacity="0"/></radialGradient><radialGradient id="ak" cx="0" cy="0" r="1" gradientUnits="userSpaceOnUse" gradientTransform="translate(70.638 102.858) scale(13.748)"><stop stop-color="#fff"/><stop offset=".04" stop-color="#EAEAEA" stop-opacity=".92"/><stop offset=".15" stop-color="#B4B4B4" stop-opacity=".71"/><stop offset=".26" stop-color="#848484" stop-opacity=".52"/><stop offset=".37" stop-color="#5B5B5B" stop-opacity=".36"/><stop offset=".49" stop-color="#3A3A3A" stop-opacity=".23"/><stop offset=".61" stop-color="#212121" stop-opacity=".13"/><stop offset=".73" stop-color="#0E0E0E" stop-opacity=".06"/><stop offset=".86" stop-color="#040404" stop-opacity=".01"/><stop offset="1" stop-opacity="0"/></radialGradient></defs></svg>